<svg viewBox="0 0 330 200" xmlns="http://www.w3.org/2000/svg"><g><g><g><g><g><line x1="51.5625" y1="177" x2="46.5625" y2="177" style="visibility: inherit;" fill="rgb(0, 0, 0)" stroke="rgb(204, 204, 204)" stroke-width="1px"></line><line x1="51.5625" y1="159.3" x2="46.5625" y2="159.3" style="visibility: inherit;" fill="rgb(0, 0, 0)" stroke="rgb(204, 204, 204)" stroke-width="1px"></line><line x1="51.5625" y1="141.6" x2="46.5625" y2="141.6" style="visibility: inherit;" fill="rgb(0, 0, 0)" stroke="rgb(204, 204, 204)" stroke-width="1px"></line><line x1="51.5625" y1="123.89999999999999" x2="46.5625" y2="123.89999999999999" style="visibility: inherit;" fill="rgb(0, 0, 0)" stroke="rgb(204, 204, 204)" stroke-width="1px"></line><line x1="51.5625" y1="106.2" x2="46.5625" y2="106.2" style="visibility: inherit;" fill="rgb(0, 0, 0)" stroke="rgb(204, 204, 204)" stroke-width="1px"></line><line x1="51.5625" y1="88.5" x2="46.5625" y2="88.5" style="visibility: inherit;" fill="rgb(0, 0, 0)" stroke="rgb(204, 204, 204)" stroke-width="1px"></line><line x1="51.5625" y1="70.8" x2="46.5625" y2="70.8" style="visibility: inherit;" fill="rgb(0, 0, 0)" stroke="rgb(204, 204, 204)" stroke-width="1px"></line><line x1="51.5625" y1="53.10000000000001" x2="46.5625" y2="53.10000000000001" style="visibility: inherit;" fill="rgb(0, 0, 0)" stroke="rgb(204, 204, 204)" stroke-width="1px"></line><line x1="51.5625" y1="35.40000000000001" x2="46.5625" y2="35.40000000000001" style="visibility: inherit;" fill="rgb(0, 0, 0)" stroke="rgb(204, 204, 204)" stroke-width="1px"></line><line x1="51.5625" y1="17.699999999999996" x2="46.5625" y2="17.699999999999996" style="visibility: inherit;" fill="rgb(0, 0, 0)" stroke="rgb(204, 204, 204)" stroke-width="1px"></line><line x1="51.5625" y1="0" x2="46.5625" y2="0" style="visibility: inherit;" fill="rgb(0, 0, 0)" stroke="rgb(204, 204, 204)" stroke-width="1px"></line></g><g transform="translate(41.5625, 0)"><text x="0" y="177" dx="0em" dy="0.3em" style="text-anchor: end; visibility: hidden; font-family: Roboto, sans-serif; font-size: 12px; font-weight: 200;" fill="rgb(255, 255, 255)" stroke="none" stroke-width="1px">-0.1</text><text x="0" y="159.3" dx="0em" dy="0.3em" style="text-anchor: end; visibility: inherit; font-family: Roboto, sans-serif; font-size: 12px; font-weight: 200;" fill="rgb(255, 255, 255)" stroke="none" stroke-width="1px">0</text><text x="0" y="141.6" dx="0em" dy="0.3em" style="text-anchor: end; visibility: hidden; font-family: Roboto, sans-serif; font-size: 12px; font-weight: 200;" fill="rgb(255, 255, 255)" stroke="none" stroke-width="1px">0.1</text><text x="0" y="123.89999999999999" dx="0em" dy="0.3em" style="text-anchor: end; visibility: inherit; font-family: Roboto, sans-serif; font-size: 12px; font-weight: 200;" fill="rgb(255, 255, 255)" stroke="none" stroke-width="1px">0.2</text><text x="0" y="106.2" dx="0em" dy="0.3em" style="text-anchor: end; visibility: hidden; font-family: Roboto, sans-serif; font-size: 12px; font-weight: 200;" fill="rgb(255, 255, 255)" stroke="none" stroke-width="1px">0.3</text><text x="0" y="88.5" dx="0em" dy="0.3em" style="text-anchor: end; visibility: inherit; font-family: Roboto, sans-serif; font-size: 12px; font-weight: 200;" fill="rgb(255, 255, 255)" stroke="none" stroke-width="1px">0.4</text><text x="0" y="70.8" dx="0em" dy="0.3em" style="text-anchor: end; visibility: hidden; font-family: Roboto, sans-serif; font-size: 12px; font-weight: 200;" fill="rgb(255, 255, 255)" stroke="none" stroke-width="1px">0.5</text><text x="0" y="53.10000000000001" dx="0em" dy="0.3em" style="text-anchor: end; visibility: inherit; font-family: Roboto, sans-serif; font-size: 12px; font-weight: 200;" fill="rgb(255, 255, 255)" stroke="none" stroke-width="1px">0.6</text><text x="0" y="35.40000000000001" dx="0em" dy="0.3em" style="text-anchor: end; visibility: hidden; font-family: Roboto, sans-serif; font-size: 12px; font-weight: 200;" fill="rgb(255, 255, 255)" stroke="none" stroke-width="1px">0.7</text><text x="0" y="17.699999999999996" dx="0em" dy="0.3em" style="text-anchor: end; visibility: inherit; font-family: Roboto, sans-serif; font-size: 12px; font-weight: 200;" fill="rgb(255, 255, 255)" stroke="none" stroke-width="1px">0.8</text><text x="0" y="0" dx="0em" dy="0.3em" style="text-anchor: end; visibility: hidden; font-family: Roboto, sans-serif; font-size: 12px; font-weight: 200;" fill="rgb(255, 255, 255)" stroke="none" stroke-width="1px">0.9</text></g><line x1="51.5625" y1="0" x2="51.5625" y2="177" fill="rgb(0, 0, 0)" stroke="rgb(204, 204, 204)" stroke-width="1px"></line></g></g><g transform="translate(51, 0)" clip-path="url(#clip_0)"><clipPath id="clip_0"><rect width="278" height="177"></rect></clipPath><g><g><g><line x1="0" y1="0" x2="0" y2="177" fill="rgb(0, 0, 0)" stroke="rgb(189, 189, 189)" stroke-width="1px" opacity="0.25"></line><line x1="25.3125" y1="0" x2="25.3125" y2="177" fill="rgb(0, 0, 0)" stroke="rgb(189, 189, 189)" stroke-width="1px" opacity="0.25"></line><line x1="50.625" y1="0" x2="50.625" y2="177" fill="rgb(0, 0, 0)" stroke="rgb(189, 189, 189)" stroke-width="1px" opacity="0.25"></line><line x1="75.9375" y1="0" x2="75.9375" y2="177" fill="rgb(0, 0, 0)" stroke="rgb(189, 189, 189)" stroke-width="1px" opacity="0.25"></line><line x1="101.25" y1="0" x2="101.25" y2="177" fill="rgb(0, 0, 0)" stroke="rgb(189, 189, 189)" stroke-width="1px" opacity="0.25"></line><line x1="126.5625" y1="0" x2="126.5625" y2="177" fill="rgb(0, 0, 0)" stroke="rgb(189, 189, 189)" stroke-width="1px" opacity="0.25"></line><line x1="151.875" y1="0" x2="151.875" y2="177" fill="rgb(0, 0, 0)" stroke="rgb(189, 189, 189)" stroke-width="1px" opacity="0.25"></line><line x1="177.1875" y1="0" x2="177.1875" y2="177" fill="rgb(0, 0, 0)" stroke="rgb(189, 189, 189)" stroke-width="1px" opacity="0.25"></line><line x1="202.5" y1="0" x2="202.5" y2="177" fill="rgb(0, 0, 0)" stroke="rgb(189, 189, 189)" stroke-width="1px" opacity="0.25"></line><line x1="227.8125" y1="0" x2="227.8125" y2="177" fill="rgb(0, 0, 0)" stroke="rgb(189, 189, 189)" stroke-width="1px" opacity="0.25"></line><line x1="253.125" y1="0" x2="253.125" y2="177" fill="rgb(0, 0, 0)" stroke="rgb(189, 189, 189)" stroke-width="1px" opacity="0.25"></line><line x1="278.4375" y1="0" x2="278.4375" y2="177" fill="rgb(0, 0, 0)" stroke="rgb(189, 189, 189)" stroke-width="1px" opacity="0.25"></line></g><g><line x1="0" y1="177" x2="278.4375" y2="177" fill="rgb(0, 0, 0)" stroke="rgb(189, 189, 189)" stroke-width="1px" opacity="0.25"></line><line x1="0" y1="159.3" x2="278.4375" y2="159.3" fill="rgb(0, 0, 0)" stroke="rgb(189, 189, 189)" stroke-width="1px" opacity="0.25"></line><line x1="0" y1="141.6" x2="278.4375" y2="141.6" fill="rgb(0, 0, 0)" stroke="rgb(189, 189, 189)" stroke-width="1px" opacity="0.25"></line><line x1="0" y1="123.89999999999999" x2="278.4375" y2="123.89999999999999" fill="rgb(0, 0, 0)" stroke="rgb(189, 189, 189)" stroke-width="1px" opacity="0.25"></line><line x1="0" y1="106.2" x2="278.4375" y2="106.2" fill="rgb(0, 0, 0)" stroke="rgb(189, 189, 189)" stroke-width="1px" opacity="0.25"></line><line x1="0" y1="88.5" x2="278.4375" y2="88.5" fill="rgb(0, 0, 0)" stroke="rgb(189, 189, 189)" stroke-width="1px" opacity="0.25"></line><line x1="0" y1="70.8" x2="278.4375" y2="70.8" fill="rgb(0, 0, 0)" stroke="rgb(189, 189, 189)" stroke-width="1px" opacity="0.25"></line><line x1="0" y1="53.10000000000001" x2="278.4375" y2="53.10000000000001" fill="rgb(0, 0, 0)" stroke="rgb(189, 189, 189)" stroke-width="1px" opacity="0.25"></line><line x1="0" y1="35.40000000000001" x2="278.4375" y2="35.40000000000001" fill="rgb(0, 0, 0)" stroke="rgb(189, 189, 189)" stroke-width="1px" opacity="0.25"></line><line x1="0" y1="17.699999999999996" x2="278.4375" y2="17.699999999999996" fill="rgb(0, 0, 0)" stroke="rgb(189, 189, 189)" stroke-width="1px" opacity="0.25"></line><line x1="0" y1="0" x2="278.4375" y2="0" fill="rgb(0, 0, 0)" stroke="rgb(189, 189, 189)" stroke-width="1px" opacity="0.25"></line></g></g></g><g><g><line x1="0" y1="159.3" x2="278.4375" y2="159.3" fill="rgb(0, 0, 0)" stroke="rgb(153, 153, 153)" stroke-width="1.5px"></line></g></g><g><g><line x1="25.3125" y1="0" x2="25.3125" y2="177" fill="rgb(0, 0, 0)" stroke="rgb(153, 153, 153)" stroke-width="1.5px"></line></g></g><g><g><g><g><g><path stroke="rgb(255, 112, 67)" stroke-width="2px" d="M25.565624999999997,159.3L25.81875,159.3L26.071875000000002,159.3L26.325,159.3L26.578125,159.3L26.831249999999997,159.3L27.084375,159.3L27.3375,159.3L27.590625,159.3L27.84375,159.3L28.096875,159.3L28.35,159.3L28.603125,159.3L28.85625,159.3L29.109374999999996,159.3L29.3625,159.3L29.615625,159.3L29.86875,159.3L30.121875,159.3L30.375,159.3L30.628125,159.3L30.88125,159.3L31.134375,159.3L31.387500000000003,159.3L31.640625,159.3L31.89375,159.3L32.146875,159.3L32.4,159.3L32.653125,159.3L32.90625,159.3L33.159375000000004,159.3L33.4125,159.3L33.665625,159.3L33.918749999999996,159.3L34.171875,159.3L34.425000000000004,159.3L34.678125,159.3L34.93125,159.3L35.184375,159.3L35.43749999999999,159.3L35.690625,159.3L35.94375,159.3L36.196875,159.3L36.45,159.3L36.703125,159.3L36.95625,159.3L37.209375,159.3L37.4625,159.3L37.715625,159.3L37.96875,159.3L38.221875,159.3L38.475,159.3L38.728125,159.3L38.98125,159.3L39.234375,159.3L39.4875,159.3L39.740625,159.3L39.993750000000006,159.3L40.246874999999996,159.3L40.5,159.3L40.753125,159.3L41.00625,159.3L41.259375000000006,159.3L41.512499999999996,159.3L41.765625,159.3L42.01875,159.3L42.271875,159.3L42.525000000000006,159.3L42.778124999999996,159.3L43.03125,159.3L43.284375,159.3L43.5375,159.3L43.790625000000006,159.3L44.043749999999996,159.3L44.296875,159.3L44.550000000000004,159.3L44.803125,159.3L45.05625,159.3L45.309374999999996,159.3L45.5625,159.3L45.815625000000004,159.3L46.06875,159.3L46.321875,159.3L46.574999999999996,159.3L46.828125,159.3L47.081250000000004,159.3L47.334375,159.3L47.5875,159.3L47.840624999999996,159.3L48.09375,159.3L48.346875000000004,159.3L48.6,159.3L48.853125,159.3L49.10625,159.3L49.359375,159.3L49.612500000000004,159.3L49.865624999999994,159.3L50.11875,159.3L50.371875,159.3L50.625,159.3L50.878125000000004,159.3L51.131249999999994,159.3L51.384375,159.3L51.6375,159.3L51.890625,159.3L52.143750000000004,159.3L52.396874999999994,159.3L52.65,159.3L52.903125,159.3L53.15625,159.3L53.409375,159.3L53.662499999999994,159.3L53.915625,159.3L54.16875,159.3L54.421875,159.3L54.675,159.3L54.928125,159.3L55.18125,159.3L55.434375,159.3L55.6875,159.3L55.940625,159.3L56.19375,159.3L56.446875,159.3L56.7,159.3L56.953125,159.3L57.20625,159.3L57.459375,159.3L57.7125,159.3L57.965625,159.3L58.21874999999999,159.3L58.471875,159.3L58.725,159.3L58.978125,159.3L59.23125,159.3L59.484375,159.3L59.7375,159.3L59.990625,159.3L60.24375,159.3L60.496875,159.3L60.75,159.3L61.003125,159.3L61.25625,159.3L61.509375,159.3L61.7625,159.3L62.015625,159.3L62.26875,159.3L62.521875,159.3L62.775000000000006,159.3L63.028124999999996,159.3L63.28125,159.3L63.534375,159.3L63.7875,159.3L64.040625,159.3L64.29375,159.3L64.546875,159.3L64.8,159.3L65.05312500000001,159.3L65.30625,159.3L65.559375,159.3L65.8125,159.3L66.065625,159.3L66.31875000000001,159.3L66.571875,159.3L66.825,159.3L67.078125,159.3L67.33125,159.3L67.58437500000001,159.3L67.83749999999999,159.3L68.090625,159.3L68.34375,159.3L68.596875,159.3L68.85000000000001,159.3L69.10312499999999,159.3L69.35625,159.3L69.609375,159.3L69.8625,159.3L70.11562500000001,159.3L70.36875,159.3L70.621875,159.3L70.87499999999999,159.3L71.128125,159.3L71.38125,159.3L71.63437499999999,159.3L71.8875,159.3L72.140625,159.3L72.39375,159.3L72.64687500000001,159.3L72.9,159.3L73.153125,159.3L73.40625,159.3L73.659375,159.3L73.9125,159.3L74.16562499999999,159.3L74.41875,159.3L74.671875,159.3L74.925,159.3L75.17812500000001,159.3L75.43125,159.3L75.68437499999999,159.3L75.9375,159.3L76.190625,159.3L76.44375,159.3L76.696875,159.3L76.95,159.3L77.203125,159.3L77.45625,159.3L77.70937500000001,159.3L77.9625,159.3L78.21562499999999,159.3L78.46875,159.3L78.721875,159.3L78.975,159.3L79.228125,159.3L79.48125,159.3L79.734375,159.3L79.98750000000001,158.38928023043454L80.24062500000001,158.39394682099345L80.49374999999999,158.3985704315353L80.74687499999999,158.40315165083473L81,158.40769105696134L81.253125,158.41218921752204L81.50625,158.41664668989654L81.759375,158.4210640214668L82.0125,158.42544174984016L82.265625,158.42978040306645L82.51875000000001,158.43408049984953L82.77187500000001,158.4383425497532L83.02499999999999,158.44256705340152L83.27812499999999,158.44675450267408L83.53125,158.45090538089605L83.784375,158.45502016302342L84.0375,158.45909931582324L84.290625,158.46314329804946L84.54375,158.46715256061412L84.796875,158.4711275467542L85.05000000000001,158.47506869219413L85.303125,158.4789764253045L85.55624999999999,158.4828511672564L85.809375,158.48669333217197L86.0625,158.4905033272714L86.315625,158.49428155301612L86.56875,158.4980284032483L86.821875,158.50174426532723L87.075,158.505429520262L87.328125,158.5090845428412L87.58125000000001,158.51270970175935L87.834375,158.51630535974022L88.08749999999999,158.5198718736572L88.340625,158.52340959465084L88.59375,158.52691886824348L88.846875,158.53040003445108L89.10000000000001,158.5338534278927L89.353125,158.53727937789677L89.60625,158.54067820860573L89.859375,158.54405023907734L90.1125,158.54739578338402L90.365625,158.55071515071015L90.61874999999999,158.55400864544637L90.871875,158.55727656728246L91.125,158.5605192112976L91.378125,158.56373686804864L91.63125000000001,158.05519868214972L91.884375,158.0605790648295L92.1375,158.0659184530218L92.39062500000001,158.0712173108274L92.64375,158.07647609536824L92.896875,157.3266698824206L93.14999999999999,157.33506007770455L93.403125,157.3433875204601L93.65625,157.3516529079575L93.909375,157.35985692717514L94.16250000000001,157.36800025498894L94.415625,157.37608355835735L94.66875,157.38410749450213L94.921875,157.3920727110857L95.175,157.39997984638396L95.428125,157.40782952945602L95.68124999999999,157.41562238030983L95.934375,157.42335901006436L96.1875,157.43104002110843L96.440625,157.43866600725596L96.69375000000001,157.4462375538981L96.946875,157.45375523815193L97.2,157.46121962900622L97.453125,157.46863128746404L97.70625,157.4759907666822L97.959375,157.48329861210826L98.2125,157.490555361614L98.465625,156.7928521257877L98.71875,156.80280724867083L98.971875,156.81269347381118L99.22500000000001,156.82251150908988L99.478125,156.13565085569L99.73124999999999,156.1480681938668L99.984375,156.16040074265604L100.2375,156.172649361445L100.490625,156.18481489804694L100.74375,156.1968981888951L100.996875,156.20890005923312L101.25,156.2208213233016L101.50312500000001,156.2326627845207L101.75625000000001,156.24442523566933L102.009375,156.25610945906084L102.26249999999999,156.26771622671515L102.515625,156.27924630052735L102.76875,156.29070043243323L103.021875,156.3020793645716L103.275,156.3133838294431L103.528125,156.32461455006626L103.78125,156.3357722401306L104.03437500000001,156.3468576041463L104.28750000000001,156.35787133759158L104.54062499999999,156.3688141270568L104.79374999999999,156.37968665038608L105.046875,156.39048957681615L105.3,156.4012235671124L105.553125,156.4118892737027L105.80625,156.42248734080837L106.059375,156.43301840457272L106.3125,156.44348309318752L106.56562500000001,156.45388202701665L106.81875,156.46421581871772L107.07187499999999,156.4744850733613L107.32499999999999,156.4846903885482L107.578125,156.4948323545241L107.83125,156.50491155429262L108.084375,156.51492856372582L108.3375,156.5248839516732L108.590625,156.5347782800681L108.84375,156.54461210403278L109.09687500000001,156.55438597198108L109.35,156.56410042571963L109.60312499999999,156.5737560005469L109.85625,156.58335322535075L110.109375,156.59289262270406L110.3625,156.6023747089587L110.615625,156.61179999433787L110.86875,156.62116898302665L111.121875,156.63048217326119L111.375,156.63974005741616L111.628125,156.6489431220906L111.88125,156.65809184819256L112.13437499999999,156.6671867110218L112.3875,156.67622818035147L112.640625,156.68521672050827L112.89375,156.69415279045091L113.14687500000001,156.70303684384774L113.4,156.71186932915256L113.653125,156.72065068967945L113.90625,156.72938136367605L114.159375,156.73806178439594L114.4125,156.74669238016938L114.66562499999999,156.7552735744731L114.91875,156.763805785999L115.171875,156.77228942872134L115.425,156.78072491196303L115.67812500000001,156.78911264046096L115.93125,156.7974530144298L116.184375,156.80574642962517L116.43749999999999,156.81399327740544L116.690625,156.82219394479273L116.94375,156.8303488145328L117.19687499999999,156.83845826515386L117.45,156.8465226710246L117.703125,156.85454240241108L117.95625,156.8625178255329L118.20937500000001,156.87044930261825L118.4625,156.87833719195814L118.715625,156.8861818479597L118.96875,156.8939836211988L119.221875,156.90174285847158L119.475,156.9094599028453L119.72812499999999,156.91713509370825L119.98125,156.92476876681908L120.234375,156.93236125435504L120.4875,156.93991288495968L120.74062500000001,156.94742398378975L120.99375,156.95489487256117L121.24687499999999,156.96232586959465L121.5,156.4100664086762L121.753125,156.4191842895564L122.00625,155.87101114377626L122.259375,155.32573518839496L122.5125,155.33819372124316L122.765625,154.79690880036082L123.01875,154.81096511428677L123.27187500000001,154.82494788750623L123.525,154.8388576887021L123.77812499999999,154.8526950807097L124.03125,154.8664606205919L124.284375,154.88015485971292L124.5375,154.34820341780983L124.790625,154.36343484228865L125.04375,154.3785879588876L125.296875,154.39366336242776L125.55000000000001,154.40866164172206L125.80312500000001,154.42358337965095L126.05624999999999,154.43842915323702L126.30937499999999,154.4531995337184L126.5625,154.46789508662093L126.815625,154.48251637182958L127.06875,154.49706394365842L127.321875,154.51153835091992L127.575,154.5259401369929L127.828125,154.5402698398896L128.08125,154.55452799232197L128.334375,154.56871512176653L128.5875,154.58283175052873L128.840625,154.59687839580596L129.09375,154.6108555697501L129.346875,154.6247637795287L129.6,154.63860352738553L129.853125,154.65237531070022L130.10625000000002,154.66607962204694L130.359375,154.67971694925237L130.6125,154.69328777545272L130.865625,154.70679257915L131.11875,154.72023183426737L131.371875,154.73360601020394L131.625,154.7469155718884L131.878125,154.7601609798324L132.13125,154.77334269018255L132.384375,154.78646115477235L132.63750000000002,154.7995168211728L132.890625,154.8125101327427L133.14375,154.82544152867797L133.396875,154.83831144406054L133.65,154.8511203099062L133.903125,154.86386855321226L134.15625,154.87655659700405L134.409375,154.88918486038108L134.6625,154.90175375856256L134.915625,154.41082209647223L135.16875000000002,154.4247027989536L135.421875,154.43851868485737L135.67499999999998,153.95159600906473L135.928125,153.96669725177546L136.18125,153.98172844660817L136.434375,153.9966900723451L136.6875,154.01158260341603L136.940625,154.02640650994783L137.19375,154.04116225781303L137.446875,154.05585030867778L137.70000000000002,154.07047112004932L137.953125,154.08502514532265L138.20624999999998,154.09951283382668L138.459375,154.1139346308697L138.7125,154.12829097778413L138.965625,154.14258231197104L139.21875,154.15680906694357L139.47187499999998,154.17097167237026L139.725,154.18507055411743L139.97812499999998,154.19910613429113L140.23125000000002,154.21307883127872L140.484375,154.22698905978953L140.7375,154.2408372308954L140.990625,154.2546237520703L141.24375,153.7868440643051L141.496875,153.80181611447927L141.74999999999997,153.33686719537081L142.003125,153.033649161519L142.25625,152.73176689666562L142.509375,152.27207622139764L142.7625,151.81440219954547L143.015625,151.83452417837208L143.26874999999998,151.85455824809807L143.52187500000002,151.87450497359336L143.775,151.8943649149003L144.028125,151.914138627285L144.28125,151.46200870496347L144.53437499999998,151.48286721102215L144.7875,151.50363570756636L145.04062499999998,151.5243147656335L145.29375000000002,151.54490495144233L145.546875,151.56540682644385L145.8,151.58582094737122L146.053125,151.60614786628926L146.30625,151.6263881306434L146.559375,151.64654228330772L146.8125,151.6666108626327L147.065625,151.68659440249215L147.31875,151.7064934323297L147.571875,151.7263084772047L147.825,151.7460400578374L148.078125,151.7656886906538L148.33124999999998,151.78525488782978L148.58437500000002,151.80473915733464L148.8375,151.82414200297438L149.090625,151.8434639244342L149.34375,151.86270541732048L149.59687499999998,151.88186697320234L149.85,151.9009490796528L150.103125,151.9199522202891L150.35625000000002,151.9388768748129L150.609375,151.95772351904975L150.8625,151.97649262498817L151.115625,151.99518466081832L151.36874999999998,152.01380009097008L151.621875,152.03233937615067L151.875,152.05080297338196L152.128125,152.06919133603733L152.38125,152.08750491387775L152.634375,152.10574415308795L152.8875,152.1239094963118L153.140625,152.14200138268728L153.39375,152.16002024788133L153.646875,152.1779665241238L153.9,152.19584064024158L154.153125,152.21364302169187L154.40625,152.2313740905951L154.65937499999998,151.95422438911015L154.9125,151.97254953377842L155.165625,151.99080168302206L155.41875000000002,152.0089812630426L155.671875,152.02708869673154L155.925,151.60619149214463L156.178125,151.6252427667971L156.43124999999998,151.64421885484424L156.68437500000002,151.66312019105843L156.9375,151.6819472068678L157.190625,151.70070033038854L157.44375,151.28430053600846L157.696875,151.303975047481L157.95,151.03436274616416L158.203125,151.05459191212393L158.45625,151.07474240415627L158.709375,151.0948146703039L158.9625,151.1148091552155L159.215625,151.1347263001781L159.46875,151.1545665431483L159.72187499999998,151.17433031878411L159.97500000000002,151.19401805847573L160.228125,151.2136301903762L160.48125000000002,151.23316713943174L160.734375,150.82559590153036L160.98749999999998,150.84601256235985L161.240625,150.8663513733094L161.49374999999998,150.88661276867924L161.74687500000002,150.4821595603194L162,150.50328473197936L162.253125,150.52432991999913L162.50625,150.5452955672952L162.759375,150.56618211352176L163.0125,150.58698999510057L163.26562499999997,150.60771964525054L163.51875,150.62837149401733L163.771875,150.64894596830203L164.025,150.66944349189015L164.278125,150.6898644854798L164.53125,150.71020936670973L164.78437499999998,150.73047855018726L165.03750000000002,150.75067244751568L165.290625,150.77079146732126L165.54375000000002,150.79083601528032L165.796875,150.81080649414577L166.04999999999998,150.83070330377322L166.303125,150.8505268411473L166.55624999999998,150.87027750040704L166.80937500000002,150.8899556728716L167.0625,150.90956174706528L167.315625,150.92909610874253L167.56875,150.94855914091252L167.821875,150.96795122386357L168.075,150.98727273518725L168.328125,151.00652404980224L168.58125,151.02570553997793L168.834375,151.04481757535783L169.0875,151.06386052298265L169.340625,151.0828347473132L169.59375,151.10174061025293L169.84687499999998,151.1205784711705L170.10000000000002,151.1393486869217L170.353125,151.1580516118716L170.60625,151.17668759791613L170.859375,151.19525699450358L171.11249999999998,151.21376014865578L171.365625,151.23219740498928L171.61875,151.25056910573596L171.87187500000002,151.26887559076386L172.125,151.28711719759727L172.378125,151.30529426143715L172.63125,151.323407115181L172.88437499999998,151.34145608944257L173.1375,151.3594415125714L173.390625,151.37736371067237L173.64375,151.39522300762457L173.896875,151.4130197251004L174.15,151.43075418258448L174.403125,151.44842669739185L174.65625,151.46603758468675L174.909375,151.48358715750052L175.16250000000002,151.50107572674986L175.415625,151.51850360125442L175.66875,151.53587108775466L175.921875,151.55317849092913L176.17499999999998,151.57042611341197L176.428125,151.58761425580988L176.68125,151.60474321671913L176.93437500000002,151.6218132927423L177.1875,151.638824778505L177.440625,151.65577796667216L177.69375,151.6726731479645L177.94687499999998,151.68951061117443L178.20000000000002,151.70629064318223L178.453125,151.7230135289717L178.70625,151.7396795516459L178.959375,151.75628899244256L179.2125,151.38445165855393L179.465625,151.40179999914216L179.71875,151.03162427620046L179.971875,151.04970283499986L180.225,151.06772048815336L180.478125,151.08567753395246L180.73125,151.10357426874583L180.984375,151.12141098695488L181.23749999999998,151.1391879810897L181.49062500000002,151.15690554176416L181.74375,151.1745639577116L181.99687500000002,151.19216351579985L182.25,151.2097045010463L182.50312499999998,151.22718719663277L182.75625,151.24461188392038L183.00937499999998,151.261978842464L183.26250000000002,151.27928835002683L183.515625,151.29654068259475L183.76875,151.3137361143904L184.021875,151.3308749178874L184.275,151.3479573638241L184.528125,151.3649837212175L184.78125000000003,151.38195425737692L185.034375,151.3988692379174L185.2875,151.41572892677326L185.540625,151.4325335862113L185.79375,151.4492834768439L186.046875,151.46597885764214L186.29999999999998,151.4826199859487L186.55312500000002,151.49920711749053L186.80625,151.51574050639167L187.05937500000002,151.53222040518565L187.3125,151.548647064828L187.56562499999998,151.56502073470858L187.81875,151.58134166266362L188.07187499999998,151.3489042982556L188.32500000000002,151.3656440910068L188.578125,151.38233019684407L188.83125,151.398962865315L189.084375,151.4155423444248L189.3375,151.432068880648L189.590625,151.4485427189403L189.84375,151.4649641027504L190.096875,151.48133327403147L190.35,151.49765047325252L190.603125,151.51391593941L190.85625,151.53012991003877L191.109375,151.54629262122353L191.36249999999998,151.56240430760968L191.61562500000002,151.5784652024144L191.86875,151.5944755374374L192.121875,151.61043554307176L192.375,151.6263454483145L192.62812499999998,151.64220548077722L192.88125,151.65801586669653L193.134375,151.67377683094446L193.38750000000002,151.68948859703858L193.640625,151.70515138715243L193.89375,151.7207654221254L194.146875,151.73633092147287L194.4,151.75184810339596L194.653125,151.76731718479158L194.90625,151.782738381262L195.159375,151.79811190712442L195.4125,151.8134379754208L195.665625,151.82871679792711L195.91875,151.8439485851628L196.171875,151.85913354640007L196.425,151.87427188967317L196.67812500000002,151.88936382178744L196.93125,151.90440954832852L197.184375,151.91940927367108L197.4375,151.9343632009881L197.69062499999998,151.94927153225925L197.94375,151.96413446828006L198.196875,151.97895220867028L198.45000000000002,151.99372495188257L198.703125,152.00845289521115L198.95625,152.02313623480003L199.209375,152.03777516565154L199.46249999999998,152.05236988163452L199.71562500000002,152.06692057549262L199.96875,152.08142743885242L200.221875,152.09589066223154L200.475,152.11031043504659L200.728125,152.12468694562122L200.98125,152.13902038119386L201.234375,152.15331092792565L201.4875,152.1675587709081L201.740625,152.1817640941708L201.99375,152.19592708068902L202.246875,152.21004791239125L202.5,152.2241267701666L202.75312499999998,152.23816383387245L203.00625000000002,152.01830183652817L203.259375,152.0327188616412L203.51250000000002,152.04709325705204L203.765625,152.06142520439667L204.01875,152.07571488428226L204.271875,152.08996247629443L204.52499999999998,152.10416815900447L204.77812500000002,152.11833210997654L205.03125,152.13245450577472L205.284375,152.14653552197004L205.5375,152.16057533314745L205.790625,152.1745741129128L206.04375,152.18853203389963L206.29687500000003,152.20244926777593L206.55,152.216325985251L206.803125,152.23016235608202L207.05625,152.2439585490808L207.309375,151.91264243982778L207.5625,151.92703088112137L207.81562499999998,151.9413777012359L208.06875000000002,151.95568307335623L208.321875,151.62617863687797L208.57500000000002,151.64106866582108L208.828125,151.65591584085303L209.08124999999998,151.67072033931106L209.334375,151.68548233755703L209.58749999999998,151.70020201098401L209.84062500000002,151.71487953402314L210.09375,151.72951508014987L210.346875,151.74410882189093L210.6,151.7586609308304L210.853125,151.7731715776164L211.10625,151.78764093196747L211.35937499999997,151.80206916267872L211.6125,151.81645643762818L211.865625,151.8308029237831L212.11875,151.84510878720604L212.371875,151.85937419306103L212.625,151.87359930561954L212.87812499999998,151.88778428826672L213.13125000000002,151.9019293035071L213.384375,151.91603451297075L213.6375,151.930100077419L213.890625,151.9441261567504L214.14374999999998,151.9581129100063L214.396875,151.9720604953769L214.64999999999998,151.98596907020655L214.90312500000002,151.99983879099983L215.15625,152.01366981342676L215.409375,152.02746229232855L215.6625,152.04121638172313L215.915625,152.05493223481054L216.16875,152.06861000397834L216.421875,152.0822498408071L216.675,152.09585189607563L216.928125,152.1094163197663L217.18125,152.12294326107033L217.434375,152.136432868393L217.6875,152.14988528935876L217.94062499999998,152.16330067081637L218.19375000000002,152.17667915884408L218.446875,152.19002089875463L218.7,152.20332603510016L218.953125,152.21659471167732L219.20624999999998,152.2298270715322L219.459375,152.2430232569651L219.7125,152.25618340953545L219.96562500000002,152.2693076700667L220.21875,152.282396178651L220.471875,152.2954490746539L220.725,152.3084664967193L220.97812499999998,152.3214485827738L221.23125,152.0060180020428L221.484375,152.0195385254182L221.7375,152.03302247577668L221.990625,152.0464699945914L222.24375,152.05988122260848L222.496875,152.07325629985166L222.75,152.0865953656268L223.003125,152.09989855852666L223.25625,152.11316601643537L223.509375,152.12639787653293L223.7625,152.1395942752998L224.015625,152.15275534852114L224.26874999999998,152.16588123129156L224.521875,152.1789720580192L224.775,152.19202796243027L225.02812500000002,152.20504907757328L225.28125,152.21803553582342L225.534375,152.23098746888667L225.7875,152.2439050078042L226.04062499999998,151.93361523831038L226.29375000000002,151.62414757683817L226.546875,151.31549891474054L226.8,151.33004131462806L227.053125,151.34454531547712L227.30625,151.35901106194495L227.559375,151.37343869796493L227.8125,151.38782836675102L228.065625,151.40218021080238L228.31875,151.4164943719078L228.571875,151.43077099114998L228.825,151.44501020891022L229.078125,151.45921216487235L229.33124999999998,151.4733769980275L229.58437500000002,151.4875048466781L229.8375,151.5015958484422L230.09062500000002,151.5156501402578L230.34375,151.52966785838697L230.59687499999998,151.54364913841994L230.85,151.5575941152794L231.10312499999998,151.57150292322447L231.35625000000002,151.58537569585494L231.609375,151.59921256611503L231.8625,151.61301366629777L232.115625,151.62677912804867L232.36875,151.64050908236985L232.621875,151.44322878133036L232.87499999999997,151.45726502103076L233.128125,151.47126517344833L233.38125,151.48522937059522L233.634375,151.4991577438424L233.8875,151.51305042392343L234.140625,151.52690754093828L234.39374999999998,151.54072922435722L234.64687500000002,151.55451560302464L234.9,151.56826680516275L235.15312500000002,151.58198295837548L235.40625,151.59566418965198L235.65937499999998,151.29579636773033L235.9125,151.30996302315026L236.16562499999998,151.32409372572434L236.41875000000002,151.338188605098L236.671875,151.35224779029588L236.925,151.36627140972558L237.178125,151.38025959118144L237.43125,151.39421246184804L237.684375,151.40813014830397L237.9375,151.42201277652532L238.190625,151.43586047188938L238.44375,151.44967335917815L238.696875,151.4634515625818L238.95,151.4771952057023L239.203125,151.49090441155673L239.45624999999998,151.504579302581L239.70937500000002,151.518220000633L239.9625,151.53182662699615L240.215625,151.5453993023828L240.46875,151.55893814693755L240.72187499999998,151.57244328024058L240.975,151.58591482131092L241.228125,151.5993528886099L241.48125000000002,151.61275760004418L241.734375,151.6261290729692L241.9875,151.6394674241923L242.240625,151.65277276997594L242.49374999999998,151.66604522604086L242.746875,151.67928490756924L243,151.69249192920782L243.253125,151.70566640507107L243.50625,151.7188084487442L243.759375,151.73191817328626L244.0125,151.74499569123319L244.265625,151.7580411146008L244.51875,151.77105455488783L244.77187500000002,151.78403612307895L245.025,151.79698592964766L245.278125,151.8099040845592L245.53125,151.82279069727358L245.78437499999998,151.8356458767484L246.0375,151.84846973144172L246.290625,151.86126236931509L246.54375000000002,151.87402389783605L246.796875,151.88675442398133L247.05,151.89945405423938L247.303125,151.9121228946133L247.55624999999998,151.92476105062354L247.80937500000002,151.9373686273106L248.0625,151.94994572923798L248.315625,151.96249246049453L248.56875,151.97500892469748L248.821875,151.9874952249949L249.075,151.69844679722027L249.328125,151.5105244764491L249.58125,151.52377456388922L249.834375,151.5369928462705L250.0875,151.55017943137932L250.340625,151.56333442651746L250.59375,151.57645793850472L250.84687499999998,151.58955007368164L251.10000000000002,151.60261093791223L251.353125,151.61564063658662L251.60625000000002,151.62863927462365L251.859375,151.64160695647365L252.11249999999998,151.65454378612083L252.365625,151.66744986708613L252.61874999999998,151.68032530242962L252.87187500000002,151.69317019475312L253.125,151.40781077290006L253.378125,151.42109684468483L253.63125,151.43435149125875L253.884375,151.44757481737355L254.1375,151.4607669273178L254.39062500000003,151.47392792491934L254.64375,151.48705791354806L254.896875,151.20340097396294L255.15,151.21696645403088L255.403125,151.23050006442685L255.65625,151.2440019105775L255.90937499999998,151.25747209744688L256.1625,151.27091072953903L256.415625,151.28431791090034L256.66875,151.29769374512233L256.921875,151.31103833534382L257.175,151.3243517842537L257.428125,151.33763419409317L257.68125,151.35088566665826L257.934375,151.36410630330224L258.1875,151.37729620493803L258.440625,151.39045547204063L258.69375,151.4035842046494L258.94687500000003,151.41668250237052L259.2,151.4297504643792L259.453125,151.4427881894222L259.70625,151.45579577582L259.95937499999997,151.46877332146914L260.21250000000003,151.48172092384453L260.465625,151.49463868000157L260.71875,151.50752668657873L260.971875,151.5203850397994L261.225,151.5332138354744L261.478125,151.5460131690041L261.73125,151.55878313538057L261.984375,151.5715238291898L262.2375,151.5842353446139L262.490625,151.5969177754332L262.74375,151.6095712150285L262.996875,151.62219575638298L263.25,151.63479149208456L263.503125,151.64735851432786L263.75625,151.65989691491632L264.00937500000003,151.67240678526423L264.2625,151.6848882163989L264.515625,151.6973412989626L264.76875,151.70976612321468L265.02187499999997,151.72216277903345L265.27500000000003,151.73453135591842L265.528125,151.74687194299204L265.78125,151.75918462900185L266.034375,151.48311572746263L266.2875,151.4958423428918L266.540625,151.50854026273007L266.79375,151.23339846062825" style="fill: none;" fill="none"></path></g><g><path stroke="rgb(238, 51, 119)" stroke-width="2px" d="M25.565624999999997,159.3L25.81875,159.3L26.071875000000002,159.3L26.325,159.3L26.578125,159.3L26.831249999999997,159.3L27.084375,159.3L27.3375,159.3L27.590625,159.3L27.84375,159.3L28.096875,159.3L28.35,159.3L28.603125,159.3L28.85625,159.3L29.109374999999996,159.3L29.3625,159.3L29.615625,159.3L29.86875,159.3L30.121875,159.3L30.375,159.3L30.628125,159.3L30.88125,159.3L31.134375,159.3L31.387500000000003,159.3L31.640625,159.3L31.89375,159.3L32.146875,159.3L32.4,159.3L32.653125,159.3L32.90625,159.3L33.159375000000004,159.3L33.4125,159.3L33.665625,159.3L33.918749999999996,159.3L34.171875,159.3L34.425000000000004,159.3L34.678125,159.3L34.93125,159.3L35.184375,159.3L35.43749999999999,159.3L35.690625,159.3L35.94375,159.3L36.196875,159.3L36.45,159.3L36.703125,159.3L36.95625,159.3L37.209375,159.3L37.4625,159.3L37.715625,159.3L37.96875,159.3L38.221875,159.3L38.475,159.3L38.728125,159.3L38.98125,159.3L39.234375,159.3L39.4875,159.3L39.740625,159.3L39.993750000000006,159.3L40.246874999999996,159.3L40.5,159.3L40.753125,159.3L41.00625,159.3L41.259375000000006,159.3L41.512499999999996,159.3L41.765625,159.3L42.01875,159.3L42.271875,159.3L42.525000000000006,159.3L42.778124999999996,159.3L43.03125,159.3L43.284375,159.3L43.5375,159.3L43.790625000000006,159.3L44.043749999999996,159.3L44.296875,159.3L44.550000000000004,159.3L44.803125,159.3L45.05625,159.3L45.309374999999996,159.3L45.5625,159.3L45.815625000000004,159.3L46.06875,159.3L46.321875,159.3L46.574999999999996,159.3L46.828125,159.3L47.081250000000004,159.3L47.334375,159.3L47.5875,159.3L47.840624999999996,159.3L48.09375,159.3L48.346875000000004,159.3L48.6,159.3L48.853125,159.3L49.10625,159.3L49.359375,159.3L49.612500000000004,159.3L49.865624999999994,159.3L50.11875,159.3L50.371875,159.3L50.625,159.3L50.878125000000004,159.3L51.131249999999994,159.3L51.384375,159.3L51.6375,159.3L51.890625,159.3L52.143750000000004,159.3L52.396874999999994,159.3L52.65,159.3L52.903125,159.3L53.15625,159.3L53.409375,159.3L53.662499999999994,159.3L53.915625,159.3L54.16875,159.3L54.421875,159.3L54.675,159.3L54.928125,159.3L55.18125,159.3L55.434375,159.3L55.6875,159.3L55.940625,159.3L56.19375,159.3L56.446875,159.3L56.7,159.3L56.953125,159.3L57.20625,159.3L57.459375,159.3L57.7125,159.3L57.965625,159.3L58.21874999999999,159.3L58.471875,159.3L58.725,159.3L58.978125,159.3L59.23125,159.3L59.484375,159.3L59.7375,159.3L59.990625,159.3L60.24375,159.3L60.496875,159.3L60.75,159.3L61.003125,159.3L61.25625,159.3L61.509375,159.3L61.7625,159.3L62.015625,159.3L62.26875,159.3L62.521875,159.3L62.775000000000006,159.3L63.028124999999996,159.3L63.28125,159.3L63.534375,159.3L63.7875,159.3L64.040625,159.3L64.29375,159.3L64.546875,159.3L64.8,159.3L65.05312500000001,159.3L65.30625,159.3L65.559375,159.3L65.8125,159.3L66.065625,159.3L66.31875000000001,159.3L66.571875,159.3L66.825,159.3L67.078125,159.3L67.33125,159.3L67.58437500000001,159.3L67.83749999999999,159.3L68.090625,159.3L68.34375,159.3L68.596875,159.3L68.85000000000001,159.3L69.10312499999999,159.3L69.35625,159.3L69.609375,159.3L69.8625,159.3L70.11562500000001,159.3L70.36875,159.3L70.621875,159.3L70.87499999999999,159.3L71.128125,159.3L71.38125,159.3L71.63437499999999,159.3L71.8875,159.3L72.140625,159.3L72.39375,159.3L72.64687500000001,159.3L72.9,159.3L73.153125,159.3L73.40625,159.3L73.659375,159.3L73.9125,159.3L74.16562499999999,159.3L74.41875,159.3L74.671875,159.3L74.925,159.3L75.17812500000001,159.3L75.43125,159.3L75.68437499999999,159.3L75.9375,159.3L76.190625,159.3L76.44375,159.3L76.696875,159.3L76.95,159.3L77.203125,159.3L77.45625,159.3L77.70937500000001,159.3L77.9625,159.3L78.21562499999999,159.3L78.46875,159.3L78.721875,159.3L78.975,159.3L79.228125,159.3L79.48125,159.3L79.734375,159.3L79.98750000000001,159.3L80.24062500000001,159.3L80.49374999999999,159.3L80.74687499999999,159.3L81,159.3L81.253125,159.3L81.50625,159.3L81.759375,159.3L82.0125,159.3L82.265625,159.3L82.51875000000001,159.3L82.77187500000001,159.3L83.02499999999999,159.3L83.27812499999999,159.3L83.53125,159.3L83.784375,159.3L84.0375,159.3L84.290625,159.3L84.54375,159.3L84.796875,159.3L85.05000000000001,159.3L85.303125,159.3L85.55624999999999,159.3L85.809375,159.3L86.0625,159.3L86.315625,159.3L86.56875,159.3L86.821875,159.3L87.075,159.3L87.328125,159.3L87.58125000000001,159.3L87.834375,159.3L88.08749999999999,159.3L88.340625,159.3L88.59375,159.3L88.846875,159.3L89.10000000000001,159.3L89.353125,159.3L89.60625,159.3L89.859375,159.3L90.1125,159.3L90.365625,159.3L90.61874999999999,159.3L90.871875,159.3L91.125,159.3L91.378125,159.3L91.63125000000001,159.3L91.884375,159.3L92.1375,159.3L92.39062500000001,159.3L92.64375,159.3L92.896875,159.3L93.14999999999999,159.3L93.403125,159.3L93.65625,159.3L93.909375,159.3L94.16250000000001,159.3L94.415625,159.3L94.66875,159.3L94.921875,159.3L95.175,159.3L95.428125,159.3L95.68124999999999,159.3L95.934375,159.3L96.1875,159.3L96.440625,159.3L96.69375000000001,159.3L96.946875,159.3L97.2,159.3L97.453125,159.3L97.70625,159.3L97.959375,159.3L98.2125,159.3L98.465625,159.3L98.71875,159.3L98.971875,159.3L99.22500000000001,159.3L99.478125,159.3L99.73124999999999,159.3L99.984375,159.3L100.2375,159.3L100.490625,159.3L100.74375,159.3L100.996875,159.3L101.25,159.3L101.50312500000001,159.3L101.75625000000001,159.3L102.009375,159.3L102.26249999999999,159.3L102.515625,159.3L102.76875,159.3L103.021875,159.3L103.275,159.3L103.528125,159.3L103.78125,159.3L104.03437500000001,159.3L104.28750000000001,159.3L104.54062499999999,159.3L104.79374999999999,159.3L105.046875,159.3L105.3,159.3L105.553125,159.3L105.80625,159.3L106.059375,159.3L106.3125,159.3L106.56562500000001,159.3L106.81875,159.3L107.07187499999999,159.3L107.32499999999999,159.3L107.578125,159.3L107.83125,159.3L108.084375,159.3L108.3375,159.3L108.590625,159.3L108.84375,159.3L109.09687500000001,159.3L109.35,159.3L109.60312499999999,159.3L109.85625,159.3L110.109375,159.3L110.3625,159.3L110.615625,159.3L110.86875,159.3L111.121875,159.3L111.375,159.3L111.628125,159.3L111.88125,159.3L112.13437499999999,159.3L112.3875,159.3L112.640625,159.3L112.89375,159.3L113.14687500000001,159.3L113.4,159.3L113.653125,159.3L113.90625,159.3L114.159375,159.3L114.4125,159.3L114.66562499999999,159.3L114.91875,159.3L115.171875,159.3L115.425,159.3L115.67812500000001,159.3L115.93125,159.3L116.184375,159.3L116.43749999999999,159.3L116.690625,159.3L116.94375,159.3L117.19687499999999,159.3L117.45,159.3L117.703125,159.3L117.95625,159.3L118.20937500000001,159.3L118.4625,159.3L118.715625,159.3L118.96875,159.3L119.221875,159.3L119.475,159.3L119.72812499999999,159.3L119.98125,159.3L120.234375,159.3L120.4875,159.3L120.74062500000001,159.3L120.99375,159.3L121.24687499999999,159.3L121.5,159.3L121.753125,159.3L122.00625,159.3L122.259375,159.3L122.5125,159.3L122.765625,159.3L123.01875,159.3L123.27187500000001,159.3L123.525,159.3L123.77812499999999,159.3L124.03125,159.3L124.284375,159.3L124.5375,159.3L124.790625,159.3L125.04375,159.3L125.296875,159.3L125.55000000000001,159.3L125.80312500000001,159.3L126.05624999999999,159.3L126.30937499999999,159.3L126.5625,159.3L126.815625,159.3L127.06875,159.3L127.321875,159.3L127.575,159.3L127.828125,159.3L128.08125,159.3L128.334375,159.3L128.5875,159.3L128.840625,159.3L129.09375,159.3L129.346875,159.3L129.6,159.3L129.853125,159.3L130.10625000000002,159.3L130.359375,159.3L130.6125,159.3L130.865625,159.3L131.11875,159.3L131.371875,159.3L131.625,159.3L131.878125,159.3L132.13125,159.3L132.384375,159.3L132.63750000000002,159.3L132.890625,159.3L133.14375,159.3L133.396875,159.3L133.65,159.3L133.903125,159.3L134.15625,159.3L134.409375,159.3L134.6625,159.3L134.915625,159.3L135.16875000000002,159.3L135.421875,159.3L135.67499999999998,159.3L135.928125,159.3L136.18125,159.3L136.434375,159.3L136.6875,159.3L136.940625,159.3L137.19375,159.3L137.446875,159.3L137.70000000000002,159.3L137.953125,159.3L138.20624999999998,159.3L138.459375,159.3L138.7125,159.3L138.965625,159.3L139.21875,159.3L139.47187499999998,159.3L139.725,159.3L139.97812499999998,159.3L140.23125000000002,159.3L140.484375,159.3L140.7375,159.3L140.990625,159.3L141.24375,159.3L141.496875,159.3L141.74999999999997,159.3L142.003125,159.3L142.25625,159.3L142.509375,159.3L142.7625,159.3L143.015625,159.3L143.26874999999998,159.3L143.52187500000002,159.3L143.775,159.3L144.028125,159.3L144.28125,159.3L144.53437499999998,159.3L144.7875,159.3L145.04062499999998,159.3L145.29375000000002,159.3L145.546875,159.3L145.8,159.3L146.053125,159.3L146.30625,159.3L146.559375,159.3L146.8125,159.3L147.065625,159.3L147.31875,159.3L147.571875,159.3L147.825,159.3L148.078125,159.3L148.33124999999998,159.3L148.58437500000002,159.3L148.8375,159.3L149.090625,159.3L149.34375,159.3L149.59687499999998,159.3L149.85,159.3L150.103125,159.3L150.35625000000002,159.3L150.609375,159.3L150.8625,159.3L151.115625,159.3L151.36874999999998,159.3L151.621875,159.3L151.875,159.3L152.128125,159.3L152.38125,159.3L152.634375,159.3L152.8875,159.3L153.140625,159.3L153.39375,159.3L153.646875,159.3L153.9,159.3L154.153125,159.3L154.40625,159.3L154.65937499999998,159.3L154.9125,159.3L155.165625,159.3L155.41875000000002,159.3L155.671875,159.3L155.925,159.3L156.178125,159.3L156.43124999999998,159.3L156.68437500000002,159.3L156.9375,159.3L157.190625,159.3L157.44375,159.3L157.696875,159.3L157.95,159.3L158.203125,159.3L158.45625,159.3L158.709375,159.3L158.9625,159.3L159.215625,159.3L159.46875,159.3L159.72187499999998,159.3L159.97500000000002,159.3L160.228125,159.3L160.48125000000002,159.3L160.734375,159.3L160.98749999999998,159.3L161.240625,159.3L161.49374999999998,159.3L161.74687500000002,159.3L162,159.3L162.253125,159.3L162.50625,159.3L162.759375,159.3L163.0125,159.3L163.26562499999997,159.3L163.51875,159.3L163.771875,159.3L164.025,159.3L164.278125,159.3L164.53125,159.3L164.78437499999998,159.3L165.03750000000002,159.3L165.290625,159.3L165.54375000000002,159.3L165.796875,159.3L166.04999999999998,159.3L166.303125,159.3L166.55624999999998,159.3L166.80937500000002,159.3L167.0625,159.3L167.315625,159.3L167.56875,159.3L167.821875,159.3L168.075,159.3L168.328125,159.3L168.58125,159.3L168.834375,159.3L169.0875,159.3L169.340625,159.3L169.59375,159.3L169.84687499999998,159.3L170.10000000000002,159.3L170.353125,159.3L170.60625,159.3L170.859375,159.3L171.11249999999998,159.3L171.365625,159.3L171.61875,159.3L171.87187500000002,159.3L172.125,159.3L172.378125,159.3L172.63125,159.3L172.88437499999998,159.3L173.1375,159.3L173.390625,159.3L173.64375,159.3L173.896875,159.3L174.15,159.3L174.403125,159.3L174.65625,159.3L174.909375,159.3L175.16250000000002,159.3L175.415625,159.3L175.66875,159.3L175.921875,159.3L176.17499999999998,159.3L176.428125,159.3L176.68125,159.3L176.93437500000002,159.3L177.1875,159.3L177.440625,159.3L177.69375,159.3L177.94687499999998,159.3L178.20000000000002,159.3L178.453125,159.3L178.70625,159.3L178.959375,159.3L179.2125,159.3L179.465625,159.3L179.71875,159.3L179.971875,159.3L180.225,159.3L180.478125,159.3L180.73125,159.3L180.984375,159.3L181.23749999999998,159.3L181.49062500000002,159.3L181.74375,159.3L181.99687500000002,159.3L182.25,159.3L182.50312499999998,159.3L182.75625,159.3L183.00937499999998,159.3L183.26250000000002,159.3L183.515625,159.3L183.76875,159.3L184.021875,159.3L184.275,159.3L184.528125,159.3L184.78125000000003,159.3L185.034375,159.3L185.2875,159.3L185.540625,159.3L185.79375,159.3L186.046875,159.3L186.29999999999998,159.3L186.55312500000002,159.3L186.80625,159.3L187.05937500000002,159.3L187.3125,159.3L187.56562499999998,159.3L187.81875,159.3L188.07187499999998,159.3L188.32500000000002,159.3L188.578125,159.3L188.83125,159.3L189.084375,159.3L189.3375,159.3L189.590625,159.3L189.84375,159.3L190.096875,159.3L190.35,159.3L190.603125,159.3L190.85625,159.3L191.109375,159.3L191.36249999999998,159.3L191.61562500000002,159.3L191.86875,159.3L192.121875,159.3L192.375,159.3L192.62812499999998,159.3L192.88125,159.3L193.134375,159.3L193.38750000000002,159.3L193.640625,159.3L193.89375,159.3L194.146875,159.3L194.4,159.3L194.653125,159.3L194.90625,159.3L195.159375,159.3L195.4125,159.3L195.665625,159.3L195.91875,159.3L196.171875,159.3L196.425,159.3L196.67812500000002,159.3L196.93125,159.3L197.184375,159.3L197.4375,159.3L197.69062499999998,159.3L197.94375,159.3L198.196875,159.3L198.45000000000002,159.3L198.703125,159.3L198.95625,159.3L199.209375,159.3L199.46249999999998,159.3L199.71562500000002,159.3L199.96875,159.3L200.221875,159.3L200.475,159.3L200.728125,159.3L200.98125,159.3L201.234375,159.3L201.4875,159.3L201.740625,159.3L201.99375,159.3L202.246875,159.3L202.5,159.3L202.75312499999998,159.3L203.00625000000002,159.3L203.259375,159.3L203.51250000000002,159.3L203.765625,159.3L204.01875,159.3L204.271875,159.3L204.52499999999998,159.3L204.77812500000002,159.3L205.03125,159.3L205.284375,159.3L205.5375,159.3L205.790625,159.3L206.04375,159.3L206.29687500000003,159.3L206.55,159.3L206.803125,159.3L207.05625,159.3L207.309375,159.3L207.5625,159.3L207.81562499999998,159.3L208.06875000000002,159.3L208.321875,159.3L208.57500000000002,159.3L208.828125,159.3L209.08124999999998,159.3L209.334375,159.3L209.58749999999998,159.3L209.84062500000002,159.3L210.09375,159.3L210.346875,159.3L210.6,159.3L210.853125,159.3L211.10625,159.3L211.35937499999997,159.3L211.6125,159.3L211.865625,159.3L212.11875,159.3L212.371875,159.3L212.625,159.3L212.87812499999998,159.3L213.13125000000002,159.3L213.384375,159.3L213.6375,159.3L213.890625,159.3L214.14374999999998,159.3L214.396875,159.3L214.64999999999998,159.3L214.90312500000002,159.3L215.15625,159.3L215.409375,159.3L215.6625,159.3L215.915625,159.3L216.16875,159.3L216.421875,159.3L216.675,159.3L216.928125,159.3L217.18125,159.3L217.434375,159.3L217.6875,159.3L217.94062499999998,159.3L218.19375000000002,159.3L218.446875,159.3L218.7,159.3L218.953125,159.3L219.20624999999998,159.3L219.459375,159.3L219.7125,159.3L219.96562500000002,159.3L220.21875,159.3L220.471875,159.3L220.725,159.3L220.97812499999998,159.3L221.23125,159.3L221.484375,159.3L221.7375,159.3L221.990625,159.3L222.24375,159.3L222.496875,159.3L222.75,159.3L223.003125,159.3L223.25625,159.3L223.509375,159.3L223.7625,159.3L224.015625,159.3L224.26874999999998,159.3L224.521875,159.3L224.775,159.3L225.02812500000002,159.3L225.28125,159.3L225.534375,159.3L225.7875,159.3L226.04062499999998,159.3L226.29375000000002,159.3L226.546875,159.3L226.8,159.3L227.053125,159.3L227.30625,159.3L227.559375,159.3L227.8125,159.3L228.065625,159.3L228.31875,159.3L228.571875,159.3L228.825,159.3L229.078125,159.3L229.33124999999998,159.3L229.58437500000002,159.3L229.8375,159.3L230.09062500000002,159.3L230.34375,159.3L230.59687499999998,159.3L230.85,159.3L231.10312499999998,159.3L231.35625000000002,159.3L231.609375,159.3L231.8625,159.3L232.115625,159.3L232.36875,159.3L232.621875,159.3L232.87499999999997,159.3L233.128125,159.3L233.38125,159.3L233.634375,159.3L233.8875,159.3L234.140625,159.3L234.39374999999998,159.3L234.64687500000002,159.3L234.9,159.3L235.15312500000002,159.3L235.40625,159.3L235.65937499999998,159.3L235.9125,159.3L236.16562499999998,159.3L236.41875000000002,159.3L236.671875,159.3L236.925,159.3L237.178125,159.3L237.43125,159.3L237.684375,159.3L237.9375,159.3L238.190625,159.3L238.44375,159.3L238.696875,159.3L238.95,159.3L239.203125,159.3L239.45624999999998,159.3L239.70937500000002,159.3L239.9625,159.3L240.215625,159.3L240.46875,159.3L240.72187499999998,159.3L240.975,159.3L241.228125,159.3L241.48125000000002,159.3L241.734375,159.3L241.9875,159.3L242.240625,159.3L242.49374999999998,159.3L242.746875,159.3L243,159.3L243.253125,159.3L243.50625,159.3L243.759375,159.3L244.0125,159.3L244.265625,159.3L244.51875,159.3L244.77187500000002,159.3L245.025,159.3L245.278125,159.3L245.53125,159.3L245.78437499999998,159.3L246.0375,159.3L246.290625,159.3L246.54375000000002,159.3L246.796875,159.3L247.05,159.3L247.303125,159.3L247.55624999999998,159.3L247.80937500000002,159.3L248.0625,159.3L248.315625,159.3L248.56875,159.3L248.821875,159.3L249.075,159.3L249.328125,159.3L249.58125,159.3L249.834375,159.3L250.0875,159.3L250.340625,159.3L250.59375,159.3L250.84687499999998,159.3L251.10000000000002,159.3L251.353125,159.3L251.60625000000002,159.3L251.859375,159.3L252.11249999999998,159.3L252.365625,159.3L252.61874999999998,159.3L252.87187500000002,159.3L253.125,159.3L253.378125,159.3L253.63125,159.3L253.884375,159.3L254.1375,159.3L254.39062500000003,159.3L254.64375,159.3L254.896875,159.3L255.15,159.3L255.403125,159.3L255.65625,159.3L255.90937499999998,159.3L256.1625,159.3L256.415625,159.3L256.66875,159.3L256.921875,159.3L257.175,159.3L257.428125,159.3L257.68125,159.3L257.934375,159.3L258.1875,159.3L258.440625,159.3L258.69375,159.3L258.94687500000003,159.3L259.2,159.3L259.453125,159.3L259.70625,159.3L259.95937499999997,159.3L260.21250000000003,159.3L260.465625,159.3L260.71875,159.3L260.971875,159.3L261.225,159.3L261.478125,159.3L261.73125,159.3L261.984375,159.3L262.2375,159.3L262.490625,159.3L262.74375,159.3L262.996875,159.3L263.25,159.3L263.503125,159.3L263.75625,159.3L264.00937500000003,159.3L264.2625,159.3L264.515625,159.3L264.76875,159.3L265.02187499999997,159.3L265.27500000000003,159.3L265.528125,159.3L265.78125,159.3L266.034375,159.3L266.2875,159.3L266.540625,159.3L266.79375,159.3L267.046875,159.3L267.3,159.3L267.553125,159.3L267.80625,159.3L268.059375,159.3L268.3125,159.3L268.565625,159.3L268.81875,159.3" style="fill: none;" fill="none"></path></g></g></g></g><g opacity="0.2"><g><g><g><path stroke="rgb(255, 112, 67)" stroke-width="2px" d="M25.565624999999997,159.3L25.81875,159.3L26.071875000000002,159.3L26.325,159.3L26.578125,159.3L26.831249999999997,159.3L27.084375,159.3L27.3375,159.3L27.590625,159.3L27.84375,159.3L28.096875,159.3L28.35,159.3L28.603125,159.3L28.85625,159.3L29.109374999999996,159.3L29.3625,159.3L29.615625,159.3L29.86875,159.3L30.121875,159.3L30.375,159.3L30.628125,159.3L30.88125,159.3L31.134375,159.3L31.387500000000003,159.3L31.640625,159.3L31.89375,159.3L32.146875,159.3L32.4,159.3L32.653125,159.3L32.90625,159.3L33.159375000000004,159.3L33.4125,159.3L33.665625,159.3L33.918749999999996,159.3L34.171875,159.3L34.425000000000004,159.3L34.678125,159.3L34.93125,159.3L35.184375,159.3L35.43749999999999,159.3L35.690625,159.3L35.94375,159.3L36.196875,159.3L36.45,159.3L36.703125,159.3L36.95625,159.3L37.209375,159.3L37.4625,159.3L37.715625,159.3L37.96875,159.3L38.221875,159.3L38.475,159.3L38.728125,159.3L38.98125,159.3L39.234375,159.3L39.4875,159.3L39.740625,159.3L39.993750000000006,159.3L40.246874999999996,159.3L40.5,159.3L40.753125,159.3L41.00625,159.3L41.259375000000006,159.3L41.512499999999996,159.3L41.765625,159.3L42.01875,159.3L42.271875,159.3L42.525000000000006,159.3L42.778124999999996,159.3L43.03125,159.3L43.284375,159.3L43.5375,159.3L43.790625000000006,159.3L44.043749999999996,159.3L44.296875,159.3L44.550000000000004,159.3L44.803125,159.3L45.05625,159.3L45.309374999999996,159.3L45.5625,159.3L45.815625000000004,159.3L46.06875,159.3L46.321875,159.3L46.574999999999996,159.3L46.828125,159.3L47.081250000000004,159.3L47.334375,159.3L47.5875,159.3L47.840624999999996,159.3L48.09375,159.3L48.346875000000004,159.3L48.6,159.3L48.853125,159.3L49.10625,159.3L49.359375,159.3L49.612500000000004,159.3L49.865624999999994,159.3L50.11875,159.3L50.371875,159.3L50.625,159.3L50.878125000000004,159.3L51.131249999999994,159.3L51.384375,159.3L51.6375,159.3L51.890625,159.3L52.143750000000004,159.3L52.396874999999994,159.3L52.65,159.3L52.903125,159.3L53.15625,159.3L53.409375,159.3L53.662499999999994,159.3L53.915625,159.3L54.16875,159.3L54.421875,159.3L54.675,159.3L54.928125,159.3L55.18125,159.3L55.434375,159.3L55.6875,159.3L55.940625,159.3L56.19375,159.3L56.446875,159.3L56.7,159.3L56.953125,159.3L57.20625,159.3L57.459375,159.3L57.7125,159.3L57.965625,159.3L58.21874999999999,159.3L58.471875,159.3L58.725,159.3L58.978125,159.3L59.23125,159.3L59.484375,159.3L59.7375,159.3L59.990625,159.3L60.24375,159.3L60.496875,159.3L60.75,159.3L61.003125,159.3L61.25625,159.3L61.509375,159.3L61.7625,159.3L62.015625,159.3L62.26875,159.3L62.521875,159.3L62.775000000000006,159.3L63.028124999999996,159.3L63.28125,159.3L63.534375,159.3L63.7875,159.3L64.040625,159.3L64.29375,159.3L64.546875,159.3L64.8,159.3L65.05312500000001,159.3L65.30625,159.3L65.559375,159.3L65.8125,159.3L66.065625,159.3L66.31875000000001,159.3L66.571875,159.3L66.825,159.3L67.078125,159.3L67.33125,159.3L67.58437500000001,159.3L67.83749999999999,159.3L68.090625,159.3L68.34375,159.3L68.596875,159.3L68.85000000000001,159.3L69.10312499999999,159.3L69.35625,159.3L69.609375,159.3L69.8625,159.3L70.11562500000001,159.3L70.36875,159.3L70.621875,159.3L70.87499999999999,159.3L71.128125,159.3L71.38125,159.3L71.63437499999999,159.3L71.8875,159.3L72.140625,159.3L72.39375,159.3L72.64687500000001,159.3L72.9,159.3L73.153125,159.3L73.40625,159.3L73.659375,159.3L73.9125,159.3L74.16562499999999,159.3L74.41875,159.3L74.671875,159.3L74.925,159.3L75.17812500000001,159.3L75.43125,159.3L75.68437499999999,159.3L75.9375,159.3L76.190625,159.3L76.44375,159.3L76.696875,159.3L76.95,159.3L77.203125,159.3L77.45625,159.3L77.70937500000001,159.3L77.9625,159.3L78.21562499999999,159.3L78.46875,159.3L78.721875,159.3L78.975,159.3L79.228125,159.3L79.48125,159.3L79.734375,159.3L79.98750000000001,-17.700000000000017L80.24062500000001,159.3L80.49374999999999,159.3L80.74687499999999,159.3L81,159.3L81.253125,159.3L81.50625,159.3L81.759375,159.3L82.0125,159.3L82.265625,159.3L82.51875000000001,159.3L82.77187500000001,159.3L83.02499999999999,159.3L83.27812499999999,159.3L83.53125,159.3L83.784375,159.3L84.0375,159.3L84.290625,159.3L84.54375,159.3L84.796875,159.3L85.05000000000001,159.3L85.303125,159.3L85.55624999999999,159.3L85.809375,159.3L86.0625,159.3L86.315625,159.3L86.56875,159.3L86.821875,159.3L87.075,159.3L87.328125,159.3L87.58125000000001,159.3L87.834375,159.3L88.08749999999999,159.3L88.340625,159.3L88.59375,159.3L88.846875,159.3L89.10000000000001,159.3L89.353125,159.3L89.60625,159.3L89.859375,159.3L90.1125,159.3L90.365625,159.3L90.61874999999999,159.3L90.871875,159.3L91.125,159.3L91.378125,159.3L91.63125000000001,41.29999648332596L91.884375,159.3L92.1375,159.3L92.39062500000001,159.3L92.64375,159.3L92.896875,-17.700000000000017L93.14999999999999,159.3L93.403125,159.3L93.65625,159.3L93.909375,159.3L94.16250000000001,159.3L94.415625,159.3L94.66875,159.3L94.921875,159.3L95.175,159.3L95.428125,159.3L95.68124999999999,159.3L95.934375,159.3L96.1875,159.3L96.440625,159.3L96.69375000000001,159.3L96.946875,159.3L97.2,159.3L97.453125,159.3L97.70625,159.3L97.959375,159.3L98.2125,159.3L98.465625,-17.700000000000017L98.71875,159.3L98.971875,159.3L99.22500000000001,159.3L99.478125,-17.700000000000017L99.73124999999999,159.3L99.984375,159.3L100.2375,159.3L100.490625,159.3L100.74375,159.3L100.996875,159.3L101.25,159.3L101.50312500000001,159.3L101.75625000000001,159.3L102.009375,159.3L102.26249999999999,159.3L102.515625,159.3L102.76875,159.3L103.021875,159.3L103.275,159.3L103.528125,159.3L103.78125,159.3L104.03437500000001,159.3L104.28750000000001,159.3L104.54062499999999,159.3L104.79374999999999,159.3L105.046875,159.3L105.3,159.3L105.553125,159.3L105.80625,159.3L106.059375,159.3L106.3125,159.3L106.56562500000001,159.3L106.81875,159.3L107.07187499999999,159.3L107.32499999999999,159.3L107.578125,159.3L107.83125,159.3L108.084375,159.3L108.3375,159.3L108.590625,159.3L108.84375,159.3L109.09687500000001,159.3L109.35,159.3L109.60312499999999,159.3L109.85625,159.3L110.109375,159.3L110.3625,159.3L110.615625,159.3L110.86875,159.3L111.121875,159.3L111.375,159.3L111.628125,159.3L111.88125,159.3L112.13437499999999,159.3L112.3875,159.3L112.640625,159.3L112.89375,159.3L113.14687500000001,159.3L113.4,159.3L113.653125,159.3L113.90625,159.3L114.159375,159.3L114.4125,159.3L114.66562499999999,159.3L114.91875,159.3L115.171875,159.3L115.425,159.3L115.67812500000001,159.3L115.93125,159.3L116.184375,159.3L116.43749999999999,159.3L116.690625,159.3L116.94375,159.3L117.19687499999999,159.3L117.45,159.3L117.703125,159.3L117.95625,159.3L118.20937500000001,159.3L118.4625,159.3L118.715625,159.3L118.96875,159.3L119.221875,159.3L119.475,159.3L119.72812499999999,159.3L119.98125,159.3L120.234375,159.3L120.4875,159.3L120.74062500000001,159.3L120.99375,159.3L121.24687499999999,159.3L121.5,-17.700000000000017L121.753125,159.3L122.00625,-17.700000000000017L122.259375,-17.700000000000017L122.5125,159.3L122.765625,-17.700000000000017L123.01875,159.3L123.27187500000001,159.3L123.525,159.3L123.77812499999999,159.3L124.03125,159.3L124.284375,159.3L124.5375,-17.700000000000017L124.790625,159.3L125.04375,159.3L125.296875,159.3L125.55000000000001,159.3L125.80312500000001,159.3L126.05624999999999,159.3L126.30937499999999,159.3L126.5625,159.3L126.815625,159.3L127.06875,159.3L127.321875,159.3L127.575,159.3L127.828125,159.3L128.08125,159.3L128.334375,159.3L128.5875,159.3L128.840625,159.3L129.09375,159.3L129.346875,159.3L129.6,159.3L129.853125,159.3L130.10625000000002,159.3L130.359375,159.3L130.6125,159.3L130.865625,159.3L131.11875,159.3L131.371875,159.3L131.625,159.3L131.878125,159.3L132.13125,159.3L132.384375,159.3L132.63750000000002,159.3L132.890625,159.3L133.14375,159.3L133.396875,159.3L133.65,159.3L133.903125,159.3L134.15625,159.3L134.409375,159.3L134.6625,159.3L134.915625,-17.700000000000017L135.16875000000002,159.3L135.421875,159.3L135.67499999999998,-17.700000000000017L135.928125,159.3L136.18125,159.3L136.434375,159.3L136.6875,159.3L136.940625,159.3L137.19375,159.3L137.446875,159.3L137.70000000000002,159.3L137.953125,159.3L138.20624999999998,159.3L138.459375,159.3L138.7125,159.3L138.965625,159.3L139.21875,159.3L139.47187499999998,159.3L139.725,159.3L139.97812499999998,159.3L140.23125000000002,159.3L140.484375,159.3L140.7375,159.3L140.990625,159.3L141.24375,-17.700000000000017L141.496875,159.3L141.74999999999997,-17.700000000000017L142.003125,41.29999648332596L142.25625,41.29999648332596L142.509375,-17.700000000000017L142.7625,-17.700000000000017L143.015625,159.3L143.26874999999998,159.3L143.52187500000002,159.3L143.775,159.3L144.028125,159.3L144.28125,-17.700000000000017L144.53437499999998,159.3L144.7875,159.3L145.04062499999998,159.3L145.29375000000002,159.3L145.546875,159.3L145.8,159.3L146.053125,159.3L146.30625,159.3L146.559375,159.3L146.8125,159.3L147.065625,159.3L147.31875,159.3L147.571875,159.3L147.825,159.3L148.078125,159.3L148.33124999999998,159.3L148.58437500000002,159.3L148.8375,159.3L149.090625,159.3L149.34375,159.3L149.59687499999998,159.3L149.85,159.3L150.103125,159.3L150.35625000000002,159.3L150.609375,159.3L150.8625,159.3L151.115625,159.3L151.36874999999998,159.3L151.621875,159.3L151.875,159.3L152.128125,159.3L152.38125,159.3L152.634375,159.3L152.8875,159.3L153.140625,159.3L153.39375,159.3L153.646875,159.3L153.9,159.3L154.153125,159.3L154.40625,159.3L154.65937499999998,41.29999648332596L154.9125,159.3L155.165625,159.3L155.41875000000002,159.3L155.671875,159.3L155.925,-17.700000000000017L156.178125,159.3L156.43124999999998,159.3L156.68437500000002,159.3L156.9375,159.3L157.190625,159.3L157.44375,-17.700000000000017L157.696875,159.3L157.95,41.29999648332596L158.203125,159.3L158.45625,159.3L158.709375,159.3L158.9625,159.3L159.215625,159.3L159.46875,159.3L159.72187499999998,159.3L159.97500000000002,159.3L160.228125,159.3L160.48125000000002,159.3L160.734375,-17.700000000000017L160.98749999999998,159.3L161.240625,159.3L161.49374999999998,159.3L161.74687500000002,-17.700000000000017L162,159.3L162.253125,159.3L162.50625,159.3L162.759375,159.3L163.0125,159.3L163.26562499999997,159.3L163.51875,159.3L163.771875,159.3L164.025,159.3L164.278125,159.3L164.53125,159.3L164.78437499999998,159.3L165.03750000000002,159.3L165.290625,159.3L165.54375000000002,159.3L165.796875,159.3L166.04999999999998,159.3L166.303125,159.3L166.55624999999998,159.3L166.80937500000002,159.3L167.0625,159.3L167.315625,159.3L167.56875,159.3L167.821875,159.3L168.075,159.3L168.328125,159.3L168.58125,159.3L168.834375,159.3L169.0875,159.3L169.340625,159.3L169.59375,159.3L169.84687499999998,159.3L170.10000000000002,159.3L170.353125,159.3L170.60625,159.3L170.859375,159.3L171.11249999999998,159.3L171.365625,159.3L171.61875,159.3L171.87187500000002,159.3L172.125,159.3L172.378125,159.3L172.63125,159.3L172.88437499999998,159.3L173.1375,159.3L173.390625,159.3L173.64375,159.3L173.896875,159.3L174.15,159.3L174.403125,159.3L174.65625,159.3L174.909375,159.3L175.16250000000002,159.3L175.415625,159.3L175.66875,159.3L175.921875,159.3L176.17499999999998,159.3L176.428125,159.3L176.68125,159.3L176.93437500000002,159.3L177.1875,159.3L177.440625,159.3L177.69375,159.3L177.94687499999998,159.3L178.20000000000002,159.3L178.453125,159.3L178.70625,159.3L178.959375,159.3L179.2125,-17.700000000000017L179.465625,159.3L179.71875,-17.700000000000017L179.971875,159.3L180.225,159.3L180.478125,159.3L180.73125,159.3L180.984375,159.3L181.23749999999998,159.3L181.49062500000002,159.3L181.74375,159.3L181.99687500000002,159.3L182.25,159.3L182.50312499999998,159.3L182.75625,159.3L183.00937499999998,159.3L183.26250000000002,159.3L183.515625,159.3L183.76875,159.3L184.021875,159.3L184.275,159.3L184.528125,159.3L184.78125000000003,159.3L185.034375,159.3L185.2875,159.3L185.540625,159.3L185.79375,159.3L186.046875,159.3L186.29999999999998,159.3L186.55312500000002,159.3L186.80625,159.3L187.05937500000002,159.3L187.3125,159.3L187.56562499999998,159.3L187.81875,159.3L188.07187499999998,41.29999648332596L188.32500000000002,159.3L188.578125,159.3L188.83125,159.3L189.084375,159.3L189.3375,159.3L189.590625,159.3L189.84375,159.3L190.096875,159.3L190.35,159.3L190.603125,159.3L190.85625,159.3L191.109375,159.3L191.36249999999998,159.3L191.61562500000002,159.3L191.86875,159.3L192.121875,159.3L192.375,159.3L192.62812499999998,159.3L192.88125,159.3L193.134375,159.3L193.38750000000002,159.3L193.640625,159.3L193.89375,159.3L194.146875,159.3L194.4,159.3L194.653125,159.3L194.90625,159.3L195.159375,159.3L195.4125,159.3L195.665625,159.3L195.91875,159.3L196.171875,159.3L196.425,159.3L196.67812500000002,159.3L196.93125,159.3L197.184375,159.3L197.4375,159.3L197.69062499999998,159.3L197.94375,159.3L198.196875,159.3L198.45000000000002,159.3L198.703125,159.3L198.95625,159.3L199.209375,159.3L199.46249999999998,159.3L199.71562500000002,159.3L199.96875,159.3L200.221875,159.3L200.475,159.3L200.728125,159.3L200.98125,159.3L201.234375,159.3L201.4875,159.3L201.740625,159.3L201.99375,159.3L202.246875,159.3L202.5,159.3L202.75312499999998,159.3L203.00625000000002,41.29999648332596L203.259375,159.3L203.51250000000002,159.3L203.765625,159.3L204.01875,159.3L204.271875,159.3L204.52499999999998,159.3L204.77812500000002,159.3L205.03125,159.3L205.284375,159.3L205.5375,159.3L205.790625,159.3L206.04375,159.3L206.29687500000003,159.3L206.55,159.3L206.803125,159.3L207.05625,159.3L207.309375,-17.700000000000017L207.5625,159.3L207.81562499999998,159.3L208.06875000000002,159.3L208.321875,-17.700000000000017L208.57500000000002,159.3L208.828125,159.3L209.08124999999998,159.3L209.334375,159.3L209.58749999999998,159.3L209.84062500000002,159.3L210.09375,159.3L210.346875,159.3L210.6,159.3L210.853125,159.3L211.10625,159.3L211.35937499999997,159.3L211.6125,159.3L211.865625,159.3L212.11875,159.3L212.371875,159.3L212.625,159.3L212.87812499999998,159.3L213.13125000000002,159.3L213.384375,159.3L213.6375,159.3L213.890625,159.3L214.14374999999998,159.3L214.396875,159.3L214.64999999999998,159.3L214.90312500000002,159.3L215.15625,159.3L215.409375,159.3L215.6625,159.3L215.915625,159.3L216.16875,159.3L216.421875,159.3L216.675,159.3L216.928125,159.3L217.18125,159.3L217.434375,159.3L217.6875,159.3L217.94062499999998,159.3L218.19375000000002,159.3L218.446875,159.3L218.7,159.3L218.953125,159.3L219.20624999999998,159.3L219.459375,159.3L219.7125,159.3L219.96562500000002,159.3L220.21875,159.3L220.471875,159.3L220.725,159.3L220.97812499999998,159.3L221.23125,-17.700000000000017L221.484375,159.3L221.7375,159.3L221.990625,159.3L222.24375,159.3L222.496875,159.3L222.75,159.3L223.003125,159.3L223.25625,159.3L223.509375,159.3L223.7625,159.3L224.015625,159.3L224.26874999999998,159.3L224.521875,159.3L224.775,159.3L225.02812500000002,159.3L225.28125,159.3L225.534375,159.3L225.7875,159.3L226.04062499999998,-17.700000000000017L226.546875,-17.700000000000017L226.8,159.3L227.053125,159.3L227.30625,159.3L227.559375,159.3L227.8125,159.3L228.065625,159.3L228.31875,159.3L228.571875,159.3L228.825,159.3L229.078125,159.3L229.33124999999998,159.3L229.58437500000002,159.3L229.8375,159.3L230.09062500000002,159.3L230.34375,159.3L230.59687499999998,159.3L230.85,159.3L231.10312499999998,159.3L231.35625000000002,159.3L231.609375,159.3L231.8625,159.3L232.115625,159.3L232.36875,159.3L232.621875,41.29999648332596L232.87499999999997,159.3L233.128125,159.3L233.38125,159.3L233.634375,159.3L233.8875,159.3L234.140625,159.3L234.39374999999998,159.3L234.64687500000002,159.3L234.9,159.3L235.15312500000002,159.3L235.40625,159.3L235.65937499999998,-17.700000000000017L235.9125,159.3L236.16562499999998,159.3L236.41875000000002,159.3L236.671875,159.3L236.925,159.3L237.178125,159.3L237.43125,159.3L237.684375,159.3L237.9375,159.3L238.190625,159.3L238.44375,159.3L238.696875,159.3L238.95,159.3L239.203125,159.3L239.45624999999998,159.3L239.70937500000002,159.3L239.9625,159.3L240.215625,159.3L240.46875,159.3L240.72187499999998,159.3L240.975,159.3L241.228125,159.3L241.48125000000002,159.3L241.734375,159.3L241.9875,159.3L242.240625,159.3L242.49374999999998,159.3L242.746875,159.3L243,159.3L243.253125,159.3L243.50625,159.3L243.759375,159.3L244.0125,159.3L244.265625,159.3L244.51875,159.3L244.77187500000002,159.3L245.025,159.3L245.278125,159.3L245.53125,159.3L245.78437499999998,159.3L246.0375,159.3L246.290625,159.3L246.54375000000002,159.3L246.796875,159.3L247.05,159.3L247.303125,159.3L247.55624999999998,159.3L247.80937500000002,159.3L248.0625,159.3L248.315625,159.3L248.56875,159.3L248.821875,159.3L249.075,-17.700000000000017L249.328125,41.29999648332596L249.58125,159.3L249.834375,159.3L250.0875,159.3L250.340625,159.3L250.59375,159.3L250.84687499999998,159.3L251.10000000000002,159.3L251.353125,159.3L251.60625000000002,159.3L251.859375,159.3L252.11249999999998,159.3L252.365625,159.3L252.61874999999998,159.3L252.87187500000002,159.3L253.125,-17.700000000000017L253.378125,159.3L253.63125,159.3L253.884375,159.3L254.1375,159.3L254.39062500000003,159.3L254.64375,159.3L254.896875,-17.700000000000017L255.15,159.3L255.403125,159.3L255.65625,159.3L255.90937499999998,159.3L256.1625,159.3L256.415625,159.3L256.66875,159.3L256.921875,159.3L257.175,159.3L257.428125,159.3L257.68125,159.3L257.934375,159.3L258.1875,159.3L258.440625,159.3L258.69375,159.3L258.94687500000003,159.3L259.2,159.3L259.453125,159.3L259.70625,159.3L259.95937499999997,159.3L260.21250000000003,159.3L260.465625,159.3L260.71875,159.3L260.971875,159.3L261.225,159.3L261.478125,159.3L261.73125,159.3L261.984375,159.3L262.2375,159.3L262.490625,159.3L262.74375,159.3L262.996875,159.3L263.25,159.3L263.503125,159.3L263.75625,159.3L264.00937500000003,159.3L264.2625,159.3L264.515625,159.3L264.76875,159.3L265.02187499999997,159.3L265.27500000000003,159.3L265.528125,159.3L265.78125,159.3L266.034375,-17.700000000000017L266.2875,159.3L266.540625,159.3L266.79375,-17.700000000000017" style="fill: none;" fill="none"></path></g><g><path stroke="rgb(238, 51, 119)" stroke-width="2px" d="M25.565624999999997,159.3L25.81875,159.3L26.071875000000002,159.3L26.325,159.3L26.578125,159.3L26.831249999999997,159.3L27.084375,159.3L27.3375,159.3L27.590625,159.3L27.84375,159.3L28.096875,159.3L28.35,159.3L28.603125,159.3L28.85625,159.3L29.109374999999996,159.3L29.3625,159.3L29.615625,159.3L29.86875,159.3L30.121875,159.3L30.375,159.3L30.628125,159.3L30.88125,159.3L31.134375,159.3L31.387500000000003,159.3L31.640625,159.3L31.89375,159.3L32.146875,159.3L32.4,159.3L32.653125,159.3L32.90625,159.3L33.159375000000004,159.3L33.4125,159.3L33.665625,159.3L33.918749999999996,159.3L34.171875,159.3L34.425000000000004,159.3L34.678125,159.3L34.93125,159.3L35.184375,159.3L35.43749999999999,159.3L35.690625,159.3L35.94375,159.3L36.196875,159.3L36.45,159.3L36.703125,159.3L36.95625,159.3L37.209375,159.3L37.4625,159.3L37.715625,159.3L37.96875,159.3L38.221875,159.3L38.475,159.3L38.728125,159.3L38.98125,159.3L39.234375,159.3L39.4875,159.3L39.740625,159.3L39.993750000000006,159.3L40.246874999999996,159.3L40.5,159.3L40.753125,159.3L41.00625,159.3L41.259375000000006,159.3L41.512499999999996,159.3L41.765625,159.3L42.01875,159.3L42.271875,159.3L42.525000000000006,159.3L42.778124999999996,159.3L43.03125,159.3L43.284375,159.3L43.5375,159.3L43.790625000000006,159.3L44.043749999999996,159.3L44.296875,159.3L44.550000000000004,159.3L44.803125,159.3L45.05625,159.3L45.309374999999996,159.3L45.5625,159.3L45.815625000000004,159.3L46.06875,159.3L46.321875,159.3L46.574999999999996,159.3L46.828125,159.3L47.081250000000004,159.3L47.334375,159.3L47.5875,159.3L47.840624999999996,159.3L48.09375,159.3L48.346875000000004,159.3L48.6,159.3L48.853125,159.3L49.10625,159.3L49.359375,159.3L49.612500000000004,159.3L49.865624999999994,159.3L50.11875,159.3L50.371875,159.3L50.625,159.3L50.878125000000004,159.3L51.131249999999994,159.3L51.384375,159.3L51.6375,159.3L51.890625,159.3L52.143750000000004,159.3L52.396874999999994,159.3L52.65,159.3L52.903125,159.3L53.15625,159.3L53.409375,159.3L53.662499999999994,159.3L53.915625,159.3L54.16875,159.3L54.421875,159.3L54.675,159.3L54.928125,159.3L55.18125,159.3L55.434375,159.3L55.6875,159.3L55.940625,159.3L56.19375,159.3L56.446875,159.3L56.7,159.3L56.953125,159.3L57.20625,159.3L57.459375,159.3L57.7125,159.3L57.965625,159.3L58.21874999999999,159.3L58.471875,159.3L58.725,159.3L58.978125,159.3L59.23125,159.3L59.484375,159.3L59.7375,159.3L59.990625,159.3L60.24375,159.3L60.496875,159.3L60.75,159.3L61.003125,159.3L61.25625,159.3L61.509375,159.3L61.7625,159.3L62.015625,159.3L62.26875,159.3L62.521875,159.3L62.775000000000006,159.3L63.028124999999996,159.3L63.28125,159.3L63.534375,159.3L63.7875,159.3L64.040625,159.3L64.29375,159.3L64.546875,159.3L64.8,159.3L65.05312500000001,159.3L65.30625,159.3L65.559375,159.3L65.8125,159.3L66.065625,159.3L66.31875000000001,159.3L66.571875,159.3L66.825,159.3L67.078125,159.3L67.33125,159.3L67.58437500000001,159.3L67.83749999999999,159.3L68.090625,159.3L68.34375,159.3L68.596875,159.3L68.85000000000001,159.3L69.10312499999999,159.3L69.35625,159.3L69.609375,159.3L69.8625,159.3L70.11562500000001,159.3L70.36875,159.3L70.621875,159.3L70.87499999999999,159.3L71.128125,159.3L71.38125,159.3L71.63437499999999,159.3L71.8875,159.3L72.140625,159.3L72.39375,159.3L72.64687500000001,159.3L72.9,159.3L73.153125,159.3L73.40625,159.3L73.659375,159.3L73.9125,159.3L74.16562499999999,159.3L74.41875,159.3L74.671875,159.3L74.925,159.3L75.17812500000001,159.3L75.43125,159.3L75.68437499999999,159.3L75.9375,159.3L76.190625,159.3L76.44375,159.3L76.696875,159.3L76.95,159.3L77.203125,159.3L77.45625,159.3L77.70937500000001,159.3L77.9625,159.3L78.21562499999999,159.3L78.46875,159.3L78.721875,159.3L78.975,159.3L79.228125,159.3L79.48125,159.3L79.734375,159.3L79.98750000000001,159.3L80.24062500000001,159.3L80.49374999999999,159.3L80.74687499999999,159.3L81,159.3L81.253125,159.3L81.50625,159.3L81.759375,159.3L82.0125,159.3L82.265625,159.3L82.51875000000001,159.3L82.77187500000001,159.3L83.02499999999999,159.3L83.27812499999999,159.3L83.53125,159.3L83.784375,159.3L84.0375,159.3L84.290625,159.3L84.54375,159.3L84.796875,159.3L85.05000000000001,159.3L85.303125,159.3L85.55624999999999,159.3L85.809375,159.3L86.0625,159.3L86.315625,159.3L86.56875,159.3L86.821875,159.3L87.075,159.3L87.328125,159.3L87.58125000000001,159.3L87.834375,159.3L88.08749999999999,159.3L88.340625,159.3L88.59375,159.3L88.846875,159.3L89.10000000000001,159.3L89.353125,159.3L89.60625,159.3L89.859375,159.3L90.1125,159.3L90.365625,159.3L90.61874999999999,159.3L90.871875,159.3L91.125,159.3L91.378125,159.3L91.63125000000001,159.3L91.884375,159.3L92.1375,159.3L92.39062500000001,159.3L92.64375,159.3L92.896875,159.3L93.14999999999999,159.3L93.403125,159.3L93.65625,159.3L93.909375,159.3L94.16250000000001,159.3L94.415625,159.3L94.66875,159.3L94.921875,159.3L95.175,159.3L95.428125,159.3L95.68124999999999,159.3L95.934375,159.3L96.1875,159.3L96.440625,159.3L96.69375000000001,159.3L96.946875,159.3L97.2,159.3L97.453125,159.3L97.70625,159.3L97.959375,159.3L98.2125,159.3L98.465625,159.3L98.71875,159.3L98.971875,159.3L99.22500000000001,159.3L99.478125,159.3L99.73124999999999,159.3L99.984375,159.3L100.2375,159.3L100.490625,159.3L100.74375,159.3L100.996875,159.3L101.25,159.3L101.50312500000001,159.3L101.75625000000001,159.3L102.009375,159.3L102.26249999999999,159.3L102.515625,159.3L102.76875,159.3L103.021875,159.3L103.275,159.3L103.528125,159.3L103.78125,159.3L104.03437500000001,159.3L104.28750000000001,159.3L104.54062499999999,159.3L104.79374999999999,159.3L105.046875,159.3L105.3,159.3L105.553125,159.3L105.80625,159.3L106.059375,159.3L106.3125,159.3L106.56562500000001,159.3L106.81875,159.3L107.07187499999999,159.3L107.32499999999999,159.3L107.578125,159.3L107.83125,159.3L108.084375,159.3L108.3375,159.3L108.590625,159.3L108.84375,159.3L109.09687500000001,159.3L109.35,159.3L109.60312499999999,159.3L109.85625,159.3L110.109375,159.3L110.3625,159.3L110.615625,159.3L110.86875,159.3L111.121875,159.3L111.375,159.3L111.628125,159.3L111.88125,159.3L112.13437499999999,159.3L112.3875,159.3L112.640625,159.3L112.89375,159.3L113.14687500000001,159.3L113.4,159.3L113.653125,159.3L113.90625,159.3L114.159375,159.3L114.4125,159.3L114.66562499999999,159.3L114.91875,159.3L115.171875,159.3L115.425,159.3L115.67812500000001,159.3L115.93125,159.3L116.184375,159.3L116.43749999999999,159.3L116.690625,159.3L116.94375,159.3L117.19687499999999,159.3L117.45,159.3L117.703125,159.3L117.95625,159.3L118.20937500000001,159.3L118.4625,159.3L118.715625,159.3L118.96875,159.3L119.221875,159.3L119.475,159.3L119.72812499999999,159.3L119.98125,159.3L120.234375,159.3L120.4875,159.3L120.74062500000001,159.3L120.99375,159.3L121.24687499999999,159.3L121.5,159.3L121.753125,159.3L122.00625,159.3L122.259375,159.3L122.5125,159.3L122.765625,159.3L123.01875,159.3L123.27187500000001,159.3L123.525,159.3L123.77812499999999,159.3L124.03125,159.3L124.284375,159.3L124.5375,159.3L124.790625,159.3L125.04375,159.3L125.296875,159.3L125.55000000000001,159.3L125.80312500000001,159.3L126.05624999999999,159.3L126.30937499999999,159.3L126.5625,159.3L126.815625,159.3L127.06875,159.3L127.321875,159.3L127.575,159.3L127.828125,159.3L128.08125,159.3L128.334375,159.3L128.5875,159.3L128.840625,159.3L129.09375,159.3L129.346875,159.3L129.6,159.3L129.853125,159.3L130.10625000000002,159.3L130.359375,159.3L130.6125,159.3L130.865625,159.3L131.11875,159.3L131.371875,159.3L131.625,159.3L131.878125,159.3L132.13125,159.3L132.384375,159.3L132.63750000000002,159.3L132.890625,159.3L133.14375,159.3L133.396875,159.3L133.65,159.3L133.903125,159.3L134.15625,159.3L134.409375,159.3L134.6625,159.3L134.915625,159.3L135.16875000000002,159.3L135.421875,159.3L135.67499999999998,159.3L135.928125,159.3L136.18125,159.3L136.434375,159.3L136.6875,159.3L136.940625,159.3L137.19375,159.3L137.446875,159.3L137.70000000000002,159.3L137.953125,159.3L138.20624999999998,159.3L138.459375,159.3L138.7125,159.3L138.965625,159.3L139.21875,159.3L139.47187499999998,159.3L139.725,159.3L139.97812499999998,159.3L140.23125000000002,159.3L140.484375,159.3L140.7375,159.3L140.990625,159.3L141.24375,159.3L141.496875,159.3L141.74999999999997,159.3L142.003125,159.3L142.25625,159.3L142.509375,159.3L142.7625,159.3L143.015625,159.3L143.26874999999998,159.3L143.52187500000002,159.3L143.775,159.3L144.028125,159.3L144.28125,159.3L144.53437499999998,159.3L144.7875,159.3L145.04062499999998,159.3L145.29375000000002,159.3L145.546875,159.3L145.8,159.3L146.053125,159.3L146.30625,159.3L146.559375,159.3L146.8125,159.3L147.065625,159.3L147.31875,159.3L147.571875,159.3L147.825,159.3L148.078125,159.3L148.33124999999998,159.3L148.58437500000002,159.3L148.8375,159.3L149.090625,159.3L149.34375,159.3L149.59687499999998,159.3L149.85,159.3L150.103125,159.3L150.35625000000002,159.3L150.609375,159.3L150.8625,159.3L151.115625,159.3L151.36874999999998,159.3L151.621875,159.3L151.875,159.3L152.128125,159.3L152.38125,159.3L152.634375,159.3L152.8875,159.3L153.140625,159.3L153.39375,159.3L153.646875,159.3L153.9,159.3L154.153125,159.3L154.40625,159.3L154.65937499999998,159.3L154.9125,159.3L155.165625,159.3L155.41875000000002,159.3L155.671875,159.3L155.925,159.3L156.178125,159.3L156.43124999999998,159.3L156.68437500000002,159.3L156.9375,159.3L157.190625,159.3L157.44375,159.3L157.696875,159.3L157.95,159.3L158.203125,159.3L158.45625,159.3L158.709375,159.3L158.9625,159.3L159.215625,159.3L159.46875,159.3L159.72187499999998,159.3L159.97500000000002,159.3L160.228125,159.3L160.48125000000002,159.3L160.734375,159.3L160.98749999999998,159.3L161.240625,159.3L161.49374999999998,159.3L161.74687500000002,159.3L162,159.3L162.253125,159.3L162.50625,159.3L162.759375,159.3L163.0125,159.3L163.26562499999997,159.3L163.51875,159.3L163.771875,159.3L164.025,159.3L164.278125,159.3L164.53125,159.3L164.78437499999998,159.3L165.03750000000002,159.3L165.290625,159.3L165.54375000000002,159.3L165.796875,159.3L166.04999999999998,159.3L166.303125,159.3L166.55624999999998,159.3L166.80937500000002,159.3L167.0625,159.3L167.315625,159.3L167.56875,159.3L167.821875,159.3L168.075,159.3L168.328125,159.3L168.58125,159.3L168.834375,159.3L169.0875,159.3L169.340625,159.3L169.59375,159.3L169.84687499999998,159.3L170.10000000000002,159.3L170.353125,159.3L170.60625,159.3L170.859375,159.3L171.11249999999998,159.3L171.365625,159.3L171.61875,159.3L171.87187500000002,159.3L172.125,159.3L172.378125,159.3L172.63125,159.3L172.88437499999998,159.3L173.1375,159.3L173.390625,159.3L173.64375,159.3L173.896875,159.3L174.15,159.3L174.403125,159.3L174.65625,159.3L174.909375,159.3L175.16250000000002,159.3L175.415625,159.3L175.66875,159.3L175.921875,159.3L176.17499999999998,159.3L176.428125,159.3L176.68125,159.3L176.93437500000002,159.3L177.1875,159.3L177.440625,159.3L177.69375,159.3L177.94687499999998,159.3L178.20000000000002,159.3L178.453125,159.3L178.70625,159.3L178.959375,159.3L179.2125,159.3L179.465625,159.3L179.71875,159.3L179.971875,159.3L180.225,159.3L180.478125,159.3L180.73125,159.3L180.984375,159.3L181.23749999999998,159.3L181.49062500000002,159.3L181.74375,159.3L181.99687500000002,159.3L182.25,159.3L182.50312499999998,159.3L182.75625,159.3L183.00937499999998,159.3L183.26250000000002,159.3L183.515625,159.3L183.76875,159.3L184.021875,159.3L184.275,159.3L184.528125,159.3L184.78125000000003,159.3L185.034375,159.3L185.2875,159.3L185.540625,159.3L185.79375,159.3L186.046875,159.3L186.29999999999998,159.3L186.55312500000002,159.3L186.80625,159.3L187.05937500000002,159.3L187.3125,159.3L187.56562499999998,159.3L187.81875,159.3L188.07187499999998,159.3L188.32500000000002,159.3L188.578125,159.3L188.83125,159.3L189.084375,159.3L189.3375,159.3L189.590625,159.3L189.84375,159.3L190.096875,159.3L190.35,159.3L190.603125,159.3L190.85625,159.3L191.109375,159.3L191.36249999999998,159.3L191.61562500000002,159.3L191.86875,159.3L192.121875,159.3L192.375,159.3L192.62812499999998,159.3L192.88125,159.3L193.134375,159.3L193.38750000000002,159.3L193.640625,159.3L193.89375,159.3L194.146875,159.3L194.4,159.3L194.653125,159.3L194.90625,159.3L195.159375,159.3L195.4125,159.3L195.665625,159.3L195.91875,159.3L196.171875,159.3L196.425,159.3L196.67812500000002,159.3L196.93125,159.3L197.184375,159.3L197.4375,159.3L197.69062499999998,159.3L197.94375,159.3L198.196875,159.3L198.45000000000002,159.3L198.703125,159.3L198.95625,159.3L199.209375,159.3L199.46249999999998,159.3L199.71562500000002,159.3L199.96875,159.3L200.221875,159.3L200.475,159.3L200.728125,159.3L200.98125,159.3L201.234375,159.3L201.4875,159.3L201.740625,159.3L201.99375,159.3L202.246875,159.3L202.5,159.3L202.75312499999998,159.3L203.00625000000002,159.3L203.259375,159.3L203.51250000000002,159.3L203.765625,159.3L204.01875,159.3L204.271875,159.3L204.52499999999998,159.3L204.77812500000002,159.3L205.03125,159.3L205.284375,159.3L205.5375,159.3L205.790625,159.3L206.04375,159.3L206.29687500000003,159.3L206.55,159.3L206.803125,159.3L207.05625,159.3L207.309375,159.3L207.5625,159.3L207.81562499999998,159.3L208.06875000000002,159.3L208.321875,159.3L208.57500000000002,159.3L208.828125,159.3L209.08124999999998,159.3L209.334375,159.3L209.58749999999998,159.3L209.84062500000002,159.3L210.09375,159.3L210.346875,159.3L210.6,159.3L210.853125,159.3L211.10625,159.3L211.35937499999997,159.3L211.6125,159.3L211.865625,159.3L212.11875,159.3L212.371875,159.3L212.625,159.3L212.87812499999998,159.3L213.13125000000002,159.3L213.384375,159.3L213.6375,159.3L213.890625,159.3L214.14374999999998,159.3L214.396875,159.3L214.64999999999998,159.3L214.90312500000002,159.3L215.15625,159.3L215.409375,159.3L215.6625,159.3L215.915625,159.3L216.16875,159.3L216.421875,159.3L216.675,159.3L216.928125,159.3L217.18125,159.3L217.434375,159.3L217.6875,159.3L217.94062499999998,159.3L218.19375000000002,159.3L218.446875,159.3L218.7,159.3L218.953125,159.3L219.20624999999998,159.3L219.459375,159.3L219.7125,159.3L219.96562500000002,159.3L220.21875,159.3L220.471875,159.3L220.725,159.3L220.97812499999998,159.3L221.23125,159.3L221.484375,159.3L221.7375,159.3L221.990625,159.3L222.24375,159.3L222.496875,159.3L222.75,159.3L223.003125,159.3L223.25625,159.3L223.509375,159.3L223.7625,159.3L224.015625,159.3L224.26874999999998,159.3L224.521875,159.3L224.775,159.3L225.02812500000002,159.3L225.28125,159.3L225.534375,159.3L225.7875,159.3L226.04062499999998,159.3L226.29375000000002,159.3L226.546875,159.3L226.8,159.3L227.053125,159.3L227.30625,159.3L227.559375,159.3L227.8125,159.3L228.065625,159.3L228.31875,159.3L228.571875,159.3L228.825,159.3L229.078125,159.3L229.33124999999998,159.3L229.58437500000002,159.3L229.8375,159.3L230.09062500000002,159.3L230.34375,159.3L230.59687499999998,159.3L230.85,159.3L231.10312499999998,159.3L231.35625000000002,159.3L231.609375,159.3L231.8625,159.3L232.115625,159.3L232.36875,159.3L232.621875,159.3L232.87499999999997,159.3L233.128125,159.3L233.38125,159.3L233.634375,159.3L233.8875,159.3L234.140625,159.3L234.39374999999998,159.3L234.64687500000002,159.3L234.9,159.3L235.15312500000002,159.3L235.40625,159.3L235.65937499999998,159.3L235.9125,159.3L236.16562499999998,159.3L236.41875000000002,159.3L236.671875,159.3L236.925,159.3L237.178125,159.3L237.43125,159.3L237.684375,159.3L237.9375,159.3L238.190625,159.3L238.44375,159.3L238.696875,159.3L238.95,159.3L239.203125,159.3L239.45624999999998,159.3L239.70937500000002,159.3L239.9625,159.3L240.215625,159.3L240.46875,159.3L240.72187499999998,159.3L240.975,159.3L241.228125,159.3L241.48125000000002,159.3L241.734375,159.3L241.9875,159.3L242.240625,159.3L242.49374999999998,159.3L242.746875,159.3L243,159.3L243.253125,159.3L243.50625,159.3L243.759375,159.3L244.0125,159.3L244.265625,159.3L244.51875,159.3L244.77187500000002,159.3L245.025,159.3L245.278125,159.3L245.53125,159.3L245.78437499999998,159.3L246.0375,159.3L246.290625,159.3L246.54375000000002,159.3L246.796875,159.3L247.05,159.3L247.303125,159.3L247.55624999999998,159.3L247.80937500000002,159.3L248.0625,159.3L248.315625,159.3L248.56875,159.3L248.821875,159.3L249.075,159.3L249.328125,159.3L249.58125,159.3L249.834375,159.3L250.0875,159.3L250.340625,159.3L250.59375,159.3L250.84687499999998,159.3L251.10000000000002,159.3L251.353125,159.3L251.60625000000002,159.3L251.859375,159.3L252.11249999999998,159.3L252.365625,159.3L252.61874999999998,159.3L252.87187500000002,159.3L253.125,159.3L253.378125,159.3L253.63125,159.3L253.884375,159.3L254.1375,159.3L254.39062500000003,159.3L254.64375,159.3L254.896875,159.3L255.15,159.3L255.403125,159.3L255.65625,159.3L255.90937499999998,159.3L256.1625,159.3L256.415625,159.3L256.66875,159.3L256.921875,159.3L257.175,159.3L257.428125,159.3L257.68125,159.3L257.934375,159.3L258.1875,159.3L258.440625,159.3L258.69375,159.3L258.94687500000003,159.3L259.2,159.3L259.453125,159.3L259.70625,159.3L259.95937499999997,159.3L260.21250000000003,159.3L260.465625,159.3L260.71875,159.3L260.971875,159.3L261.225,159.3L261.478125,159.3L261.73125,159.3L261.984375,159.3L262.2375,159.3L262.490625,159.3L262.74375,159.3L262.996875,159.3L263.25,159.3L263.503125,159.3L263.75625,159.3L264.00937500000003,159.3L264.2625,159.3L264.515625,159.3L264.76875,159.3L265.02187499999997,159.3L265.27500000000003,159.3L265.528125,159.3L265.78125,159.3L266.034375,159.3L266.2875,159.3L266.540625,159.3L266.79375,159.3L267.046875,159.3L267.3,159.3L267.553125,159.3L267.80625,159.3L268.059375,159.3L268.3125,159.3L268.565625,159.3L268.81875,159.3" style="fill: none;" fill="none"></path></g></g></g></g></g><g><g opacity="0.214748"><span fill="rgb(0, 0, 0)" stroke="none" stroke-width="1px">Alt + Scroll to Zoom</span></g></g></g><g transform="translate(51, 177)" clip-path="url(#clip_1)"><clipPath id="clip_1"><rect width="278" height="23"></rect></clipPath><g><g><line x1="0" y1="0" x2="0" y2="5" style="visibility: inherit;" fill="rgb(0, 0, 0)" stroke="rgb(204, 204, 204)" stroke-width="1px"></line><line x1="25.3125" y1="0" x2="25.3125" y2="5" style="visibility: inherit;" fill="rgb(0, 0, 0)" stroke="rgb(204, 204, 204)" stroke-width="1px"></line><line x1="50.625" y1="0" x2="50.625" y2="5" style="visibility: inherit;" fill="rgb(0, 0, 0)" stroke="rgb(204, 204, 204)" stroke-width="1px"></line><line x1="75.9375" y1="0" x2="75.9375" y2="5" style="visibility: inherit;" fill="rgb(0, 0, 0)" stroke="rgb(204, 204, 204)" stroke-width="1px"></line><line x1="101.25" y1="0" x2="101.25" y2="5" style="visibility: inherit;" fill="rgb(0, 0, 0)" stroke="rgb(204, 204, 204)" stroke-width="1px"></line><line x1="126.5625" y1="0" x2="126.5625" y2="5" style="visibility: inherit;" fill="rgb(0, 0, 0)" stroke="rgb(204, 204, 204)" stroke-width="1px"></line><line x1="151.875" y1="0" x2="151.875" y2="5" style="visibility: inherit;" fill="rgb(0, 0, 0)" stroke="rgb(204, 204, 204)" stroke-width="1px"></line><line x1="177.1875" y1="0" x2="177.1875" y2="5" style="visibility: inherit;" fill="rgb(0, 0, 0)" stroke="rgb(204, 204, 204)" stroke-width="1px"></line><line x1="202.5" y1="0" x2="202.5" y2="5" style="visibility: inherit;" fill="rgb(0, 0, 0)" stroke="rgb(204, 204, 204)" stroke-width="1px"></line><line x1="227.8125" y1="0" x2="227.8125" y2="5" style="visibility: inherit;" fill="rgb(0, 0, 0)" stroke="rgb(204, 204, 204)" stroke-width="1px"></line><line x1="253.125" y1="0" x2="253.125" y2="5" style="visibility: inherit;" fill="rgb(0, 0, 0)" stroke="rgb(204, 204, 204)" stroke-width="1px"></line><line x1="278.4375" y1="0" x2="278.4375" y2="5" style="visibility: inherit;" fill="rgb(0, 0, 0)" stroke="rgb(204, 204, 204)" stroke-width="1px"></line></g><g transform="translate(0, 8)"><text x="0" y="0" dx="0em" dy="0.95em" style="text-anchor: middle; visibility: hidden; font-family: Roboto, sans-serif; font-size: 12px; font-weight: 200;" fill="rgb(255, 255, 255)" stroke="none" stroke-width="1px">-100</text><text x="25.3125" y="0" dx="0em" dy="0.95em" style="text-anchor: middle; visibility: inherit; font-family: Roboto, sans-serif; font-size: 12px; font-weight: 200;" fill="rgb(255, 255, 255)" stroke="none" stroke-width="1px">0</text><text x="50.625" y="0" dx="0em" dy="0.95em" style="text-anchor: middle; visibility: inherit; font-family: Roboto, sans-serif; font-size: 12px; font-weight: 200;" fill="rgb(255, 255, 255)" stroke="none" stroke-width="1px">100</text><text x="75.9375" y="0" dx="0em" dy="0.95em" style="text-anchor: middle; visibility: inherit; font-family: Roboto, sans-serif; font-size: 12px; font-weight: 200;" fill="rgb(255, 255, 255)" stroke="none" stroke-width="1px">200</text><text x="101.25" y="0" dx="0em" dy="0.95em" style="text-anchor: middle; visibility: inherit; font-family: Roboto, sans-serif; font-size: 12px; font-weight: 200;" fill="rgb(255, 255, 255)" stroke="none" stroke-width="1px">300</text><text x="126.5625" y="0" dx="0em" dy="0.95em" style="text-anchor: middle; visibility: inherit; font-family: Roboto, sans-serif; font-size: 12px; font-weight: 200;" fill="rgb(255, 255, 255)" stroke="none" stroke-width="1px">400</text><text x="151.875" y="0" dx="0em" dy="0.95em" style="text-anchor: middle; visibility: inherit; font-family: Roboto, sans-serif; font-size: 12px; font-weight: 200;" fill="rgb(255, 255, 255)" stroke="none" stroke-width="1px">500</text><text x="177.1875" y="0" dx="0em" dy="0.95em" style="text-anchor: middle; visibility: inherit; font-family: Roboto, sans-serif; font-size: 12px; font-weight: 200;" fill="rgb(255, 255, 255)" stroke="none" stroke-width="1px">600</text><text x="202.5" y="0" dx="0em" dy="0.95em" style="text-anchor: middle; visibility: inherit; font-family: Roboto, sans-serif; font-size: 12px; font-weight: 200;" fill="rgb(255, 255, 255)" stroke="none" stroke-width="1px">700</text><text x="227.8125" y="0" dx="0em" dy="0.95em" style="text-anchor: middle; visibility: inherit; font-family: Roboto, sans-serif; font-size: 12px; font-weight: 200;" fill="rgb(255, 255, 255)" stroke="none" stroke-width="1px">800</text><text x="253.125" y="0" dx="0em" dy="0.95em" style="text-anchor: middle; visibility: inherit; font-family: Roboto, sans-serif; font-size: 12px; font-weight: 200;" fill="rgb(255, 255, 255)" stroke="none" stroke-width="1px">900</text><text x="278.4375" y="0" dx="0em" dy="0.95em" style="text-anchor: middle; visibility: hidden; font-family: Roboto, sans-serif; font-size: 12px; font-weight: 200;" fill="rgb(255, 255, 255)" stroke="none" stroke-width="1px">1k</text></g><line x1="0" y1="0" x2="278.4375" y2="0" fill="rgb(0, 0, 0)" stroke="rgb(204, 204, 204)" stroke-width="1px"></line></g></g></g></g></svg>