<svg viewBox="0 0 330 200" xmlns="http://www.w3.org/2000/svg"><g><g><g><g><g><line x1="61.953125" y1="177" x2="56.953125" y2="177" style="visibility: inherit;" fill="rgb(0, 0, 0)" stroke="rgb(204, 204, 204)" stroke-width="1px"></line><line x1="61.953125" y1="160.9090909090909" x2="56.953125" y2="160.9090909090909" style="visibility: inherit;" fill="rgb(0, 0, 0)" stroke="rgb(204, 204, 204)" stroke-width="1px"></line><line x1="61.953125" y1="144.8181818181818" x2="56.953125" y2="144.8181818181818" style="visibility: inherit;" fill="rgb(0, 0, 0)" stroke="rgb(204, 204, 204)" stroke-width="1px"></line><line x1="61.953125" y1="128.72727272727272" x2="56.953125" y2="128.72727272727272" style="visibility: inherit;" fill="rgb(0, 0, 0)" stroke="rgb(204, 204, 204)" stroke-width="1px"></line><line x1="61.953125" y1="112.63636363636364" x2="56.953125" y2="112.63636363636364" style="visibility: inherit;" fill="rgb(0, 0, 0)" stroke="rgb(204, 204, 204)" stroke-width="1px"></line><line x1="61.953125" y1="96.54545454545453" x2="56.953125" y2="96.54545454545453" style="visibility: inherit;" fill="rgb(0, 0, 0)" stroke="rgb(204, 204, 204)" stroke-width="1px"></line><line x1="61.953125" y1="80.45454545454544" x2="56.953125" y2="80.45454545454544" style="visibility: inherit;" fill="rgb(0, 0, 0)" stroke="rgb(204, 204, 204)" stroke-width="1px"></line><line x1="61.953125" y1="64.36363636363639" x2="56.953125" y2="64.36363636363639" style="visibility: inherit;" fill="rgb(0, 0, 0)" stroke="rgb(204, 204, 204)" stroke-width="1px"></line><line x1="61.953125" y1="48.272727272727266" x2="56.953125" y2="48.272727272727266" style="visibility: inherit;" fill="rgb(0, 0, 0)" stroke="rgb(204, 204, 204)" stroke-width="1px"></line><line x1="61.953125" y1="32.181818181818194" x2="56.953125" y2="32.181818181818194" style="visibility: inherit;" fill="rgb(0, 0, 0)" stroke="rgb(204, 204, 204)" stroke-width="1px"></line><line x1="61.953125" y1="16.090909090909097" x2="56.953125" y2="16.090909090909097" style="visibility: inherit;" fill="rgb(0, 0, 0)" stroke="rgb(204, 204, 204)" stroke-width="1px"></line><line x1="61.953125" y1="0" x2="56.953125" y2="0" style="visibility: inherit;" fill="rgb(0, 0, 0)" stroke="rgb(204, 204, 204)" stroke-width="1px"></line></g><g transform="translate(51.953125, 0)"><text x="0" y="177" dx="0em" dy="0.3em" style="text-anchor: end; visibility: hidden; font-family: Roboto, sans-serif; font-size: 12px; font-weight: 200;" fill="rgb(255, 255, 255)" stroke="none" stroke-width="1px">-5e-3</text><text x="0" y="160.9090909090909" dx="0em" dy="0.3em" style="text-anchor: end; visibility: inherit; font-family: Roboto, sans-serif; font-size: 12px; font-weight: 200;" fill="rgb(255, 255, 255)" stroke="none" stroke-width="1px">0</text><text x="0" y="144.8181818181818" dx="0em" dy="0.3em" style="text-anchor: end; visibility: hidden; font-family: Roboto, sans-serif; font-size: 12px; font-weight: 200;" fill="rgb(255, 255, 255)" stroke="none" stroke-width="1px">5e-3</text><text x="0" y="128.72727272727272" dx="0em" dy="0.3em" style="text-anchor: end; visibility: inherit; font-family: Roboto, sans-serif; font-size: 12px; font-weight: 200;" fill="rgb(255, 255, 255)" stroke="none" stroke-width="1px">0.01</text><text x="0" y="112.63636363636364" dx="0em" dy="0.3em" style="text-anchor: end; visibility: hidden; font-family: Roboto, sans-serif; font-size: 12px; font-weight: 200;" fill="rgb(255, 255, 255)" stroke="none" stroke-width="1px">0.015</text><text x="0" y="96.54545454545453" dx="0em" dy="0.3em" style="text-anchor: end; visibility: inherit; font-family: Roboto, sans-serif; font-size: 12px; font-weight: 200;" fill="rgb(255, 255, 255)" stroke="none" stroke-width="1px">0.02</text><text x="0" y="80.45454545454544" dx="0em" dy="0.3em" style="text-anchor: end; visibility: hidden; font-family: Roboto, sans-serif; font-size: 12px; font-weight: 200;" fill="rgb(255, 255, 255)" stroke="none" stroke-width="1px">0.025</text><text x="0" y="64.36363636363639" dx="0em" dy="0.3em" style="text-anchor: end; visibility: inherit; font-family: Roboto, sans-serif; font-size: 12px; font-weight: 200;" fill="rgb(255, 255, 255)" stroke="none" stroke-width="1px">0.03</text><text x="0" y="48.272727272727266" dx="0em" dy="0.3em" style="text-anchor: end; visibility: hidden; font-family: Roboto, sans-serif; font-size: 12px; font-weight: 200;" fill="rgb(255, 255, 255)" stroke="none" stroke-width="1px">0.035</text><text x="0" y="32.181818181818194" dx="0em" dy="0.3em" style="text-anchor: end; visibility: inherit; font-family: Roboto, sans-serif; font-size: 12px; font-weight: 200;" fill="rgb(255, 255, 255)" stroke="none" stroke-width="1px">0.04</text><text x="0" y="16.090909090909097" dx="0em" dy="0.3em" style="text-anchor: end; visibility: hidden; font-family: Roboto, sans-serif; font-size: 12px; font-weight: 200;" fill="rgb(255, 255, 255)" stroke="none" stroke-width="1px">0.045</text><text x="0" y="0" dx="0em" dy="0.3em" style="text-anchor: end; visibility: hidden; font-family: Roboto, sans-serif; font-size: 12px; font-weight: 200;" fill="rgb(255, 255, 255)" stroke="none" stroke-width="1px">0.05</text></g><line x1="61.953125" y1="0" x2="61.953125" y2="177" fill="rgb(0, 0, 0)" stroke="rgb(204, 204, 204)" stroke-width="1px"></line></g></g><g transform="translate(61, 0)" clip-path="url(#clip_0)"><clipPath id="clip_0"><rect width="268" height="177"></rect></clipPath><g><g><g><line x1="0" y1="0" x2="0" y2="177" fill="rgb(0, 0, 0)" stroke="rgb(189, 189, 189)" stroke-width="1px" opacity="0.25"></line><line x1="24.367897727272727" y1="0" x2="24.367897727272727" y2="177" fill="rgb(0, 0, 0)" stroke="rgb(189, 189, 189)" stroke-width="1px" opacity="0.25"></line><line x1="48.73579545454545" y1="0" x2="48.73579545454545" y2="177" fill="rgb(0, 0, 0)" stroke="rgb(189, 189, 189)" stroke-width="1px" opacity="0.25"></line><line x1="73.10369318181817" y1="0" x2="73.10369318181817" y2="177" fill="rgb(0, 0, 0)" stroke="rgb(189, 189, 189)" stroke-width="1px" opacity="0.25"></line><line x1="97.4715909090909" y1="0" x2="97.4715909090909" y2="177" fill="rgb(0, 0, 0)" stroke="rgb(189, 189, 189)" stroke-width="1px" opacity="0.25"></line><line x1="121.83948863636363" y1="0" x2="121.83948863636363" y2="177" fill="rgb(0, 0, 0)" stroke="rgb(189, 189, 189)" stroke-width="1px" opacity="0.25"></line><line x1="146.20738636363635" y1="0" x2="146.20738636363635" y2="177" fill="rgb(0, 0, 0)" stroke="rgb(189, 189, 189)" stroke-width="1px" opacity="0.25"></line><line x1="170.5752840909091" y1="0" x2="170.5752840909091" y2="177" fill="rgb(0, 0, 0)" stroke="rgb(189, 189, 189)" stroke-width="1px" opacity="0.25"></line><line x1="194.9431818181818" y1="0" x2="194.9431818181818" y2="177" fill="rgb(0, 0, 0)" stroke="rgb(189, 189, 189)" stroke-width="1px" opacity="0.25"></line><line x1="219.31107954545456" y1="0" x2="219.31107954545456" y2="177" fill="rgb(0, 0, 0)" stroke="rgb(189, 189, 189)" stroke-width="1px" opacity="0.25"></line><line x1="243.67897727272725" y1="0" x2="243.67897727272725" y2="177" fill="rgb(0, 0, 0)" stroke="rgb(189, 189, 189)" stroke-width="1px" opacity="0.25"></line><line x1="268.046875" y1="0" x2="268.046875" y2="177" fill="rgb(0, 0, 0)" stroke="rgb(189, 189, 189)" stroke-width="1px" opacity="0.25"></line></g><g><line x1="0" y1="177" x2="268.046875" y2="177" fill="rgb(0, 0, 0)" stroke="rgb(189, 189, 189)" stroke-width="1px" opacity="0.25"></line><line x1="0" y1="160.9090909090909" x2="268.046875" y2="160.9090909090909" fill="rgb(0, 0, 0)" stroke="rgb(189, 189, 189)" stroke-width="1px" opacity="0.25"></line><line x1="0" y1="144.8181818181818" x2="268.046875" y2="144.8181818181818" fill="rgb(0, 0, 0)" stroke="rgb(189, 189, 189)" stroke-width="1px" opacity="0.25"></line><line x1="0" y1="128.72727272727272" x2="268.046875" y2="128.72727272727272" fill="rgb(0, 0, 0)" stroke="rgb(189, 189, 189)" stroke-width="1px" opacity="0.25"></line><line x1="0" y1="112.63636363636364" x2="268.046875" y2="112.63636363636364" fill="rgb(0, 0, 0)" stroke="rgb(189, 189, 189)" stroke-width="1px" opacity="0.25"></line><line x1="0" y1="96.54545454545453" x2="268.046875" y2="96.54545454545453" fill="rgb(0, 0, 0)" stroke="rgb(189, 189, 189)" stroke-width="1px" opacity="0.25"></line><line x1="0" y1="80.45454545454544" x2="268.046875" y2="80.45454545454544" fill="rgb(0, 0, 0)" stroke="rgb(189, 189, 189)" stroke-width="1px" opacity="0.25"></line><line x1="0" y1="64.36363636363639" x2="268.046875" y2="64.36363636363639" fill="rgb(0, 0, 0)" stroke="rgb(189, 189, 189)" stroke-width="1px" opacity="0.25"></line><line x1="0" y1="48.272727272727266" x2="268.046875" y2="48.272727272727266" fill="rgb(0, 0, 0)" stroke="rgb(189, 189, 189)" stroke-width="1px" opacity="0.25"></line><line x1="0" y1="32.181818181818194" x2="268.046875" y2="32.181818181818194" fill="rgb(0, 0, 0)" stroke="rgb(189, 189, 189)" stroke-width="1px" opacity="0.25"></line><line x1="0" y1="16.090909090909097" x2="268.046875" y2="16.090909090909097" fill="rgb(0, 0, 0)" stroke="rgb(189, 189, 189)" stroke-width="1px" opacity="0.25"></line><line x1="0" y1="0" x2="268.046875" y2="0" fill="rgb(0, 0, 0)" stroke="rgb(189, 189, 189)" stroke-width="1px" opacity="0.25"></line></g></g></g><g><g><line x1="0" y1="160.9090909090909" x2="268.046875" y2="160.9090909090909" fill="rgb(0, 0, 0)" stroke="rgb(153, 153, 153)" stroke-width="1.5px"></line></g></g><g><g><line x1="24.367897727272727" y1="0" x2="24.367897727272727" y2="177" fill="rgb(0, 0, 0)" stroke="rgb(153, 153, 153)" stroke-width="1.5px"></line></g></g><g><g><g><g><g><path stroke="rgb(255, 112, 67)" stroke-width="2px" d="M24.611576704545453,160.9090909090909L24.855255681818182,160.9090909090909L25.09893465909091,160.9090909090909L25.342613636363637,160.9090909090909L25.586292613636363,160.9090909090909L25.82997159090909,160.9090909090909L26.07365056818182,160.9090909090909L26.317329545454545,160.9090909090909L26.561008522727274,160.9090909090909L26.8046875,160.9090909090909L27.048366477272726,160.9090909090909L27.292045454545455,160.9090909090909L27.53572443181818,160.9090909090909L27.77940340909091,160.9090909090909L28.023082386363633,160.9090909090909L28.266761363636363,160.9090909090909L28.510440340909092,160.9090909090909L28.754119318181818,160.9090909090909L28.997798295454547,160.9090909090909L29.24147727272727,160.9090909090909L29.48515625,160.9090909090909L29.72883522727273,160.9090909090909L29.972514204545455,160.9090909090909L30.216193181818184,160.9090909090909L30.459872159090907,160.9090909090909L30.703551136363636,160.9090909090909L30.947230113636362,160.9090909090909L31.19090909090909,160.9090909090909L31.43458806818182,160.9090909090909L31.678267045454543,160.9090909090909L31.921946022727273,160.9090909090909L32.165625,160.9090909090909L32.40930397727273,160.9090909090909L32.65298295454545,160.9090909090909L32.89666193181818,160.9090909090909L33.14034090909091,160.9090909090909L33.38401988636364,160.9090909090909L33.62769886363636,160.9090909090909L33.87137784090909,160.9090909090909L34.11505681818181,160.9090909090909L34.35873579545454,160.9090909090909L34.60241477272727,160.9090909090909L34.84609375,160.9090909090909L35.08977272727273,160.9090909090909L35.33345170454545,160.9090909090909L35.57713068181818,160.9090909090909L35.82080965909091,160.9090909090909L36.064488636363635,160.9090909090909L36.308167613636364,160.9090909090909L36.551846590909086,160.9090909090909L36.795525568181816,160.9090909090909L37.039204545454545,160.9090909090909L37.282883522727275,160.9090909090909L37.526562500000004,160.9090909090909L37.77024147727273,160.9090909090909L38.013920454545456,160.9090909090909L38.257599431818186,160.9090909090909L38.501278409090915,160.9090909090909L38.74495738636363,160.9090909090909L38.98863636363636,160.9090909090909L39.23231534090909,160.9090909090909L39.47599431818182,160.9090909090909L39.71967329545455,160.9090909090909L39.96335227272727,160.9090909090909L40.20703125,160.9090909090909L40.45071022727273,160.9090909090909L40.69438920454546,160.9090909090909L40.93806818181819,160.9090909090909L41.181747159090904,160.9090909090909L41.42542613636363,160.9090909090909L41.66910511363636,160.9090909090909L41.91278409090909,160.9090909090909L42.15646306818182,160.9090909090909L42.400142045454544,160.9090909090909L42.64382102272727,160.9090909090909L42.8875,160.9090909090909L43.13117897727273,160.9090909090909L43.374857954545455,160.9090909090909L43.61853693181818,160.9090909090909L43.86221590909091,160.9090909090909L44.105894886363636,160.9090909090909L44.349573863636365,160.9090909090909L44.59325284090909,160.9090909090909L44.83693181818182,160.9090909090909L45.08061079545455,160.9090909090909L45.324289772727276,160.9090909090909L45.567968750000006,160.9090909090909L45.81164772727273,160.9090909090909L46.05532670454545,160.9090909090909L46.29900568181818,160.9090909090909L46.54268465909091,160.9090909090909L46.78636363636364,160.9090909090909L47.03004261363636,160.9090909090909L47.27372159090909,160.9090909090909L47.51740056818182,160.9090909090909L47.76107954545455,160.9090909090909L48.00475852272727,160.9090909090909L48.2484375,160.9090909090909L48.492116477272724,160.9090909090909L48.73579545454545,160.9090909090909L48.97947443181818,160.9090909090909L49.223153409090905,160.9090909090909L49.466832386363635,160.9090909090909L49.710511363636364,160.9090909090909L49.95419034090909,160.9090909090909L50.19786931818182,160.9090909090909L50.441548295454545,160.9090909090909L50.685227272727275,160.9090909090909L50.92890625,160.9090909090909L51.17258522727273,160.9090909090909L51.41626420454545,160.9090909090909L51.65994318181818,160.9090909090909L51.90362215909091,160.9090909090909L52.14730113636364,160.9090909090909L52.39098011363637,160.9090909090909L52.63465909090909,160.9090909090909L52.87833806818182,160.9090909090909L53.12201704545455,160.9090909090909L53.36569602272728,160.9090909090909L53.609375,160.9090909090909L53.85305397727272,160.9090909090909L54.09673295454545,160.9090909090909L54.34041193181818,160.9090909090909L54.58409090909091,160.9090909090909L54.82776988636364,160.9090909090909L55.07144886363636,160.9090909090909L55.31512784090909,160.9090909090909L55.55880681818182,160.9090909090909L55.80248579545455,160.9090909090909L56.046164772727266,160.9090909090909L56.289843749999996,160.9090909090909L56.533522727272725,160.9090909090909L56.777201704545455,160.9090909090909L57.020880681818184,160.9090909090909L57.26455965909091,160.9090909090909L57.508238636363636,160.9090909090909L57.751917613636365,160.9090909090909L57.995596590909095,160.9090909090909L58.239275568181824,160.9090909090909L58.48295454545454,160.9090909090909L58.72663352272727,160.9090909090909L58.9703125,160.9090909090909L59.21399147727273,160.9090909090909L59.45767045454546,160.9090909090909L59.70134943181818,160.9090909090909L59.94502840909091,160.9090909090909L60.18870738636364,160.9090909090909L60.43238636363637,160.9090909090909L60.67606534090909,160.9090909090909L60.91974431818181,160.9090909090909L61.16342329545454,160.9090909090909L61.40710227272727,160.9090909090909L61.65078125,160.9090909090909L61.894460227272724,160.9090909090909L62.13813920454545,160.9090909090909L62.38181818181818,160.9090909090909L62.62549715909091,160.9090909090909L62.86917613636364,160.9090909090909L63.112855113636364,160.9090909090909L63.356534090909086,160.9090909090909L63.600213068181816,160.9090909090909L63.843892045454545,160.9090909090909L64.08757102272727,160.9090909090909L64.33125,160.9090909090909L64.57492897727272,160.9090909090909L64.81860795454546,160.9090909090909L65.06228693181818,160.9090909090909L65.3059659090909,160.9090909090909L65.54964488636364,160.9090909090909L65.79332386363636,160.9090909090909L66.0370028409091,160.9090909090909L66.28068181818182,160.9090909090909L66.52436079545454,160.9090909090909L66.76803977272728,160.9090909090909L67.01171875,160.9090909090909L67.25539772727272,160.9090909090909L67.49907670454546,160.9090909090909L67.74275568181818,160.9090909090909L67.98643465909092,160.9090909090909L68.23011363636363,160.9090909090909L68.47379261363636,160.9090909090909L68.71747159090908,160.9090909090909L68.96115056818182,160.9090909090909L69.20482954545454,160.9090909090909L69.44850852272728,160.9090909090909L69.6921875,160.9090909090909L69.93586647727273,160.9090909090909L70.17954545454546,160.9090909090909L70.42322443181818,160.9090909090909L70.6669034090909,160.9090909090909L70.91058238636363,160.9090909090909L71.15426136363637,160.9090909090909L71.39794034090909,160.9090909090909L71.64161931818182,160.9090909090909L71.88529829545455,160.9090909090909L72.12897727272727,160.9090909090909L72.37265625,160.9090909090909L72.61633522727273,160.9090909090909L72.86001420454545,160.9090909090909L73.10369318181817,160.9090909090909L73.34737215909091,160.9090909090909L73.59105113636363,160.9090909090909L73.83473011363637,160.9090909090909L74.07840909090909,160.9090909090909L74.32208806818183,160.9090909090909L74.56576704545455,160.9090909090909L74.80944602272727,160.9090909090909L75.05312500000001,160.9090909090909L75.29680397727272,160.9090909090909L75.54048295454545,160.9090909090909L75.78416193181818,160.9090909090909L76.02784090909091,160.9090909090909L76.27151988636363,160.9090909090909L76.51519886363637,160.9090909090909L76.7588778409091,160.9090909090909L77.00255681818183,144.35054964426405L77.24623579545455,144.43539674533525L77.48991477272726,144.51946239155106L77.73359375,144.60275728790418L77.97727272727272,144.68529194475173L78.22095170454546,144.76707668221871L78.46463068181818,144.84812163448245L78.70830965909092,144.928436753942L78.95198863636364,145.00803181527544L79.19566761363637,145.08691641938952L79.4393465909091,145.16509999726398L79.68302556818182,145.24259181369433L79.92670454545454,145.31940097093664L80.17038352272726,145.39553641225595L80.4140625,145.471006925383L80.65774147727272,145.5458211458804L80.90142045454546,145.61998756042252L81.14509943181818,145.69351450999017L81.38877840909092,145.76641019298395L81.63245738636364,145.8386826682577L81.87613636363638,145.91033985807502L82.11981534090908,145.98138955099114L82.36349431818181,146.05183940466162L82.60717329545454,146.12169694858102L82.85085227272727,146.19096958675283L83.09453125,146.25966460029304L83.33821022727273,146.32778914996928L83.58188920454546,146.39535027867686L83.82556818181818,146.46235491385443L84.06924715909092,146.52880986984L84.31292613636364,146.59472185016998L84.55660511363635,146.660097449822L84.80028409090909,146.72494315740357L85.04396306818181,146.78926535728812L85.28764204545455,146.8530703316995L85.53132102272727,146.9163642627472L85.775,146.97915323441228L86.01867897727273,147.04144323448693L86.26235795454546,147.10324015646802L86.50603693181819,147.16454980140583L86.74971590909091,147.22537787970975L86.99339488636363,147.28573001291173L87.23707386363635,147.34561173538867L87.48075284090909,147.405028496045L87.72443181818181,147.4639856599563L87.96811079545455,147.52248850997537L88.21178977272727,138.27633967544935L88.45546875000001,138.37416481508205L88.69914772727273,138.4712446003965L88.94282670454547,138.56758746958928L89.18650568181818,138.6632017339679L89.4301846590909,125.03036149855642L89.67386363636363,125.18291050371937L89.91754261363636,125.33431855382048L90.1612215909091,125.48459832649985L90.40490056818182,125.63376231227507L90.64857954545455,125.78182281798085L90.89225852272727,125.92879197013343L91.13593750000001,126.07468171822087L91.37961647727272,126.21950383792172L91.62329545454546,126.36326993425392L91.86697443181818,126.50599144465514L92.1106534090909,126.64767964199694L92.35433238636364,126.7883456375339L92.59801136363636,126.92800038378961L92.8416903409091,127.06665467738122L93.08536931818182,127.20431916178362L93.32904829545456,127.34100433003506L93.57272727272728,127.47672052738592L93.81640625,127.61147795389121L94.06008522727272,127.74528666694913L94.30376420454544,127.87815658378629L94.54744318181818,128.01009748389131L94.7911221590909,115.32458410523057L95.03480113636364,115.50558633946955L95.27848011363636,115.68533588747583L95.5221590909091,115.86384561981595L95.76583806818182,103.37547010345419L96.00951704545454,103.60123988848741L96.25319602272727,103.82546804829157L96.496875,104.048170208091L96.74055397727273,104.26936178267137L96.98423295454545,104.4890579799106L97.22791193181818,104.70727380423884L97.4715909090909,104.92402406002938L97.71526988636364,105.13932335492164L97.95894886363637,105.35318610307856L98.2026278409091,105.56562652837914L98.44630681818181,105.77665866754813L98.68998579545455,105.98629637322426L98.93366477272727,106.19455331696798L99.17734375,106.40144299221082L99.42102272727273,106.60697871714692L99.66470170454545,106.81117363756863L99.90838068181819,107.01404072964733L100.15205965909091,107.21559280266027L100.39573863636365,107.41584250166518L100.63941761363635,107.61480231012368L100.88309659090909,107.81248455247442L101.12677556818181,108.00890139665721L101.37045454545455,108.20406485658935L101.61413352272727,108.39798679459489L101.8578125,108.59067892378836L102.10149147727273,108.7821528104132L102.34517045454545,108.97241987613694L102.58884943181819,109.16149140030284L102.8325284090909,109.3493785221402L103.07620738636363,109.53609224293307L103.31988636363636,109.72164342814918L103.5635653409091,109.90604280952927L103.80724431818182,110.08930098713834L104.05092329545455,110.27142843137878L104.29460227272727,110.4524354849672L104.53828125,110.63233236487474L104.78196022727273,110.81112916423233L105.02563920454546,110.98883585420154L105.26931818181818,111.16546228581123L105.5129971590909,111.34101819176158L105.75667613636364,111.51551318819529L106.00035511363636,111.68895677643738L106.2440340909091,111.86135834470372L106.48771306818182,112.03272716977918L106.73139204545456,112.20307241866611L106.97507102272728,112.3724031502034L107.21875,112.54072831665732L107.46242897727272,112.70805676528397L107.70610795454544,112.87439723986465L107.94978693181818,113.03975838221419L108.1934659090909,113.20414873366308L108.43714488636364,113.36757673651358L108.68082386363636,113.53005073547098L108.9245028409091,113.69157897904981L109.16818181818182,113.85216962095582L109.41186079545454,114.01183072144447L109.65553977272728,114.17057024865566L109.89921874999999,114.32839607992618L110.14289772727273,114.48531600307929L110.38657670454545,114.64133771769286L110.63025568181818,114.79646883634555L110.8739346590909,114.95071688584225L111.11761363636364,115.10408930841889L111.36129261363637,115.25659346292657L111.6049715909091,115.4082366259965L111.84865056818182,115.55902599318483L112.09232954545453,115.7089686800989L112.33600852272727,115.85807172350451L112.57968749999999,116.00634208241475L112.82336647727273,116.1537866391612L113.06704545454545,116.30041220044708L113.31072443181819,116.44622549838333L113.55440340909091,116.59123319150767L113.79808238636365,116.73544186578677L114.04176136363637,116.87885803560248L114.28544034090909,117.02148814472177L114.52911931818181,117.16333856725085L114.77279829545454,117.30441560857417L115.01647727272727,117.44472550627803L115.26015625,117.58427443105928L115.50383522727273,117.72306848761986L115.74751420454545,117.86111371554634L115.99119318181819,117.9984160901762L116.23487215909091,118.13498152344968L116.47855113636365,118.27081586474844L116.72223011363636,118.40592490172092L116.96590909090908,108.36484379411253L117.20958806818182,108.5306234464797L117.45326704545454,98.56383897775034L117.69694602272727,88.64973069809L117.940625,88.87624947714805L118.18430397727273,79.03470546110589L118.42798295454546,79.29027480521388L118.67166193181819,79.54450704556804L118.91534090909092,79.79741252185629L119.15901988636362,80.04900146744896L119.40269886363636,80.29928401076192L119.64637784090908,80.54827017659855L119.89005681818182,70.8764257783604L120.13373579545454,71.15336076888435L120.37741477272728,71.42887197977481L120.62109375,71.70297022595958L120.86477272727274,71.97566621312835L121.10845170454546,72.24697053910813L121.35213068181818,72.51689369521877L121.5958096590909,72.78544606760724L121.83948863636363,73.05263793856254L122.08316761363636,73.31847948781054L122.32684659090908,73.58298079378967L122.57052556818182,73.84615183490776L122.81420454545454,74.10800249077968L123.05788352272728,74.36854254344739L123.3015625,74.62778167858129L123.54524147727274,74.88572948666435L123.78892045454545,75.14239546415847L124.03259943181817,75.39778901465395L124.2762784090909,75.65191945000203L124.51995738636363,75.90479599143107L124.76363636363637,76.15642777064618L125.00731534090909,76.40682383091304L125.25099431818182,76.65599312812611L125.49467329545455,76.90394453186126L125.73835227272728,77.1506868264132L125.98203124999999,77.39622871181811L126.22571022727273,77.64057880486146L126.46938920454545,77.88374564007147L126.71306818181817,78.12573767069838L126.95674715909091,78.36656326967973L127.20042613636363,78.6062307305919L127.44410511363637,78.84474826858828L127.68778409090909,79.08212402132392L127.93146306818183,79.31836604986742L128.17514204545455,79.55348233959973L128.41882102272726,79.78748080110054L128.6625,80.02036927102192L128.90617897727273,80.25215551295021L129.14985795454544,80.48284721825539L129.39353693181818,80.71245200692897L129.6372159090909,80.94097742841018L129.88089488636365,72.01494720858612L130.12457386363636,72.26732361733835L130.3682528409091,72.51852154286127L130.6119318181818,63.66538198299486L130.85561079545454,63.93995003228117L131.09928977272727,64.21324448378518L131.34296875,64.48527404263804L131.58664772727272,64.75604733483696L131.83032670454546,65.02557290814264L132.0740056818182,65.29385923296421L132.3176846590909,65.56091470323229L132.56136363636364,65.82674763726018L132.80504261363637,66.09136627859364L133.04872159090908,66.35477879684888L133.29240056818182,66.6169932885397L133.53607954545456,66.87801777789326L133.77975852272726,67.13786021765507L134.0234375,67.39652848988324L134.2671164772727,67.65403040673216L134.51079545454544,67.91037371122576L134.75447443181818,68.16556607802053L134.99815340909092,68.41961511415847L135.24183238636363,68.6725283598101L135.48551136363636,68.92431328900777L135.7291903409091,69.17497731036907L135.97286931818184,60.66989207827435L136.21654829545454,60.94211117235044L136.46022727272725,52.48849446128774L136.70390625,46.975439300345535L136.94758522727273,41.48667084846579L137.19126420454546,33.12865857086598L137.43494318181817,24.807312719008642L137.6786221590909,25.173166879492612L137.92230113636364,25.53742269269208L138.16598011363638,25.900090428970167L138.4096590909091,26.26118027091448L138.6533380681818,26.620702314272854L138.89701704545456,18.40015827206305L139.14069602272727,18.779403836766416L139.384375,19.15701286484309L139.6280539772727,19.532995738790884L139.87173295454545,19.907362753497107L140.1154119318182,20.2801241171609L140.35909090909092,20.65128995220366L140.60276988636363,21.02087029616839L140.84644886363637,21.388875102607223L141.0901278409091,21.755314241958587L141.3338068181818,22.120197502412594L141.57748579545455,22.483534590766176L141.82116477272726,22.845335133267305L142.06484375,23.205608676449057L142.30852272727273,23.564364687952935L142.55220170454547,23.921612557342026L142.79588068181818,24.27736159690474L143.0395596590909,24.631621042447705L143.28323863636365,24.984400054079714L143.52691761363636,25.335707716985482L143.7705965909091,25.68555304219037L144.0142755681818,26.033944967315474L144.25795454545454,26.38089235732371L144.50163352272727,26.726404005256438L144.7453125,27.070488632961762L144.98899147727272,27.41315489181349L145.23267045454546,27.7544113634214L145.4763494318182,28.09426656033342L145.7200284090909,28.432728926728768L145.96370738636364,28.769806839103058L146.20738636363635,29.105508606945193L146.4510653409091,29.439842473406067L146.69474431818182,29.77281661595929L146.93842329545456,30.104439147054002L147.18210227272726,30.434718114760095L147.42578125,30.76366150340537L147.66946022727274,31.091277234205773L147.91313920454544,31.417573165887365L148.15681818181818,31.742557095301787L148.4004971590909,32.06623675803372L148.64417613636365,32.388619829001804L148.88785511363636,27.349534347457276L149.1315340909091,27.68271879597097L149.3752130681818,28.014576054946495L149.61889204545454,28.34511387350199L149.86257102272728,28.674339940573653L150.10625000000002,21.021663493539215L150.34992897727273,21.368050305401802L150.59360795454543,21.71307008807735L150.8372869318182,22.056730746516685L151.0809659090909,22.399040124868783L151.32464488636364,22.740006007064327L151.56832386363635,15.169100654699172L151.8120028409091,15.526819045109244L152.05568181818182,10.624777202984959L152.29936079545456,10.992580220435007L152.54303977272727,11.358952802841282L152.78671874999998,11.723903096434324L153.03039772727274,12.087439185736903L153.27407670454545,12.449569094146952L153.5177556818182,12.81030078451441L153.7614346590909,13.169642159711248L154.00511363636366,13.52760106319528L154.24879261363637,13.884185279567445L154.4924715909091,14.239402535122775L154.7361505681818,6.829016391460872L154.97982954545452,7.200228406542594L155.2235085227273,7.570024969262267L155.4671875,7.938413975986037L155.71086647727273,0.5847192785341383L155.95454545454544,0.9688133087156654L156.1982244318182,1.3514530908932634L156.4419034090909,1.7326466780948164L156.68558238636365,2.1124020640322168L156.92926136363636,2.4907271836463045L157.17294034090907,2.8676299136460512L157.41661931818183,3.243118073041945L157.66029829545454,3.617199423673422L157.90397727272727,3.989881670730304L158.14765624999998,4.361172463268952L158.39133522727275,4.731079394722342L158.63501420454546,5.099610003404923L158.8786931818182,5.466771773012079L159.1223721590909,5.832572133113569L159.36605113636364,6.197018459642265L159.60973011363637,6.5601180753774635L159.85340909090908,6.921878250422604L160.09708806818182,7.282306202678228L160.34076704545453,7.641409098309982L160.5844460227273,7.999194052210971L160.828125,8.355668128459834L161.07180397727274,8.710838340773451L161.31548295454544,9.064711652955078L161.55916193181818,9.41729497933781L161.80284090909092,9.768595185222718L162.04651988636363,10.118619087313183L162.29019886363636,10.467373454143901L162.53387784090907,10.814865006505785L162.77755681818184,11.161100417866356L163.02123579545454,11.506086314785284L163.26491477272728,11.849829277326148L163.50859375,12.192335839463432L163.75227272727275,12.533612489485408L163.99595170454546,12.873665670392851L164.23963068181817,13.21250178029338L164.4833096590909,13.550127172792171L164.72698863636361,13.886548157377806L164.97066761363638,14.221770999804882L165.2143465909091,14.555801922472224L165.45802556818182,14.888647104797299L165.70170454545453,15.220312683586737L165.9453835227273,15.550804753402996L166.1890625,15.880129366927468L166.4327414772727,16.208292535319252L166.67642045454545,16.535300228571213L166.92009943181816,16.861158375861283L167.16377840909092,17.18587286590107L167.40745738636363,17.5094495472804L167.65113636363637,17.83189422880859L167.89481534090908,18.15321267985182L168.13849431818184,18.473410630667946L168.38217329545455,18.792493772736915L168.6258522727273,19.110467759088383L168.86953125,19.427338204625954L169.1132102272727,19.743110686448155L169.35688920454547,20.05779074416604L169.60056818181818,20.37138388021774L169.8442471590909,20.683895560179696L170.08792613636362,20.99533121307493L170.33160511363639,21.305696231678244L170.5752840909091,21.61499597281811L170.81896306818183,21.923235757675887L171.06264204545454,22.230420872081694L171.30632102272725,22.53655656680781L171.55,22.841648057858663L171.79367897727272,23.145700526758215L172.03735795454546,23.448719120834493L172.28103693181816,23.750708953501295L172.52471590909093,16.990030155526043L172.76839488636364,17.305454529857094L173.01207386363637,10.574986840008307L173.25575284090908,10.903687909088648L173.49943181818182,11.231281602788366L173.74311079545456,11.557773344590338L173.98678977272726,11.883168522651319L174.23046875,12.207472490089152L174.4741477272727,12.53069056526713L174.71782670454547,12.852828032075637L174.96150568181818,13.173890140211086L175.20518465909092,13.493882105451988L175.44886363636363,13.81280910993276L175.69254261363636,14.130676302414315L175.9362215909091,14.447488798552468L176.1799005681818,14.763251681163721L176.42357954545454,15.077970000488119L176.66725852272725,15.39164877445014L176.91093750000002,15.704292988916704L177.15461647727273,16.015907597952722L177.39829545454546,16.32649752407443L177.64197443181817,16.6360676585001L177.88565340909093,16.944622861398425L178.12933238636364,17.252167962134628L178.37301136363635,17.558707759514018L178.6166903409091,17.864247022023577L178.8603693181818,18.168790488070794L179.10404829545456,18.472342866220824L179.34772727272727,18.774908835430768L179.59140625,19.076493045282383L179.8350852272727,19.377100116212056L180.07876420454548,19.676734639739017L180.3224431818182,19.97540117869104L180.5661221590909,20.273104267428547L180.80980113636363,20.56984841206606L181.05348011363634,16.34371451373838L181.2971590909091,16.648074381941797L181.5408380681818,16.9514581244376L181.78451704545455,17.25387027845508L182.02819602272726,17.55531535317853L182.27187500000002,17.8557978299634L182.51555397727273,18.155322162550892L182.75923295454544,18.453892777280284L183.00291193181818,18.751514073299507L183.2465909090909,19.04819042277349L183.49026988636365,19.34392617109083L183.73394886363636,19.638725637068625L183.9776278409091,19.932593113155097L184.2213068181818,20.225532865630793L184.46498579545457,20.51754913480744L184.70866477272727,20.80864613522569L184.95234374999998,21.098828055850134L185.19602272727272,21.38809906026352L185.43970170454546,21.676463286858557L185.6833806818182,21.963924849028004L185.9270596590909,22.250487835353525L186.17073863636364,22.53615630979232L186.41441761363635,22.820934311862263L186.6580965909091,23.104825856825425L186.90177556818182,23.38783493586998L187.14545454545456,23.66996551629021L187.38913352272726,23.95122154166523L187.6328125,24.231606932035916L187.87649147727274,24.511125584080325L188.12017045454544,24.789781371287415L188.36384943181818,25.067578144129502L188.6075284090909,25.344519730232783L188.85120738636365,25.62060993454688L189.09488636363636,25.895852539512205L189.3385653409091,26.170251305226394L189.5822443181818,26.44380996960916L189.82592329545454,26.716532248565336L190.06960227272728,26.98842183614699L190.31328125,27.2594824047138L190.55696022727273,27.529717605091985L190.80063920454546,27.799131066732063L191.0443181818182,28.06772639786505L191.2879971590909,28.335507185657367L191.53167613636364,28.602476996364366L191.77535511363635,28.868639375482516L192.0190340909091,29.133997847900233L192.26271306818182,29.398555918047474L192.50639204545453,29.662317070043898L192.75007102272727,29.92528476784598L192.99375,30.18746245539257L193.23742897727274,30.44885355674935L193.48110795454545,30.709461476252027L193.7247869318182,30.969289598648235L193.9684659090909,31.228341289238315L194.21214488636363,31.486619894014787L194.45582386363637,31.744128739800534L194.69950284090908,32.0008711343862L194.9431818181818,32.25685036666585L195.18686079545455,32.5120697067719L195.4305397727273,28.514578845966568L195.67421875,28.776706575294437L195.91789772727273,29.038059219128158L196.16157670454544,29.298640079939773L196.4052556818182,29.558452441495934L196.6489346590909,29.817499568989753L196.89261363636362,30.075784709172297L197.13629261363636,30.33331109048271L197.3799715909091,30.590081923176847L197.62365056818183,30.8461003994553L197.86732954545454,31.10136969359031L198.11100852272727,31.355892962051346L198.3546875,31.609673343629733L198.59836647727275,31.86271395956239L198.84204545454546,32.115017913654334L199.08572443181816,32.36658829240031L199.3294034090909,32.617428165105345L199.57308238636364,26.593498905959947L199.81676136363637,26.8551069294794L200.06044034090908,27.115958204288642L200.30411931818182,27.376055879204035L200.54779829545456,21.385066125053907L200.7914772727273,21.65579392401956L201.03515625,21.925742560964192L201.2788352272727,22.194915260201327L201.52251420454544,22.463315228309757L201.76619318181818,22.73094565425525L202.00987215909092,22.997809709511486L202.25355113636363,23.263910548179634L202.49723011363636,23.529251307107458L202.7409090909091,23.793835106006952L202.98458806818184,24.057665047571238L203.22826704545454,24.320744217590665L203.47194602272725,24.583075685067595L203.715625,24.844662502330586L203.95930397727273,25.10550770514739L204.20298295454546,25.365614312837277L204.44666193181817,25.62498532838222L204.6903409090909,25.883623738537324L204.93401988636364,26.14153251394029L205.17769886363638,26.39871460922011L205.4213778409091,26.655172963104633L205.6650568181818,26.910910498527514L205.90873579545456,27.165930122734316L206.15241477272727,27.420234727387417L206.39609375,27.673827188670575L206.6397727272727,27.926710367392136L206.88345170454545,28.178887109087885L207.1271306818182,28.430360244122788L207.37080965909092,28.681132587791847L207.61448863636363,28.931206940420562L207.85816761363637,29.180586087464146L208.1018465909091,29.429272799606125L208.3455255681818,29.677269832856318L208.58920454545455,29.924579928647713L208.83288352272726,30.171205813932733L209.0765625,30.417150201278982L209.32024147727273,30.662415788963735L209.56392045454547,30.907005261068072L209.80759943181818,31.150921287570185L210.0512784090909,31.39416652443789L210.29495738636365,31.63674361372031L210.53863636363636,31.878655183639104L210.7823153409091,32.11990384867885L211.0259943181818,32.36049220967658L211.26967329545454,32.600422853910935L211.51335227272727,32.83969835519021L211.75703125,33.07832127394008L212.00071022727272,33.316294157290514L212.24438920454546,33.55361953916194L212.4880681818182,33.790299940350664L212.7317471590909,34.0263378686141L212.97542613636364,28.29123640077777L213.21910511363635,28.537064098512758L213.4627840909091,28.782226832303373L213.70646306818182,29.02672717438932L213.95014204545456,29.27056768379095L214.19382102272726,29.51375090639371L214.4375,29.75627937503262L214.68117897727274,29.998155609575615L214.92485795454544,30.2393821170067L215.16853693181818,30.47996139150794L215.4122159090909,30.719895914541432L215.65589488636365,30.959188154929876L215.89957386363636,31.19784056893741L216.1432528409091,31.435855600349125L216.3869318181818,31.67323568055041L216.63061079545454,31.90998322860529L216.87428977272728,32.14610065133476L217.11796875000002,32.38159034339386L217.36164772727273,32.61645468734865L217.60532670454543,26.97482251473394L217.8490056818182,21.348137760694133L218.0926846590909,15.736343904373443L218.33636363636364,16.000751175055868L218.58004261363635,16.264460281402553L218.8237215909091,16.527473853545025L219.06740056818182,16.789794508453344L219.31107954545456,17.05142485001856L219.55475852272727,17.312367469134355L219.79843749999998,17.572624943778077L220.04211647727274,17.83219983909098L220.28579545454545,18.09109470745833L220.5294744318182,18.349312088588313L220.7731534090909,18.60685450959104L221.01683238636366,18.863724485056313L221.26051136363637,19.119924517131135L221.5041903409091,19.375457095596733L221.7478693181818,19.63032469794479L221.99154829545452,19.884529789453282L222.2352272727273,20.138074823261537L222.47890625,20.390962240445056L222.72258522727273,20.643194470089536L222.96626420454544,20.894773929364412L223.2099431818182,21.14570302359588L223.4536221590909,21.39598414633935L223.69730113636365,21.645619679451524L223.94098011363636,18.058705115097528L224.18465909090907,18.31390947328698L224.42833806818183,18.568457699060353L224.67201704545454,18.822352192640206L224.91569602272727,19.075595342589168L225.15937499999998,19.32818952588059L225.40305397727275,19.58013710796872L225.64673295454546,19.831440442858618L225.8904119318182,20.082101873175198L226.1340909090909,20.33212373023197L226.37776988636364,20.581508334099404L226.62144886363637,20.83025799367246L226.86512784090908,15.378115776915475L227.10880681818182,15.635691330004766L227.35248579545453,15.892613194988204L227.5961647727273,16.14888372905462L227.83984375,16.40450527810684L228.08352272727274,16.659480176828954L228.32720170454544,16.91381074875356L228.57088068181818,17.167499306328093L228.81455965909092,17.420548150981098L229.05823863636363,17.67295957318764L229.30191761363636,17.924735852534482L229.54559659090907,18.17587925778468L229.78927556818184,18.426392046941945L230.03295454545454,18.67627646731427L230.27663352272728,18.925534755577036L230.5203125,19.174169137836238L230.76399147727275,19.422181829690537L231.00767045454546,19.669575036293434L231.25134943181817,19.916350952414554L231.4950284090909,20.162511762500937L231.73870738636361,20.4080596407376L231.98238636363638,20.652996751107707L232.2260653409091,20.897325247452407L232.46974431818182,21.141047273530383L232.71342329545453,21.38416496307635L232.9571022727273,21.626680439860163L233.20078125,21.86859581774454L233.4444602272727,22.10991320074296L233.68813920454545,22.350634683076976L233.93181818181816,22.590762349233177L234.17549715909092,22.830298274019537L234.41917613636363,23.06924452262185L234.66285511363637,23.307603150659162L234.90653409090908,23.545376204239357L235.15021306818184,23.782565720014095L235.39389204545455,24.01917372523321L235.6375710227273,24.25520223779923L235.88125,24.490653266321004L236.1249289772727,24.72552881016725L236.36860795454547,24.959830859519556L236.61228693181818,25.19356139542535L236.8559659090909,25.426722389849967L237.09964488636362,25.659315805728934L237.34332386363639,25.89134359701942L237.5870028409091,26.122807708751637L237.83068181818183,26.353710077079835L238.07436079545454,26.584052629332774L238.31803977272725,26.81383728406406L238.56171875,27.043065951102022L238.80539772727272,27.27174053159939L239.04907670454546,27.499862918082332L239.29275568181816,27.727434994499546L239.53643465909093,27.954458636270694L239.78011363636364,22.699032676732177L240.02379261363637,19.28226320816514L240.26747159090908,19.523173888894746L240.51115056818182,19.763506295827035L240.75482954545456,20.003262388715005L240.99850852272726,20.242444118499478L241.2421875,20.48105342735869L241.4858664772727,20.719092248757267L241.72954545454547,20.956562507495363L241.97322443181818,21.193466119756792L242.21690340909092,21.429804993157546L242.46058238636363,21.66558102679353L242.70426136363636,21.90079611128801L242.9479403409091,22.135452128839L243.1916193181818,22.3695509532661L243.43529829545454,22.603094450057025L243.67897727272725,17.414741325455623L243.92265625000002,17.65630626699678L244.16633522727273,17.89729984106814L244.41001420454546,18.13772395224657L244.65369318181817,18.377580496687173L244.89737215909093,18.616871362170013L245.14105113636364,18.855598428146283L245.38473011363635,13.698199526599096L245.6284090909091,13.94484461874299L245.8720880681818,14.190910262306112L246.11576704545456,14.436398374136362L246.35944602272727,14.681310862670804L246.603125,14.925649627982233L246.8468039772727,15.16941656182455L247.09048295454548,15.412613547678486L247.3341619318182,15.655242460796806L247.5778409090909,15.897305168249167L247.82151988636363,16.138803528966665L248.06519886363634,16.379739393786394L248.3088778409091,16.620114605495157L248.5525568181818,16.859930998873427L248.79623579545455,17.099190400738852L249.03991477272726,17.33789462998922L249.28359375000002,17.576045497645538L249.52727272727273,17.81364480689452L249.77095170454544,18.050694353131107L250.01463068181818,18.287195924000347L250.2583096590909,18.52315129943932L250.50198863636365,18.75856225171857L250.74566761363636,18.99343054548347L250.9893465909091,19.227757937795086L251.2330255681818,19.461546178171L251.47670454545457,19.694797008625766L251.72038352272727,19.927512163711082L251.96406249999998,20.159693370555743L252.20774147727272,20.391342348905347L252.45142045454546,20.6224608111617L252.6950994318182,20.85305046242208L252.9387784090909,21.083113000518004L253.18245738636364,21.312650116054165L253.42613636363635,21.541663492446677L253.6698153409091,21.770154805961166L253.91349431818182,21.9981257257511L254.15717329545456,22.22557791389511L254.40085227272726,22.452513025434655L254.64453125,22.678932708411224L254.88821022727274,22.90483860390324L255.13188920454544,23.130232346063014L255.37556818181818,23.355115562153035L255.6192471590909,23.579489872582474L255.86292613636365,23.803356890943068L256.10660511363636,18.78392231750248L256.3502840909091,19.0153153253052L256.59396306818184,19.246186595092187L256.8376420454545,14.243608375059093" style="fill: none;" fill="none"></path></g></g></g></g><g opacity="0.2"><g><g><g><path stroke="rgb(255, 112, 67)" stroke-width="2px" d="M24.611576704545453,160.9090909090909L24.855255681818182,160.9090909090909L25.09893465909091,160.9090909090909L25.342613636363637,160.9090909090909L25.586292613636363,160.9090909090909L25.82997159090909,160.9090909090909L26.07365056818182,160.9090909090909L26.317329545454545,160.9090909090909L26.561008522727274,160.9090909090909L26.8046875,160.9090909090909L27.048366477272726,160.9090909090909L27.292045454545455,160.9090909090909L27.53572443181818,160.9090909090909L27.77940340909091,160.9090909090909L28.023082386363633,160.9090909090909L28.266761363636363,160.9090909090909L28.510440340909092,160.9090909090909L28.754119318181818,160.9090909090909L28.997798295454547,160.9090909090909L29.24147727272727,160.9090909090909L29.48515625,160.9090909090909L29.72883522727273,160.9090909090909L29.972514204545455,160.9090909090909L30.216193181818184,160.9090909090909L30.459872159090907,160.9090909090909L30.703551136363636,160.9090909090909L30.947230113636362,160.9090909090909L31.19090909090909,160.9090909090909L31.43458806818182,160.9090909090909L31.678267045454543,160.9090909090909L31.921946022727273,160.9090909090909L32.165625,160.9090909090909L32.40930397727273,160.9090909090909L32.65298295454545,160.9090909090909L32.89666193181818,160.9090909090909L33.14034090909091,160.9090909090909L33.38401988636364,160.9090909090909L33.62769886363636,160.9090909090909L33.87137784090909,160.9090909090909L34.11505681818181,160.9090909090909L34.35873579545454,160.9090909090909L34.60241477272727,160.9090909090909L34.84609375,160.9090909090909L35.08977272727273,160.9090909090909L35.33345170454545,160.9090909090909L35.57713068181818,160.9090909090909L35.82080965909091,160.9090909090909L36.064488636363635,160.9090909090909L36.308167613636364,160.9090909090909L36.551846590909086,160.9090909090909L36.795525568181816,160.9090909090909L37.039204545454545,160.9090909090909L37.282883522727275,160.9090909090909L37.526562500000004,160.9090909090909L37.77024147727273,160.9090909090909L38.013920454545456,160.9090909090909L38.257599431818186,160.9090909090909L38.501278409090915,160.9090909090909L38.74495738636363,160.9090909090909L38.98863636363636,160.9090909090909L39.23231534090909,160.9090909090909L39.47599431818182,160.9090909090909L39.71967329545455,160.9090909090909L39.96335227272727,160.9090909090909L40.20703125,160.9090909090909L40.45071022727273,160.9090909090909L40.69438920454546,160.9090909090909L40.93806818181819,160.9090909090909L41.181747159090904,160.9090909090909L41.42542613636363,160.9090909090909L41.66910511363636,160.9090909090909L41.91278409090909,160.9090909090909L42.15646306818182,160.9090909090909L42.400142045454544,160.9090909090909L42.64382102272727,160.9090909090909L42.8875,160.9090909090909L43.13117897727273,160.9090909090909L43.374857954545455,160.9090909090909L43.61853693181818,160.9090909090909L43.86221590909091,160.9090909090909L44.105894886363636,160.9090909090909L44.349573863636365,160.9090909090909L44.59325284090909,160.9090909090909L44.83693181818182,160.9090909090909L45.08061079545455,160.9090909090909L45.324289772727276,160.9090909090909L45.567968750000006,160.9090909090909L45.81164772727273,160.9090909090909L46.05532670454545,160.9090909090909L46.29900568181818,160.9090909090909L46.54268465909091,160.9090909090909L46.78636363636364,160.9090909090909L47.03004261363636,160.9090909090909L47.27372159090909,160.9090909090909L47.51740056818182,160.9090909090909L47.76107954545455,160.9090909090909L48.00475852272727,160.9090909090909L48.2484375,160.9090909090909L48.492116477272724,160.9090909090909L48.73579545454545,160.9090909090909L48.97947443181818,160.9090909090909L49.223153409090905,160.9090909090909L49.466832386363635,160.9090909090909L49.710511363636364,160.9090909090909L49.95419034090909,160.9090909090909L50.19786931818182,160.9090909090909L50.441548295454545,160.9090909090909L50.685227272727275,160.9090909090909L50.92890625,160.9090909090909L51.17258522727273,160.9090909090909L51.41626420454545,160.9090909090909L51.65994318181818,160.9090909090909L51.90362215909091,160.9090909090909L52.14730113636364,160.9090909090909L52.39098011363637,160.9090909090909L52.63465909090909,160.9090909090909L52.87833806818182,160.9090909090909L53.12201704545455,160.9090909090909L53.36569602272728,160.9090909090909L53.609375,160.9090909090909L53.85305397727272,160.9090909090909L54.09673295454545,160.9090909090909L54.34041193181818,160.9090909090909L54.58409090909091,160.9090909090909L54.82776988636364,160.9090909090909L55.07144886363636,160.9090909090909L55.31512784090909,160.9090909090909L55.55880681818182,160.9090909090909L55.80248579545455,160.9090909090909L56.046164772727266,160.9090909090909L56.289843749999996,160.9090909090909L56.533522727272725,160.9090909090909L56.777201704545455,160.9090909090909L57.020880681818184,160.9090909090909L57.26455965909091,160.9090909090909L57.508238636363636,160.9090909090909L57.751917613636365,160.9090909090909L57.995596590909095,160.9090909090909L58.239275568181824,160.9090909090909L58.48295454545454,160.9090909090909L58.72663352272727,160.9090909090909L58.9703125,160.9090909090909L59.21399147727273,160.9090909090909L59.45767045454546,160.9090909090909L59.70134943181818,160.9090909090909L59.94502840909091,160.9090909090909L60.18870738636364,160.9090909090909L60.43238636363637,160.9090909090909L60.67606534090909,160.9090909090909L60.91974431818181,160.9090909090909L61.16342329545454,160.9090909090909L61.40710227272727,160.9090909090909L61.65078125,160.9090909090909L61.894460227272724,160.9090909090909L62.13813920454545,160.9090909090909L62.38181818181818,160.9090909090909L62.62549715909091,160.9090909090909L62.86917613636364,160.9090909090909L63.112855113636364,160.9090909090909L63.356534090909086,160.9090909090909L63.600213068181816,160.9090909090909L63.843892045454545,160.9090909090909L64.08757102272727,160.9090909090909L64.33125,160.9090909090909L64.57492897727272,160.9090909090909L64.81860795454546,160.9090909090909L65.06228693181818,160.9090909090909L65.3059659090909,160.9090909090909L65.54964488636364,160.9090909090909L65.79332386363636,160.9090909090909L66.0370028409091,160.9090909090909L66.28068181818182,160.9090909090909L66.52436079545454,160.9090909090909L66.76803977272728,160.9090909090909L67.01171875,160.9090909090909L67.25539772727272,160.9090909090909L67.49907670454546,160.9090909090909L67.74275568181818,160.9090909090909L67.98643465909092,160.9090909090909L68.23011363636363,160.9090909090909L68.47379261363636,160.9090909090909L68.71747159090908,160.9090909090909L68.96115056818182,160.9090909090909L69.20482954545454,160.9090909090909L69.44850852272728,160.9090909090909L69.6921875,160.9090909090909L69.93586647727273,160.9090909090909L70.17954545454546,160.9090909090909L70.42322443181818,160.9090909090909L70.6669034090909,160.9090909090909L70.91058238636363,160.9090909090909L71.15426136363637,160.9090909090909L71.39794034090909,160.9090909090909L71.64161931818182,160.9090909090909L71.88529829545455,160.9090909090909L72.12897727272727,160.9090909090909L72.37265625,160.9090909090909L72.61633522727273,160.9090909090909L72.86001420454545,160.9090909090909L73.10369318181817,160.9090909090909L73.34737215909091,160.9090909090909L73.59105113636363,160.9090909090909L73.83473011363637,160.9090909090909L74.07840909090909,160.9090909090909L74.32208806818183,160.9090909090909L74.56576704545455,160.9090909090909L74.80944602272727,160.9090909090909L75.05312500000001,160.9090909090909L75.29680397727272,160.9090909090909L75.54048295454545,160.9090909090909L75.78416193181818,160.9090909090909L76.02784090909091,160.9090909090909L76.27151988636363,160.9090909090909L76.51519886363637,160.9090909090909L76.7588778409091,160.9090909090909L77.00255681818183,-3057.2727272727266L77.24623579545455,160.9090909090909L77.48991477272726,160.9090909090909L77.73359375,160.9090909090909L77.97727272727272,160.9090909090909L78.22095170454546,160.9090909090909L78.46463068181818,160.9090909090909L78.70830965909092,160.9090909090909L78.95198863636364,160.9090909090909L79.19566761363637,160.9090909090909L79.4393465909091,160.9090909090909L79.68302556818182,160.9090909090909L79.92670454545454,160.9090909090909L80.17038352272726,160.9090909090909L80.4140625,160.9090909090909L80.65774147727272,160.9090909090909L80.90142045454546,160.9090909090909L81.14509943181818,160.9090909090909L81.38877840909092,160.9090909090909L81.63245738636364,160.9090909090909L81.87613636363638,160.9090909090909L82.11981534090908,160.9090909090909L82.36349431818181,160.9090909090909L82.60717329545454,160.9090909090909L82.85085227272727,160.9090909090909L83.09453125,160.9090909090909L83.33821022727273,160.9090909090909L83.58188920454546,160.9090909090909L83.82556818181818,160.9090909090909L84.06924715909092,160.9090909090909L84.31292613636364,160.9090909090909L84.55660511363635,160.9090909090909L84.80028409090909,160.9090909090909L85.04396306818181,160.9090909090909L85.28764204545455,160.9090909090909L85.53132102272727,160.9090909090909L85.775,160.9090909090909L86.01867897727273,160.9090909090909L86.26235795454546,160.9090909090909L86.50603693181819,160.9090909090909L86.74971590909091,160.9090909090909L86.99339488636363,160.9090909090909L87.23707386363635,160.9090909090909L87.48075284090909,160.9090909090909L87.72443181818181,160.9090909090909L87.96811079545455,160.9090909090909L88.21178977272727,-1984.5455184849827L88.45546875000001,160.9090909090909L88.69914772727273,160.9090909090909L88.94282670454547,160.9090909090909L89.18650568181818,160.9090909090909L89.4301846590909,-3057.2727272727266L89.67386363636363,160.9090909090909L89.91754261363636,160.9090909090909L90.1612215909091,160.9090909090909L90.40490056818182,160.9090909090909L90.64857954545455,160.9090909090909L90.89225852272727,160.9090909090909L91.13593750000001,160.9090909090909L91.37961647727272,160.9090909090909L91.62329545454546,160.9090909090909L91.86697443181818,160.9090909090909L92.1106534090909,160.9090909090909L92.35433238636364,160.9090909090909L92.59801136363636,160.9090909090909L92.8416903409091,160.9090909090909L93.08536931818182,160.9090909090909L93.32904829545456,160.9090909090909L93.57272727272728,160.9090909090909L93.81640625,160.9090909090909L94.06008522727272,160.9090909090909L94.30376420454544,160.9090909090909L94.54744318181818,160.9090909090909L94.7911221590909,-3057.2727272727266L95.03480113636364,160.9090909090909L95.27848011363636,160.9090909090909L95.5221590909091,160.9090909090909L95.76583806818182,-3057.2727272727266L96.00951704545454,160.9090909090909L96.25319602272727,160.9090909090909L96.496875,160.9090909090909L96.74055397727273,160.9090909090909L96.98423295454545,160.9090909090909L97.22791193181818,160.9090909090909L97.4715909090909,160.9090909090909L97.71526988636364,160.9090909090909L97.95894886363637,160.9090909090909L98.2026278409091,160.9090909090909L98.44630681818181,160.9090909090909L98.68998579545455,160.9090909090909L98.93366477272727,160.9090909090909L99.17734375,160.9090909090909L99.42102272727273,160.9090909090909L99.66470170454545,160.9090909090909L99.90838068181819,160.9090909090909L100.15205965909091,160.9090909090909L100.39573863636365,160.9090909090909L100.63941761363635,160.9090909090909L100.88309659090909,160.9090909090909L101.12677556818181,160.9090909090909L101.37045454545455,160.9090909090909L101.61413352272727,160.9090909090909L101.8578125,160.9090909090909L102.10149147727273,160.9090909090909L102.34517045454545,160.9090909090909L102.58884943181819,160.9090909090909L102.8325284090909,160.9090909090909L103.07620738636363,160.9090909090909L103.31988636363636,160.9090909090909L103.5635653409091,160.9090909090909L103.80724431818182,160.9090909090909L104.05092329545455,160.9090909090909L104.29460227272727,160.9090909090909L104.53828125,160.9090909090909L104.78196022727273,160.9090909090909L105.02563920454546,160.9090909090909L105.26931818181818,160.9090909090909L105.5129971590909,160.9090909090909L105.75667613636364,160.9090909090909L106.00035511363636,160.9090909090909L106.2440340909091,160.9090909090909L106.48771306818182,160.9090909090909L106.73139204545456,160.9090909090909L106.97507102272728,160.9090909090909L107.21875,160.9090909090909L107.46242897727272,160.9090909090909L107.70610795454544,160.9090909090909L107.94978693181818,160.9090909090909L108.1934659090909,160.9090909090909L108.43714488636364,160.9090909090909L108.68082386363636,160.9090909090909L108.9245028409091,160.9090909090909L109.16818181818182,160.9090909090909L109.41186079545454,160.9090909090909L109.65553977272728,160.9090909090909L109.89921874999999,160.9090909090909L110.14289772727273,160.9090909090909L110.38657670454545,160.9090909090909L110.63025568181818,160.9090909090909L110.8739346590909,160.9090909090909L111.11761363636364,160.9090909090909L111.36129261363637,160.9090909090909L111.6049715909091,160.9090909090909L111.84865056818182,160.9090909090909L112.09232954545453,160.9090909090909L112.33600852272727,160.9090909090909L112.57968749999999,160.9090909090909L112.82336647727273,160.9090909090909L113.06704545454545,160.9090909090909L113.31072443181819,160.9090909090909L113.55440340909091,160.9090909090909L113.79808238636365,160.9090909090909L114.04176136363637,160.9090909090909L114.28544034090909,160.9090909090909L114.52911931818181,160.9090909090909L114.77279829545454,160.9090909090909L115.01647727272727,160.9090909090909L115.26015625,160.9090909090909L115.50383522727273,160.9090909090909L115.74751420454545,160.9090909090909L115.99119318181819,160.9090909090909L116.23487215909091,160.9090909090909L116.47855113636365,160.9090909090909L116.72223011363636,160.9090909090909L116.96590909090908,-3057.2727272727266L117.20958806818182,160.9090909090909L117.45326704545454,-3057.2727272727266L117.69694602272727,-3057.2727272727266L117.940625,160.9090909090909L118.18430397727273,-3057.2727272727266L118.42798295454546,160.9090909090909L118.67166193181819,160.9090909090909L118.91534090909092,160.9090909090909L119.15901988636362,160.9090909090909L119.40269886363636,160.9090909090909L119.64637784090908,160.9090909090909L119.89005681818182,-3057.2727272727266L120.13373579545454,160.9090909090909L120.37741477272728,160.9090909090909L120.62109375,160.9090909090909L120.86477272727274,160.9090909090909L121.10845170454546,160.9090909090909L121.35213068181818,160.9090909090909L121.5958096590909,160.9090909090909L121.83948863636363,160.9090909090909L122.08316761363636,160.9090909090909L122.32684659090908,160.9090909090909L122.57052556818182,160.9090909090909L122.81420454545454,160.9090909090909L123.05788352272728,160.9090909090909L123.3015625,160.9090909090909L123.54524147727274,160.9090909090909L123.78892045454545,160.9090909090909L124.03259943181817,160.9090909090909L124.2762784090909,160.9090909090909L124.51995738636363,160.9090909090909L124.76363636363637,160.9090909090909L125.00731534090909,160.9090909090909L125.25099431818182,160.9090909090909L125.49467329545455,160.9090909090909L125.73835227272728,160.9090909090909L125.98203124999999,160.9090909090909L126.22571022727273,160.9090909090909L126.46938920454545,160.9090909090909L126.71306818181817,160.9090909090909L126.95674715909091,160.9090909090909L127.20042613636363,160.9090909090909L127.44410511363637,160.9090909090909L127.68778409090909,160.9090909090909L127.93146306818183,160.9090909090909L128.17514204545455,160.9090909090909L128.41882102272726,160.9090909090909L128.6625,160.9090909090909L128.90617897727273,160.9090909090909L129.14985795454544,160.9090909090909L129.39353693181818,160.9090909090909L129.6372159090909,160.9090909090909L129.88089488636365,-3057.2727272727266L130.12457386363636,160.9090909090909L130.3682528409091,160.9090909090909L130.6119318181818,-3057.2727272727266L130.85561079545454,160.9090909090909L131.09928977272727,160.9090909090909L131.34296875,160.9090909090909L131.58664772727272,160.9090909090909L131.83032670454546,160.9090909090909L132.0740056818182,160.9090909090909L132.3176846590909,160.9090909090909L132.56136363636364,160.9090909090909L132.80504261363637,160.9090909090909L133.04872159090908,160.9090909090909L133.29240056818182,160.9090909090909L133.53607954545456,160.9090909090909L133.77975852272726,160.9090909090909L134.0234375,160.9090909090909L134.2671164772727,160.9090909090909L134.51079545454544,160.9090909090909L134.75447443181818,160.9090909090909L134.99815340909092,160.9090909090909L135.24183238636363,160.9090909090909L135.48551136363636,160.9090909090909L135.7291903409091,160.9090909090909L135.97286931818184,-3057.2727272727266L136.21654829545454,160.9090909090909L136.46022727272725,-3057.2727272727266L137.43494318181817,-3057.2727272727266L137.6786221590909,160.9090909090909L137.92230113636364,160.9090909090909L138.16598011363638,160.9090909090909L138.4096590909091,160.9090909090909L138.6533380681818,160.9090909090909L138.89701704545456,-3057.2727272727266L139.14069602272727,160.9090909090909L139.384375,160.9090909090909L139.6280539772727,160.9090909090909L139.87173295454545,160.9090909090909L140.1154119318182,160.9090909090909L140.35909090909092,160.9090909090909L140.60276988636363,160.9090909090909L140.84644886363637,160.9090909090909L141.0901278409091,160.9090909090909L141.3338068181818,160.9090909090909L141.57748579545455,160.9090909090909L141.82116477272726,160.9090909090909L142.06484375,160.9090909090909L142.30852272727273,160.9090909090909L142.55220170454547,160.9090909090909L142.79588068181818,160.9090909090909L143.0395596590909,160.9090909090909L143.28323863636365,160.9090909090909L143.52691761363636,160.9090909090909L143.7705965909091,160.9090909090909L144.0142755681818,160.9090909090909L144.25795454545454,160.9090909090909L144.50163352272727,160.9090909090909L144.7453125,160.9090909090909L144.98899147727272,160.9090909090909L145.23267045454546,160.9090909090909L145.4763494318182,160.9090909090909L145.7200284090909,160.9090909090909L145.96370738636364,160.9090909090909L146.20738636363635,160.9090909090909L146.4510653409091,160.9090909090909L146.69474431818182,160.9090909090909L146.93842329545456,160.9090909090909L147.18210227272726,160.9090909090909L147.42578125,160.9090909090909L147.66946022727274,160.9090909090909L147.91313920454544,160.9090909090909L148.15681818181818,160.9090909090909L148.4004971590909,160.9090909090909L148.64417613636365,160.9090909090909L148.88785511363636,-1984.5455184849827L149.1315340909091,160.9090909090909L149.3752130681818,160.9090909090909L149.61889204545454,160.9090909090909L149.86257102272728,160.9090909090909L150.10625000000002,-3057.2727272727266L150.34992897727273,160.9090909090909L150.59360795454543,160.9090909090909L150.8372869318182,160.9090909090909L151.0809659090909,160.9090909090909L151.32464488636364,160.9090909090909L151.56832386363635,-3057.2727272727266L151.8120028409091,160.9090909090909L152.05568181818182,-1984.5455184849827L152.29936079545456,160.9090909090909L152.54303977272727,160.9090909090909L152.78671874999998,160.9090909090909L153.03039772727274,160.9090909090909L153.27407670454545,160.9090909090909L153.5177556818182,160.9090909090909L153.7614346590909,160.9090909090909L154.00511363636366,160.9090909090909L154.24879261363637,160.9090909090909L154.4924715909091,160.9090909090909L154.7361505681818,-3057.2727272727266L154.97982954545452,160.9090909090909L155.2235085227273,160.9090909090909L155.4671875,160.9090909090909L155.71086647727273,-3057.2727272727266L155.95454545454544,160.9090909090909L156.1982244318182,160.9090909090909L156.4419034090909,160.9090909090909L156.68558238636365,160.9090909090909L156.92926136363636,160.9090909090909L157.17294034090907,160.9090909090909L157.41661931818183,160.9090909090909L157.66029829545454,160.9090909090909L157.90397727272727,160.9090909090909L158.14765624999998,160.9090909090909L158.39133522727275,160.9090909090909L158.63501420454546,160.9090909090909L158.8786931818182,160.9090909090909L159.1223721590909,160.9090909090909L159.36605113636364,160.9090909090909L159.60973011363637,160.9090909090909L159.85340909090908,160.9090909090909L160.09708806818182,160.9090909090909L160.34076704545453,160.9090909090909L160.5844460227273,160.9090909090909L160.828125,160.9090909090909L161.07180397727274,160.9090909090909L161.31548295454544,160.9090909090909L161.55916193181818,160.9090909090909L161.80284090909092,160.9090909090909L162.04651988636363,160.9090909090909L162.29019886363636,160.9090909090909L162.53387784090907,160.9090909090909L162.77755681818184,160.9090909090909L163.02123579545454,160.9090909090909L163.26491477272728,160.9090909090909L163.50859375,160.9090909090909L163.75227272727275,160.9090909090909L163.99595170454546,160.9090909090909L164.23963068181817,160.9090909090909L164.4833096590909,160.9090909090909L164.72698863636361,160.9090909090909L164.97066761363638,160.9090909090909L165.2143465909091,160.9090909090909L165.45802556818182,160.9090909090909L165.70170454545453,160.9090909090909L165.9453835227273,160.9090909090909L166.1890625,160.9090909090909L166.4327414772727,160.9090909090909L166.67642045454545,160.9090909090909L166.92009943181816,160.9090909090909L167.16377840909092,160.9090909090909L167.40745738636363,160.9090909090909L167.65113636363637,160.9090909090909L167.89481534090908,160.9090909090909L168.13849431818184,160.9090909090909L168.38217329545455,160.9090909090909L168.6258522727273,160.9090909090909L168.86953125,160.9090909090909L169.1132102272727,160.9090909090909L169.35688920454547,160.9090909090909L169.60056818181818,160.9090909090909L169.8442471590909,160.9090909090909L170.08792613636362,160.9090909090909L170.33160511363639,160.9090909090909L170.5752840909091,160.9090909090909L170.81896306818183,160.9090909090909L171.06264204545454,160.9090909090909L171.30632102272725,160.9090909090909L171.55,160.9090909090909L171.79367897727272,160.9090909090909L172.03735795454546,160.9090909090909L172.28103693181816,160.9090909090909L172.52471590909093,-3057.2727272727266L172.76839488636364,160.9090909090909L173.01207386363637,-3057.2727272727266L173.25575284090908,160.9090909090909L173.49943181818182,160.9090909090909L173.74311079545456,160.9090909090909L173.98678977272726,160.9090909090909L174.23046875,160.9090909090909L174.4741477272727,160.9090909090909L174.71782670454547,160.9090909090909L174.96150568181818,160.9090909090909L175.20518465909092,160.9090909090909L175.44886363636363,160.9090909090909L175.69254261363636,160.9090909090909L175.9362215909091,160.9090909090909L176.1799005681818,160.9090909090909L176.42357954545454,160.9090909090909L176.66725852272725,160.9090909090909L176.91093750000002,160.9090909090909L177.15461647727273,160.9090909090909L177.39829545454546,160.9090909090909L177.64197443181817,160.9090909090909L177.88565340909093,160.9090909090909L178.12933238636364,160.9090909090909L178.37301136363635,160.9090909090909L178.6166903409091,160.9090909090909L178.8603693181818,160.9090909090909L179.10404829545456,160.9090909090909L179.34772727272727,160.9090909090909L179.59140625,160.9090909090909L179.8350852272727,160.9090909090909L180.07876420454548,160.9090909090909L180.3224431818182,160.9090909090909L180.5661221590909,160.9090909090909L180.80980113636363,160.9090909090909L181.05348011363634,-1984.5455184849827L181.2971590909091,160.9090909090909L181.5408380681818,160.9090909090909L181.78451704545455,160.9090909090909L182.02819602272726,160.9090909090909L182.27187500000002,160.9090909090909L182.51555397727273,160.9090909090909L182.75923295454544,160.9090909090909L183.00291193181818,160.9090909090909L183.2465909090909,160.9090909090909L183.49026988636365,160.9090909090909L183.73394886363636,160.9090909090909L183.9776278409091,160.9090909090909L184.2213068181818,160.9090909090909L184.46498579545457,160.9090909090909L184.70866477272727,160.9090909090909L184.95234374999998,160.9090909090909L185.19602272727272,160.9090909090909L185.43970170454546,160.9090909090909L185.6833806818182,160.9090909090909L185.9270596590909,160.9090909090909L186.17073863636364,160.9090909090909L186.41441761363635,160.9090909090909L186.6580965909091,160.9090909090909L186.90177556818182,160.9090909090909L187.14545454545456,160.9090909090909L187.38913352272726,160.9090909090909L187.6328125,160.9090909090909L187.87649147727274,160.9090909090909L188.12017045454544,160.9090909090909L188.36384943181818,160.9090909090909L188.6075284090909,160.9090909090909L188.85120738636365,160.9090909090909L189.09488636363636,160.9090909090909L189.3385653409091,160.9090909090909L189.5822443181818,160.9090909090909L189.82592329545454,160.9090909090909L190.06960227272728,160.9090909090909L190.31328125,160.9090909090909L190.55696022727273,160.9090909090909L190.80063920454546,160.9090909090909L191.0443181818182,160.9090909090909L191.2879971590909,160.9090909090909L191.53167613636364,160.9090909090909L191.77535511363635,160.9090909090909L192.0190340909091,160.9090909090909L192.26271306818182,160.9090909090909L192.50639204545453,160.9090909090909L192.75007102272727,160.9090909090909L192.99375,160.9090909090909L193.23742897727274,160.9090909090909L193.48110795454545,160.9090909090909L193.7247869318182,160.9090909090909L193.9684659090909,160.9090909090909L194.21214488636363,160.9090909090909L194.45582386363637,160.9090909090909L194.69950284090908,160.9090909090909L194.9431818181818,160.9090909090909L195.18686079545455,160.9090909090909L195.4305397727273,-1984.5455184849827L195.67421875,160.9090909090909L195.91789772727273,160.9090909090909L196.16157670454544,160.9090909090909L196.4052556818182,160.9090909090909L196.6489346590909,160.9090909090909L196.89261363636362,160.9090909090909L197.13629261363636,160.9090909090909L197.3799715909091,160.9090909090909L197.62365056818183,160.9090909090909L197.86732954545454,160.9090909090909L198.11100852272727,160.9090909090909L198.3546875,160.9090909090909L198.59836647727275,160.9090909090909L198.84204545454546,160.9090909090909L199.08572443181816,160.9090909090909L199.3294034090909,160.9090909090909L199.57308238636364,-3057.2727272727266L199.81676136363637,160.9090909090909L200.06044034090908,160.9090909090909L200.30411931818182,160.9090909090909L200.54779829545456,-3057.2727272727266L200.7914772727273,160.9090909090909L201.03515625,160.9090909090909L201.2788352272727,160.9090909090909L201.52251420454544,160.9090909090909L201.76619318181818,160.9090909090909L202.00987215909092,160.9090909090909L202.25355113636363,160.9090909090909L202.49723011363636,160.9090909090909L202.7409090909091,160.9090909090909L202.98458806818184,160.9090909090909L203.22826704545454,160.9090909090909L203.47194602272725,160.9090909090909L203.715625,160.9090909090909L203.95930397727273,160.9090909090909L204.20298295454546,160.9090909090909L204.44666193181817,160.9090909090909L204.6903409090909,160.9090909090909L204.93401988636364,160.9090909090909L205.17769886363638,160.9090909090909L205.4213778409091,160.9090909090909L205.6650568181818,160.9090909090909L205.90873579545456,160.9090909090909L206.15241477272727,160.9090909090909L206.39609375,160.9090909090909L206.6397727272727,160.9090909090909L206.88345170454545,160.9090909090909L207.1271306818182,160.9090909090909L207.37080965909092,160.9090909090909L207.61448863636363,160.9090909090909L207.85816761363637,160.9090909090909L208.1018465909091,160.9090909090909L208.3455255681818,160.9090909090909L208.58920454545455,160.9090909090909L208.83288352272726,160.9090909090909L209.0765625,160.9090909090909L209.32024147727273,160.9090909090909L209.56392045454547,160.9090909090909L209.80759943181818,160.9090909090909L210.0512784090909,160.9090909090909L210.29495738636365,160.9090909090909L210.53863636363636,160.9090909090909L210.7823153409091,160.9090909090909L211.0259943181818,160.9090909090909L211.26967329545454,160.9090909090909L211.51335227272727,160.9090909090909L211.75703125,160.9090909090909L212.00071022727272,160.9090909090909L212.24438920454546,160.9090909090909L212.4880681818182,160.9090909090909L212.7317471590909,160.9090909090909L212.97542613636364,-3057.2727272727266L213.21910511363635,160.9090909090909L213.4627840909091,160.9090909090909L213.70646306818182,160.9090909090909L213.95014204545456,160.9090909090909L214.19382102272726,160.9090909090909L214.4375,160.9090909090909L214.68117897727274,160.9090909090909L214.92485795454544,160.9090909090909L215.16853693181818,160.9090909090909L215.4122159090909,160.9090909090909L215.65589488636365,160.9090909090909L215.89957386363636,160.9090909090909L216.1432528409091,160.9090909090909L216.3869318181818,160.9090909090909L216.63061079545454,160.9090909090909L216.87428977272728,160.9090909090909L217.11796875000002,160.9090909090909L217.36164772727273,160.9090909090909L217.60532670454543,-3057.2727272727266L218.0926846590909,-3057.2727272727266L218.33636363636364,160.9090909090909L218.58004261363635,160.9090909090909L218.8237215909091,160.9090909090909L219.06740056818182,160.9090909090909L219.31107954545456,160.9090909090909L219.55475852272727,160.9090909090909L219.79843749999998,160.9090909090909L220.04211647727274,160.9090909090909L220.28579545454545,160.9090909090909L220.5294744318182,160.9090909090909L220.7731534090909,160.9090909090909L221.01683238636366,160.9090909090909L221.26051136363637,160.9090909090909L221.5041903409091,160.9090909090909L221.7478693181818,160.9090909090909L221.99154829545452,160.9090909090909L222.2352272727273,160.9090909090909L222.47890625,160.9090909090909L222.72258522727273,160.9090909090909L222.96626420454544,160.9090909090909L223.2099431818182,160.9090909090909L223.4536221590909,160.9090909090909L223.69730113636365,160.9090909090909L223.94098011363636,-1984.5455184849827L224.18465909090907,160.9090909090909L224.42833806818183,160.9090909090909L224.67201704545454,160.9090909090909L224.91569602272727,160.9090909090909L225.15937499999998,160.9090909090909L225.40305397727275,160.9090909090909L225.64673295454546,160.9090909090909L225.8904119318182,160.9090909090909L226.1340909090909,160.9090909090909L226.37776988636364,160.9090909090909L226.62144886363637,160.9090909090909L226.86512784090908,-3057.2727272727266L227.10880681818182,160.9090909090909L227.35248579545453,160.9090909090909L227.5961647727273,160.9090909090909L227.83984375,160.9090909090909L228.08352272727274,160.9090909090909L228.32720170454544,160.9090909090909L228.57088068181818,160.9090909090909L228.81455965909092,160.9090909090909L229.05823863636363,160.9090909090909L229.30191761363636,160.9090909090909L229.54559659090907,160.9090909090909L229.78927556818184,160.9090909090909L230.03295454545454,160.9090909090909L230.27663352272728,160.9090909090909L230.5203125,160.9090909090909L230.76399147727275,160.9090909090909L231.00767045454546,160.9090909090909L231.25134943181817,160.9090909090909L231.4950284090909,160.9090909090909L231.73870738636361,160.9090909090909L231.98238636363638,160.9090909090909L232.2260653409091,160.9090909090909L232.46974431818182,160.9090909090909L232.71342329545453,160.9090909090909L232.9571022727273,160.9090909090909L233.20078125,160.9090909090909L233.4444602272727,160.9090909090909L233.68813920454545,160.9090909090909L233.93181818181816,160.9090909090909L234.17549715909092,160.9090909090909L234.41917613636363,160.9090909090909L234.66285511363637,160.9090909090909L234.90653409090908,160.9090909090909L235.15021306818184,160.9090909090909L235.39389204545455,160.9090909090909L235.6375710227273,160.9090909090909L235.88125,160.9090909090909L236.1249289772727,160.9090909090909L236.36860795454547,160.9090909090909L236.61228693181818,160.9090909090909L236.8559659090909,160.9090909090909L237.09964488636362,160.9090909090909L237.34332386363639,160.9090909090909L237.5870028409091,160.9090909090909L237.83068181818183,160.9090909090909L238.07436079545454,160.9090909090909L238.31803977272725,160.9090909090909L238.56171875,160.9090909090909L238.80539772727272,160.9090909090909L239.04907670454546,160.9090909090909L239.29275568181816,160.9090909090909L239.53643465909093,160.9090909090909L239.78011363636364,-3057.2727272727266L240.02379261363637,-1984.5455184849827L240.26747159090908,160.9090909090909L240.51115056818182,160.9090909090909L240.75482954545456,160.9090909090909L240.99850852272726,160.9090909090909L241.2421875,160.9090909090909L241.4858664772727,160.9090909090909L241.72954545454547,160.9090909090909L241.97322443181818,160.9090909090909L242.21690340909092,160.9090909090909L242.46058238636363,160.9090909090909L242.70426136363636,160.9090909090909L242.9479403409091,160.9090909090909L243.1916193181818,160.9090909090909L243.43529829545454,160.9090909090909L243.67897727272725,-3057.2727272727266L243.92265625000002,160.9090909090909L244.16633522727273,160.9090909090909L244.41001420454546,160.9090909090909L244.65369318181817,160.9090909090909L244.89737215909093,160.9090909090909L245.14105113636364,160.9090909090909L245.38473011363635,-3057.2727272727266L245.6284090909091,160.9090909090909L245.8720880681818,160.9090909090909L246.11576704545456,160.9090909090909L246.35944602272727,160.9090909090909L246.603125,160.9090909090909L246.8468039772727,160.9090909090909L247.09048295454548,160.9090909090909L247.3341619318182,160.9090909090909L247.5778409090909,160.9090909090909L247.82151988636363,160.9090909090909L248.06519886363634,160.9090909090909L248.3088778409091,160.9090909090909L248.5525568181818,160.9090909090909L248.79623579545455,160.9090909090909L249.03991477272726,160.9090909090909L249.28359375000002,160.9090909090909L249.52727272727273,160.9090909090909L249.77095170454544,160.9090909090909L250.01463068181818,160.9090909090909L250.2583096590909,160.9090909090909L250.50198863636365,160.9090909090909L250.74566761363636,160.9090909090909L250.9893465909091,160.9090909090909L251.2330255681818,160.9090909090909L251.47670454545457,160.9090909090909L251.72038352272727,160.9090909090909L251.96406249999998,160.9090909090909L252.20774147727272,160.9090909090909L252.45142045454546,160.9090909090909L252.6950994318182,160.9090909090909L252.9387784090909,160.9090909090909L253.18245738636364,160.9090909090909L253.42613636363635,160.9090909090909L253.6698153409091,160.9090909090909L253.91349431818182,160.9090909090909L254.15717329545456,160.9090909090909L254.40085227272726,160.9090909090909L254.64453125,160.9090909090909L254.88821022727274,160.9090909090909L255.13188920454544,160.9090909090909L255.37556818181818,160.9090909090909L255.6192471590909,160.9090909090909L255.86292613636365,160.9090909090909L256.10660511363636,-3057.2727272727266L256.3502840909091,160.9090909090909L256.59396306818184,160.9090909090909L256.8376420454545,-3057.2727272727266" style="fill: none;" fill="none"></path></g></g></g></g></g></g><g transform="translate(61, 177)" clip-path="url(#clip_1)"><clipPath id="clip_1"><rect width="268" height="23"></rect></clipPath><g><g><line x1="0" y1="0" x2="0" y2="5" style="visibility: inherit;" fill="rgb(0, 0, 0)" stroke="rgb(204, 204, 204)" stroke-width="1px"></line><line x1="24.367897727272727" y1="0" x2="24.367897727272727" y2="5" style="visibility: inherit;" fill="rgb(0, 0, 0)" stroke="rgb(204, 204, 204)" stroke-width="1px"></line><line x1="48.73579545454545" y1="0" x2="48.73579545454545" y2="5" style="visibility: inherit;" fill="rgb(0, 0, 0)" stroke="rgb(204, 204, 204)" stroke-width="1px"></line><line x1="73.10369318181817" y1="0" x2="73.10369318181817" y2="5" style="visibility: inherit;" fill="rgb(0, 0, 0)" stroke="rgb(204, 204, 204)" stroke-width="1px"></line><line x1="97.4715909090909" y1="0" x2="97.4715909090909" y2="5" style="visibility: inherit;" fill="rgb(0, 0, 0)" stroke="rgb(204, 204, 204)" stroke-width="1px"></line><line x1="121.83948863636363" y1="0" x2="121.83948863636363" y2="5" style="visibility: inherit;" fill="rgb(0, 0, 0)" stroke="rgb(204, 204, 204)" stroke-width="1px"></line><line x1="146.20738636363635" y1="0" x2="146.20738636363635" y2="5" style="visibility: inherit;" fill="rgb(0, 0, 0)" stroke="rgb(204, 204, 204)" stroke-width="1px"></line><line x1="170.5752840909091" y1="0" x2="170.5752840909091" y2="5" style="visibility: inherit;" fill="rgb(0, 0, 0)" stroke="rgb(204, 204, 204)" stroke-width="1px"></line><line x1="194.9431818181818" y1="0" x2="194.9431818181818" y2="5" style="visibility: inherit;" fill="rgb(0, 0, 0)" stroke="rgb(204, 204, 204)" stroke-width="1px"></line><line x1="219.31107954545456" y1="0" x2="219.31107954545456" y2="5" style="visibility: inherit;" fill="rgb(0, 0, 0)" stroke="rgb(204, 204, 204)" stroke-width="1px"></line><line x1="243.67897727272725" y1="0" x2="243.67897727272725" y2="5" style="visibility: inherit;" fill="rgb(0, 0, 0)" stroke="rgb(204, 204, 204)" stroke-width="1px"></line><line x1="268.046875" y1="0" x2="268.046875" y2="5" style="visibility: inherit;" fill="rgb(0, 0, 0)" stroke="rgb(204, 204, 204)" stroke-width="1px"></line></g><g transform="translate(0, 8)"><text x="0" y="0" dx="0em" dy="0.95em" style="text-anchor: middle; visibility: hidden; font-family: Roboto, sans-serif; font-size: 12px; font-weight: 200;" fill="rgb(255, 255, 255)" stroke="none" stroke-width="1px">-100</text><text x="24.367897727272727" y="0" dx="0em" dy="0.95em" style="text-anchor: middle; visibility: inherit; font-family: Roboto, sans-serif; font-size: 12px; font-weight: 200;" fill="rgb(255, 255, 255)" stroke="none" stroke-width="1px">0</text><text x="48.73579545454545" y="0" dx="0em" dy="0.95em" style="text-anchor: middle; visibility: hidden; font-family: Roboto, sans-serif; font-size: 12px; font-weight: 200;" fill="rgb(255, 255, 255)" stroke="none" stroke-width="1px">100</text><text x="73.10369318181817" y="0" dx="0em" dy="0.95em" style="text-anchor: middle; visibility: inherit; font-family: Roboto, sans-serif; font-size: 12px; font-weight: 200;" fill="rgb(255, 255, 255)" stroke="none" stroke-width="1px">200</text><text x="97.4715909090909" y="0" dx="0em" dy="0.95em" style="text-anchor: middle; visibility: hidden; font-family: Roboto, sans-serif; font-size: 12px; font-weight: 200;" fill="rgb(255, 255, 255)" stroke="none" stroke-width="1px">300</text><text x="121.83948863636363" y="0" dx="0em" dy="0.95em" style="text-anchor: middle; visibility: inherit; font-family: Roboto, sans-serif; font-size: 12px; font-weight: 200;" fill="rgb(255, 255, 255)" stroke="none" stroke-width="1px">400</text><text x="146.20738636363635" y="0" dx="0em" dy="0.95em" style="text-anchor: middle; visibility: hidden; font-family: Roboto, sans-serif; font-size: 12px; font-weight: 200;" fill="rgb(255, 255, 255)" stroke="none" stroke-width="1px">500</text><text x="170.5752840909091" y="0" dx="0em" dy="0.95em" style="text-anchor: middle; visibility: inherit; font-family: Roboto, sans-serif; font-size: 12px; font-weight: 200;" fill="rgb(255, 255, 255)" stroke="none" stroke-width="1px">600</text><text x="194.9431818181818" y="0" dx="0em" dy="0.95em" style="text-anchor: middle; visibility: hidden; font-family: Roboto, sans-serif; font-size: 12px; font-weight: 200;" fill="rgb(255, 255, 255)" stroke="none" stroke-width="1px">700</text><text x="219.31107954545456" y="0" dx="0em" dy="0.95em" style="text-anchor: middle; visibility: inherit; font-family: Roboto, sans-serif; font-size: 12px; font-weight: 200;" fill="rgb(255, 255, 255)" stroke="none" stroke-width="1px">800</text><text x="243.67897727272725" y="0" dx="0em" dy="0.95em" style="text-anchor: middle; visibility: hidden; font-family: Roboto, sans-serif; font-size: 12px; font-weight: 200;" fill="rgb(255, 255, 255)" stroke="none" stroke-width="1px">900</text><text x="268.046875" y="0" dx="0em" dy="0.95em" style="text-anchor: middle; visibility: hidden; font-family: Roboto, sans-serif; font-size: 12px; font-weight: 200;" fill="rgb(255, 255, 255)" stroke="none" stroke-width="1px">1k</text></g><line x1="0" y1="0" x2="268.046875" y2="0" fill="rgb(0, 0, 0)" stroke="rgb(204, 204, 204)" stroke-width="1px"></line></g></g></g></g></svg>